<?xml version="1.0" encoding="utf-8"?>
<!-- Generator: Adobe Illustrator 26.0.1, SVG Export Plug-In . SVG Version: 6.00 Build 0)  -->
<svg version="1.1"
	 id="svg2" xmlns:cc="http://creativecommons.org/ns#" xmlns:dc="http://purl.org/dc/elements/1.1/" xmlns:rdf="http://www.w3.org/1999/02/22-rdf-syntax-ns#"
	 xmlns="http://www.w3.org/2000/svg" xmlns:xlink="http://www.w3.org/1999/xlink" x="0px" y="0px" viewBox="0 0 3125 1024.5"
	 style="enable-background:new 0 0 3125 1024.5;" xml:space="preserve">
<style type="text/css">
	.st0{fill:#F2FBFC;}
	.st1{fill:#EDF9F9;}
	.st2{fill:#E9F7F8;}
	.st3{fill:#E6F6F5;}
	.st4{fill:#E1F5F4;}
	.st5{fill:#DDF4F4;}
	.st6{fill:#D8F2EF;}
	.st7{fill:#C5EDE9;}
	.st8{fill:#B9EBE2;}
</style>
<g id="layer1" transform="translate(1390.74,-155.83136)">
	<path id="path3159" class="st0" d="M-1391.3,667.8v-512h782h782v512v512h-782h-782V667.8L-1391.3,667.8z"/>
	<path id="path3151" class="st1" d="M172.7,591.8l0.1-66.3c-1.2,0.3-11.4-0.3-21.4-0.1l-18.2,0.2l-3.8-3.6c-2.1-2-6.3-5.3-9.3-7.4
		c-7.5-5.2-11.6-9.2-15.2-14.5c-7.4-10.9-10.4-10.7-25.7,1.4c-11.7,9.4-12.9,9.7-31.6,8.1c-7.7-0.6-13.1-1.9-23.5-5.4
		c-12.5-4.2-14.3-4.6-23.5-4.6c-8.6,0-11.3,0.4-19,3.1c-12.5,4.3-15.1,4.6-23.6,2.9c-8.3-1.7-10.5-1.4-22.9,3
		c-7.2,2.5-35.4,37-38.4,35.8c-62.4-33.2-71.9-13.2-91.5-16.9C-305.4,506.8,167.7,863.7,172.7,591.8L172.7,591.8z"/>
	<path id="path3153" class="st2" d="M-543.3,385.8c-1.7,0-3.5,0.1-5.5,0.1c-17.3,0.6-28.4,4.1-46.3,14.9c-12.3,7.4-37,18-76.7,32.8
		c-50.1,18.7-81.6,31.3-85,34c-2.4,1.9-26.6,11.2-45,17.2c-20,6.6-32,10.3-73,22.4c-12.1,3.6-27.4,8.1-34,10
		c-12.8,3.8-11.6,3.7-32,1.4c-5-0.6-14.4-1.3-20.9-1.6c-11.5-0.5-22-2.7-30.2-6.1c-1.9-0.8-8.3-2.6-14.2-4
		c-9.3-2.2-12.9-2.6-26.7-2.5c-11.1,0-17.7,0.5-21.5,1.5c-17.6,4.9-22.2,5.9-28.7,6.3c-13.8,0.9-27.4-4.1-42-15.2
		c-2.4-1.9-7.4-4.8-11-6.5c-9.4-4.5-15.6-3.9-28.4,2.6c-15.7,8-16.6,8.4-22.6,10c-7.5,1.9-15,1.8-19.2-0.3c-2.5-1.3-4.5-3.7-7.8-9.7
		c-5.4-9.8-7.4-12-12.8-14.1c-3.4-1.3-6.5-1.5-14.6-1.1c-18.8,1-34.4,5.4-53.9,15.2c-16.4,8.3-35.8,14.4-58.4,18.4
		c-9.9,1.8-21.3,3.9-25.2,4.6c-4,0.7-8.6,1.4-10.2,1.4h-3c0,35.6,1.4,426.4,0.8,662H171.9c0-9.3,0.3-18.5,1-27.5V589.8
		c-260.7-62.3-369.5-122.2-661-191.8C-525.4,387.3-531.5,385.7-543.3,385.8L-543.3,385.8z"/>
	<path id="path3149" class="st3" d="M-1391.3,898.9v-281l2.2-1.2c1.2-0.7,2.2-1.1,2.2-1s1.2-0.2,2.7-0.8s3.7-1.2,5-1.4
		s3.5-0.9,4.9-1.5c4.3-1.8,11-3.4,11.6-2.8c0.3,0.3,1,0.2,1.6-0.3c1.5-1.2,13.7-4.3,14.4-3.6c0.3,0.3,1.1,0.1,1.9-0.6s2-0.8,2.8-0.5
		s1.8,0.1,2.1-0.5c0.3-0.6,1.2-0.8,2-0.5s1.6,0.1,1.9-0.4s1.3-0.9,2.3-1c2.7-0.1,6.6-0.7,8.2-1.3c0.8-0.3,2.2-0.6,3-0.6
		c3.2-0.2,12.9-1.7,17.4-2.8c1.2-0.3,4.1-0.7,6.6-0.9s6.1-0.7,8-1.1s4.1-0.6,4.8-0.4s2-0.3,2.8-1s1.7-0.9,2.1-0.6
		c0.3,0.3,1.2,0.1,2-0.5s2-0.9,2.8-0.6s1.7-0.1,2-1c0.4-1.1,1.7-1.4,4.5-1.2c2.1,0.2,3.7,0.1,3.5-0.3c-0.2-0.4,1.3-1,3.3-1.4
		c5.2-1,24.2-6.5,26.1-7.6c3.4-2,28.6-10,29.8-9.5c0.7,0.3,1.3,0.1,1.3-0.3s0.6-0.8,1.2-0.8c1.2,0,7.9-2.8,14.7-6.1
		c1.9-0.9,3.7-1.7,4-1.7s1.5-0.5,2.6-1.1s3.2-1.4,4.8-1.7c1.5-0.4,2.8-1.1,2.8-1.6c0-0.7,5.3-3.1,8-3.6c2.4-0.4,5-1.8,5-2.6
		c0-0.5,0.4-0.7,1-0.4s1,0.2,1-0.4c0-1,6.8-3.7,8.2-3.3c0.4,0.1,0.8-0.3,0.8-1s0.3-0.9,0.6-0.5c0.3,0.3,1.3-0.1,2.1-0.9
		s2.2-1.3,2.9-1c0.8,0.3,1.2,0.1,0.9-0.3c-0.6-1,2.2-2.3,3.5-1.6c0.5,0.3,1.1,0.1,1.5-0.5s1.1-0.8,1.6-0.5s0.9,0.1,0.9-0.5
		s0.4-0.8,1-0.5s1,0.1,1-0.5s0.4-0.8,1-0.5s1,0.1,1-0.5s0.4-0.9,0.9-0.5c0.5,0.3,1.2,0.1,1.6-0.5s1.1-0.8,1.6-0.5s0.9,0.2,0.9-0.3
		c0-1.2,8-4.3,9.1-3.6c0.5,0.3,0.9,0,0.9-0.6s0.7-0.9,1.5-0.6s1.5,0.1,1.5-0.5s0.5-0.9,1.2-0.7s2-0.4,3-1.4
		c1.5-1.5,6.6-2.5,10.1-1.9c0.4,0.1,0.8-0.4,0.8-0.9c0-0.6,0.8-0.8,1.9-0.5s2.2,0.1,2.5-0.4c0.9-1.4,23.8-0.7,24.3,0.8
		c0.2,0.6,1.5,1.1,2.8,1.1s2.4,0.4,2.4,0.8s0.6,0.8,1.2,0.9c2.2,0.1,12.2,5,14.5,7.2c1.2,1.2,2.9,2.1,3.7,2.1c0.8,0,1.9,0.6,2.3,1.3
		s2,1.8,3.5,2.5s2.8,1.7,2.8,2.2c0,0.6,0.7,1,1.5,1s1.5,0.5,1.5,1.1s0.4,0.8,0.8,0.5s1.8,0.4,3,1.4s2.6,2,3.2,2s1,0.4,1,0.9
		s1.2,1.2,2.8,1.6c1.5,0.4,2.8,0.5,2.8,0.4s1.3,0.6,3,1.8c228.1,125.2,1191.6,19.2,1191.5,624.4h-1564L-1391.3,898.9L-1391.3,898.9z
		 M-937.8,954.1c2.4-5.6,0.9-8.1-4.7-7.9c-3.9,0.1-4.3,0.4-4.6,2.9c-0.3,2.3,0.3,3,3.2,4.4c2,0.9,3.6,2.3,3.6,3
		C-940.3,958.8-939.4,957.9-937.8,954.1L-937.8,954.1z M-924.8,946.8c-0.3-0.5-1-1-1.6-1s-0.9,0.5-0.9,1s0.7,1,1.6,1
		S-924.5,947.4-924.8,946.8z M-1018.3,553.8c0.8-0.5,2-1,2.5-1s0.3,0.4-0.5,1s-2,1-2.5,1S-1019.1,554.4-1018.3,553.8z
		 M-1006.8,549.8c0.3-0.5,1.1-1,1.6-1s0.7,0.5,0.4,1s-1.1,1-1.6,1S-1007.1,550.4-1006.8,549.8z"/>
	<path id="path3147" class="st4" d="M-1390.9,898.5l0.3-281.1l9.5-2.9c24.6-7.4,69.7-17.1,90.5-19.4c5.6-0.6,13.6-2.3,29.5-6.1
		c10.4-2.5,30.7-8.9,41-12.9c5.2-2,10.4-3.9,11.5-4.2c2.3-0.6,23.5-9.4,31-12.8c61.7-28.3,76.7-33.8,93-33.8
		c13.5,0,20.4,2.9,47.9,20.5c7.6,4.9,14.3,8.9,14.8,8.9s4.7,1.8,9.4,4c15.2,7.2,28.4,10,49.9,10.6c11.1,0.3,17.6,1.1,25,2.8
		c21.1,5,28.6,7.9,68.2,26c22.5,10.3,27.7,12,28.6,9.4c0.3-0.9,0.8-1,1.8-0.2c2,1.6,11.8,4.6,15.9,4.9c1.9,0.2,6.2,1.1,9.5,2
		s7.9,2.2,10.2,2.8c3,0.8,4.2,1.6,4.2,2.9c0,2.5,2.6,3.3,7.2,2c2.4-0.6,4.1-0.7,4.5-0.1c1.2,1.9,9.1,4.5,15.6,5.1
		c4.6,0.4,7.7,1.3,9.7,2.8c2.2,1.6,3.7,2,6.3,1.6c2-0.4,6.1,0.1,10.3,1.3c15.1,4.1,42.4,12.3,50.5,15.2c4.7,1.7,10.3,3.6,12.5,4.3
		c5.8,1.8,36.2,13.9,48.4,19.2c9.9,4.3,10.8,4.5,17.5,4c7.6-0.6,14.6-2.9,42.4-14.2c24.9-10.1,32.8-12,49.2-12
		c15.1,0,10.7-1.3,41.5,12.4c21.8,9.7,46.1,19.2,71.8,28.1l6.8,2.4l4.2-2.4c13.6-7.8,19.4-10.5,30.3-14c11-3.6,31.9-8,44.9-9.6
		c2.8-0.3,6.6-0.8,8.5-1.1c6.8-0.9,35.6-3.3,46-3.9c12.9-0.7,37.4-3.2,45.5-4.6c11.8-2,29.3-6.9,45-12.5c23.2-8.2,24.1-8.5,31.7-8.5
		c19.3,0,44.1,9.5,86.8,33.3c28.4,15.8,58.2,29,75.5,33.3c7.1,1.8,8.6,1.8,44.5,1.3c11.5-0.2,16.6,0.2,24.5,1.9
		c12.2,2.5,28.4,5.4,47,8.3c15.3,2.4,28.8,5.6,37.8,8.9l5.8,2.2v454.9h-1564L-1390.9,898.5L-1390.9,898.5z"/>
	<path id="path3145" class="st5" d="M-1391.3,693.3c-0.1-71.6,0-75.5,1.7-75.5c1,0,4.7-0.9,8.3-2.1c21.3-6.7,46.7-12.4,75.5-16.9
		c38.3-6,51.7-9.2,79.5-18.8c15.3-5.3,28.3-10.4,38.8-15.3c3.5-1.6,6.5-2.9,6.8-2.9s2.8-1.1,5.7-2.4c18-8.4,24.5-11.3,35.2-16.1
		c6.6-2.9,13.1-5.6,14.5-6s2.9-1.1,3.5-1.5c2.1-1.5,19.6-6.9,28-8.6c7.2-1.4,9.8-1.5,14.7-0.6c8.4,1.6,21.6,7.7,34.4,15.9
		c14,9,16.7,10.6,29.5,16.9c17.2,8.5,29.3,11.2,53.2,11.8c9.1,0.2,17.4,0.8,18.4,1.4c1,0.5,3.7,1.2,6,1.6
		c10.2,1.6,38.8,12.1,58.9,21.8c4.5,2.1,8.4,3.9,8.7,3.9s5.7,2.5,11.9,5.5s11.7,5.5,12.1,5.5c0.4,0,4,1.5,8,3.4
		c7.6,3.6,25.4,9.6,28.5,9.6c1,0,3.6,0.9,5.8,2.1s5.5,2.2,7.4,2.4c11.1,1.2,25.8,4,26.7,5.1c1.9,2.3,6,3.3,10,2.3
		c2.1-0.5,5.4-0.9,7.3-0.9c5.9,0,33.4,6.9,52.4,13.1c16.3,5.4,59.7,21.9,62.2,23.7c1.7,1.2,11.8,4.9,15.2,5.6c1.8,0.4,5.8,0.1,9-0.5
		c5.2-1,23.3-7.1,30.8-10.4c1.7-0.7,4.8-2.1,7-3.1c19.2-8.5,36.3-12.8,51-12.8c12.5,0,8.4-1.4,50.5,16.8c12.4,5.3,26.1,11,30.5,12.6
		s8.9,3.3,10,3.9c3.7,1.8,23,8.2,26.2,8.7c2.6,0.4,4.8-0.4,11-4.2c25.3-15.4,57.7-21.7,140.8-27.5c29.1-2,49-6.3,78-16.6
		c22.3-8,26.9-8.8,38.2-6.8c19.3,3.4,41.1,12.8,85.3,36.9c27,14.7,53.6,25.9,70.5,29.7c3.3,0.7,10.5,1.3,16,1.2s16.5-0.2,24.5-0.4
		c12.6-0.2,16.7,0.2,31,2.8c9.1,1.7,21.2,3.8,27,4.7c29,4.5,42.2,7.3,52.5,11.2l5,1.9l0.3,227.2l0.3,227.2h-1564
		C-1390,1018.9-1391.1,836-1391.3,693.3L-1391.3,693.3z"/>
	<path id="path3141" class="st6" d="M-1391.2,984.8c0-143.5,0.3-195,1.1-195c0.7,0,0.7-0.5-0.2-1.6c-1.1-1.4-1-1.8,0.6-3
		c1-0.8,2.3-1.4,2.7-1.4c0.4,0,0.3-0.9-0.4-2c-1-1.7-0.9-2.2,0.7-3.6c1.4-1.1,1.6-1.7,0.7-2.1c-1.9-0.8-1.5-4.2,0.5-4.6
		c1.4-0.3,1.8-1.4,1.8-4.8c0-4.1,0.2-4.5,2.8-4.8c2.4-0.3,3,0.2,4.7,4.2c1.1,2.5,2.9,5,4,5.6c1.6,0.9,2,1.9,1.8,4.8
		c-0.2,3.1,0,3.7,2.2,4.3c2.6,0.6,2.9,2.2,1.5,6.8c-0.6,1.9-0.3,2.3,2.5,2.9c4.1,0.8,4.8,2.9,2.1,5.8c-2.4,2.6-2,4.5,0.9,4.5
		c3.2,0,4.4,2.5,3.1,6.5c-1.5,4.4-0.6,8.7,1.5,7.8c0.8-0.3,1.4-1.5,1.3-2.7c-0.4-4.5,0.2-6.4,2-6.9c1.3-0.3,1.9-1.6,2.1-4.4
		c0.3-5.2,0.6-7.6,1.3-9.4c0.3-0.8,1.2-3.6,1.9-6.2c1.6-5.8,3.7-6.2,6.3-1c2.9,5.5,4.6,7.2,7.3,7.2h2.4l-2.6-3.1
		c-3.4-4-3.3-5.9,0.2-6h2.8l-2.2-1.9c-3.2-2.6-2.8-4.7,0.9-5.4c3-0.6,3.1-0.7,1.4-2.5c-1.6-1.8-1.6-2,0.4-3.4
		c1.8-1.3,1.9-1.6,0.6-2.7c-2.2-1.8-1.9-3.7,0.8-4.4c2-0.5,2.2-1.1,1.9-4.7c-0.7-7,4.5-7.3,7.4-0.4c0.8,1.8,2.4,4,3.6,4.9
		c1.8,1.2,2,2.2,1.6,5.1c-0.5,3.4-0.4,3.6,2.4,4.2c3.1,0.6,3.9,3.3,2,6.3c-1.1,1.8,0.5,4,3,4c1,0,2.3,0.7,3,1.5c1,1.2,0.7,2-1.4,4
		c-3.4,3.4-3.3,4.3,0.7,4.7l3.2,0.3l-0.3,7.1c-0.3,7.7,0.2,8.6,5.2,9.8c2.1,0.5,3.2,0.2,4.2-1.1c1.3-1.7,1.5-1.6,3.9,1.2
		c1.4,1.7,2.5,3.7,2.5,4.6c0,0.9,0.7,2.2,1.5,2.9s1.3,1.6,1,2s0.2,1.5,1.1,2.4s1.3,2.4,1,3.5c-0.4,1.2,0,2.1,1,2.5
		c1.2,0.5,1.4,1.4,1,3.6c-0.5,2.3-0.2,3.2,1.4,4.2c2.2,1.4,2.8,4.3,1.1,5.3c-1.9,1.1-1,2.5,1.5,2.5c2.9,0,4.2,2.4,2.5,4.5
		c-1,1.2-1,1.5,0.1,1.5c0.7,0,2.3,1.2,3.6,2.8c1.7,2.1,2.3,2.3,2.3,1.1c0-1,1-1.8,2.3-2c2-0.3,2.2-0.9,2.4-6.5
		c0.1-3.4,0.5-6.8,1-7.5s1.3-3.4,1.9-5.8c1.4-6.2,3.9-6.1,7.6,0.5c1.5,2.8,2.8,5.8,2.8,6.8s0.5,1.8,1.1,1.8s1,1.1,1,2.4
		c0,1.3,0.4,2.7,1,3.1s1,2.1,1,3.9c0,2.3,0.7,3.8,2.2,4.8c2,1.3,2.1,1.8,1,3.6c-1.7,2.8-1.6,3.1,1.2,3.1c2.9,0,4.3,1.7,2.7,3.3
		c-1.5,1.5-1.4,2.7,0.1,2.7c0.7,0,2.1,1.5,3.1,3.2c1.6,2.9,1.9,3,2.8,1.4c0.6-1,0.7-2.4,0.4-3.3c-0.3-0.8,0.1-3.4,0.8-5.7
		c0.8-2.3,1.7-5.9,2.1-8c1.2-6.7,3.3-6,7.9,2.7c1.4,2.7,2.6,5.5,2.6,6.2s0.5,1.4,1.1,1.4c0.7,0,0.9,0.9,0.5,2.4
		c-0.4,1.7-0.1,2.6,1,3c1.2,0.4,1.4,1.4,0.9,3.5c-0.5,2.4-0.2,3.2,2,4.6c1.4,0.9,2.4,2.3,2.1,3s-0.1,1.6,0.4,1.9
		c0.5,0.3,1-0.3,1-1.4s0.4-2.3,0.9-2.6s0.7-2.1,0.4-4c-0.5-3-0.2-3.6,1.9-4.4c2.2-0.8,2.5-1.5,2.7-7.1c0.1-3.4,0.6-6.9,1.1-7.8
		s1.4-3.6,2.1-6c1.7-5.8,3.7-5.2,7.4,2.5c1.7,3.4,3.3,6.2,3.5,6.2c0.3,0,1.1-1.4,1.9-3.2c2.2-5,5.4-9.7,6.7-9.7
		c1.5,0,3.2,5.2,4.3,13.1c1,7.2,1.8,8.2,5.4,7.3c3.2-0.8,4.9-4.4,4.6-9.6c-0.2-3.1,0.1-3.7,2-4c2-0.3,2.3-1,2.6-6.3
		c0.2-3.3,0.7-6.7,1-7.5c0.4-0.8,1.1-3.5,1.7-6c1.5-6.5,4.1-6.1,7.7,1c1.5,3,3,6.3,3.3,7.3c0.5,1.5,1.2,1.7,4.3,1.1
		c4.8-0.9,4.9-1,2.8-3.4c-2.2-2.4-1.4-5,1.5-5c1.8,0,2-0.4,1.5-2.9c-0.5-2.4-0.3-3,1.4-3.6c1.2-0.4,2.1-1.5,2.1-2.8
		c0-1.2,1.5-3.9,3.4-6.1c4-4.7,6.6-4.4,6.6,0.8c0,1.9,0.6,3.6,1.3,3.9c0.8,0.3,1.4,2.3,1.4,5.3c0,3.2,0.6,5,1.7,5.6
		c1.9,1.1,2.1,3.4,0.3,4.1c-0.9,0.3-0.6,0.9,0.7,2c1.9,1.5,1.9,1.6,0.2,3.5c-1.6,1.7-1.6,2.1-0.3,3.2c0.8,0.7,1.8,2.7,2.1,4.5
		c0.4,2,1.5,3.7,2.7,4.2c1.5,0.7,2.4,2.5,3.3,6.9c0.7,3.3,1.3,7.1,1.3,8.4c0.1,1.4,1.4,3.8,3.1,5.4c3.5,3.4,4.7,7,3,9
		c-0.9,1.1-0.8,1.5,0.6,2c1,0.3,2.3,1.6,2.8,2.8c1.6,3.6,2.9,2.6,3.7-2.7c1.1-7.9,2-11.5,2.9-12.1c0.5-0.3,0.9-1.5,0.9-2.6
		c0-3.5,3.1-1.7,6.1,3.6c1.5,2.8,2.8,5.6,2.8,6.3s0.8,2,1.6,2.9c1.2,1.2,1.3,1.9,0.4,2.9c-0.9,1.1-0.8,1.5,0.5,2
		c1,0.4,1.6,1.8,1.6,4c0,2.3,0.6,3.7,1.9,4.4c1.1,0.6,2.1,2,2.3,3.3c0.4,2.1,0.5,2.1,1.7-0.7c0.7-1.7,1.2-4.5,1.1-6.3
		c-0.2-2.6,0.2-3.4,1.9-3.9c1.3-0.3,2.1-1.4,2.2-2.7c0.3-7.9,3-19.8,5.1-22.1c1.1-1.2,5.7,4.2,5.8,6.7c0,0.9,0.5,2,1,2.3
		s1,1.5,1,2.6s0.7,2.2,1.6,2.6c1.1,0.4,1.4,1.3,1,2.9c-0.3,1.4-0.1,2.4,0.7,2.7c0.7,0.2,1.1,1.8,1,3.6c-0.2,2.3,0.3,3.5,1.8,4.4
		c2.1,1.3,2.7,4.2,1,5.3c-1.8,1.1-1,2.5,1.4,2.5c3.3,0,4.1,1.7,2,4.1c-1.7,1.9-1.7,1.9,0.3,1.9c1.1,0,2.8,1.1,3.7,2.5
		c1.3,2,2.5,2.5,5.5,2.5c5.2,0,6.7-1.9,4.6-6c-1.8-3.5-1.3-5,1.5-5c2.6,0,2.4-0.9-0.7-4.1c-3-3.1-2.5-4.9,1.4-4.9h2.7l-2.8-2.3
		c-3.6-2.9-3.5-4.7,0.2-4.7c2,0,3-0.5,3-1.5c0-0.8-0.4-1.5-1-1.5c-1.7,0-1.1-2.8,0.7-3.9c1.6-0.9,1.6-1.1-0.1-3
		c-1.8-2-1.8-2.1,0.5-3c2-0.8,2.4-1.6,2.4-5.3s0.3-4.4,2.2-4.7c1.7-0.2,2.7,0.6,4.4,4c1.2,2.4,3.1,4.9,4.1,5.7
		c1.5,1.1,1.8,2.1,1.3,4.6c-0.6,3-0.3,3.4,2.4,4.3c3,1,4,3.4,2,4.7c-0.5,0.3-1,1.5-1,2.6c0,1.4,0.9,2.1,3.1,2.6
		c4.2,0.8,4.8,3.1,1.6,5.9c-3.4,3-3.4,4.4,0.2,4.4c4,0,5.8,2.3,4.3,5.6c-2.5,5.5-0.5,11.4,3.8,11.4c1,0,2.6,0.9,3.6,2
		c1.8,2,6.5,2.8,6.5,1.2c0-0.5-1.1-1.9-2.5-3.2c-3.2-3-3.2-5,0-5c3.1,0,3.2-1.3,0.3-3.2c-2.8-1.9-1.8-4.8,1.7-4.8
		c2.5,0,2.5,0,0.9-2.6c-1.6-2.5-1.6-2.6,0.5-3.1c2.5-0.7,2.8-2.1,0.7-3c-2.4-0.9-1.7-3.3,1.1-4c1.7-0.4,2.4-1.1,2-2.1
		c-1.6-4.1-1.6-6-0.1-7.2c1.9-1.6,3.9-0.2,6.3,4.4c0.9,1.7,2.7,4.1,4,5.3c1.9,1.8,2.2,2.6,1.4,4.2c-1.6,3-1.3,3.8,2.1,4.4
		c2.8,0.6,3.1,0.9,2.5,3.4c-1.2,5.2-1.1,5.5,2.4,6.8c3.9,1.4,4,2.7,0.4,6.6c-2.8,2.9-2.3,3.9,1.8,3.9c3.5,0,4.4,2,3,6.6
		c-1,3.2-0.9,3.6,1.4,4.6c1.3,0.6,2.4,1.9,2.4,2.8s1,2.4,2.2,3.2c1.7,1.1,2.2,2.5,2.3,6c0.1,4.7,2.5,8.7,5.1,8.7
		c2.2,0,2.6,2,0.9,4.6c-1.9,2.9-1.5,3.8,1.3,2.9c2.2-0.7,5.7-8.6,6.7-15.3c0.8-5.2,2.5-5.4,5-0.8c2.1,3.8,3.1,4.2,6,2.1
		c1.8-1.3,1.8-1.5,0.2-3.3c-1.9-2.1-1.4-3.3,1.4-3.3c1.6,0,1.8-0.6,1.2-3.9c-0.8-4.9,0.9-8.1,4.1-8.1c3,0,3.2-1.5,0.5-3.2
		c-3.2-2-2.6-4.8,1-4.8c3.4,0,3.5-0.2,1.8-3.1c-1.1-1.7-1-2.2,0.6-3.1c1.7-1,1.7-1.2,0.2-2.9c-1.8-2-1.3-4,1-4
		c2.1,0,2.6-1.5,1.6-4.3c-0.7-1.7-0.6-3,0.3-4.1c1.7-2.3,4.2-1.1,5.8,2.7c0.7,1.7,2.5,4.4,4.1,6c2.4,2.4,2.6,3.2,1.7,5
		c-1.2,2.3-0.5,3.5,2.6,4c1.9,0.4,2.5,3,1.4,6.8c-1,3.3,3.6,1.7,15.7-5.7c27-16.5,46.1-25.5,68.4-32.3c28.2-8.6,57-23,82.8-41.3
		c12.2-8.7,26.1-20,47.7-39c29.4-25.7,35.6-30.3,48.1-35.5c13.6-5.6,22.7-7.2,54.9-9.6c38.1-2.8,52.3-5.5,76-14.3
		c18.5-6.9,47.4-22.7,78.9-43.4c8.2-5.4,15.4-9.8,15.9-9.8c0.6,0,5.4-2.5,10.7-5.5c25.8-14.7,51.4-19.9,126.5-25.5
		c45.9-3.4,58.8-6.1,96.4-19.7c15.5-5.6,21.2-6.6,30.8-5.2c18.9,2.6,38.8,10.9,76.9,31.8c31.8,17.5,59.7,29.8,77.5,34.2
		c9.9,2.5,15.1,2.7,42.5,2.1c11-0.2,16.3,0.2,34.5,3.2c11.8,1.9,26.7,4.3,33,5.2c17.3,2.5,30.5,5.3,40.7,8.7l9.2,3.1v453.7h-1564
		L-1391.2,984.8z M-995.3,930.8c0-0.5-0.4-1-0.9-1s-1.2,0.5-1.6,1s0.1,1,0.9,1S-995.3,931.4-995.3,930.8z M-1036.3,928
		c0-1.6-2.9-3.3-5.1-2.9c-2.8,0.4-3.6,2.5-1.2,3.1C-1039.4,928.9-1036.3,928.9-1036.3,928L-1036.3,928z M-1037.8,918.8
		c-0.3-0.5-1.2-1-2-1s-1.7,0.5-2,1c-0.4,0.6,0.5,1,2,1S-1037.4,919.4-1037.8,918.8z M-1171.3,870.8c0-0.5-0.4-1-1-1s-1,0.5-1,1
		s0.4,1,1,1S-1171.3,871.4-1171.3,870.8z M-1145.3,845.6c0-1.6-0.3-1.9-1.1-1.1c-0.6,0.6-0.8,1.6-0.4,2.2
		C-1145.8,848.4-1145.3,848-1145.3,845.6z M-1298.3,820.9c0-1.3-0.5-1.8-1.5-1.4c-0.8,0.3-1.5,1.2-1.5,2s0.7,1.4,1.5,1.4
		C-1299,822.8-1298.3,821.9-1298.3,820.9z"/>
	<path id="path3135" class="st7" d="M-1390.8,984.6c0.1-107.4,0.3-194.2,0.6-192.9c0.6,3,3,3.9,5.1,1.8c1.6-1.6,1.5-1.8-0.6-3.5
		c-2.9-2.4-2.8-3,0.2-3c3.3,0,4.1-1.7,2-4.1c-1.7-1.9-1.7-2,0.2-3.4c1.5-1.1,1.7-1.8,0.8-3.2c-0.9-1.4-0.7-2.1,0.9-3.4
		c1.7-1.4,1.8-2.1,0.9-4.7c-1-3-0.8-4.2,0.9-4.2c0.4,0,1.3,1.5,1.9,3.4c0.6,1.8,2.2,4.4,3.5,5.6c2.1,2,2.2,2.6,1.3,4.8
		c-1,2.1-0.8,2.7,0.8,3.9c1,0.8,2.5,1.4,3.2,1.4c1.6,0,1.7,1.4,0.3,4c-0.8,1.5-0.6,2.4,1,3.9c1.1,1.1,2.7,2,3.5,2
		c2.1,0,1.9,1.3-0.5,3.5c-3.4,3-2.3,4.8,4.4,6.9c1.3,0.4,1.6,1.1,1.1,2.3c-1.5,3.5-1.7,7.3-0.5,10.2c1.3,3,4.2,4.9,4.8,3.1
		c0.2-0.6,1-1.7,1.8-2.5s1.4-3,1.4-4.9c0-2,0.6-3.7,1.4-4c1.2-0.4,3.1-5.9,2.8-7.8c-0.1-0.3,0.5-3.5,1.2-6.9
		c1.3-6.3,3.1-8.7,4.2-5.3c0.3,1,1,2.6,1.5,3.6s0.9,2.4,0.9,3.3c0,0.8,0.7,1.8,1.5,2.1c1.1,0.4,1.2,1.1,0.5,2.3
		c-1.2,2.2-0.4,3,2.6,3c1.6,0,2.3-0.6,2.3-1.9c0-1.1-0.4-2.2-1-2.6c-1.9-1.1-1-2.5,1.5-2.5c3.7,0,4.2-2.6,1-5.9l-2.7-2.8l2.6-0.6
		c3.2-0.8,3.3-3.2,0.3-5.7l-2.2-1.9h2.6c3.8,0,5.3-2,3.3-4.2c-1.5-1.6-1.5-1.9,0.1-3.4c1.5-1.5,1.5-1.8,0.1-3.4
		c-1.5-1.6-1.4-1.8,0.6-2.3s2.1-1,1.5-5.1c-0.8-5.7,0.8-6.1,3-0.8c0.9,2.1,2.5,4.5,3.7,5.4c1.9,1.4,2,2,1,4.2
		c-0.9,2.1-0.8,2.8,0.6,4.1c1,0.9,2.5,1.6,3.4,1.6c2,0,2,0.2,0.5,3.4c-1,2.1-0.9,2.9,0.7,4.5c1,1.1,2.6,2,3.7,2
		c2.6,0,2.3,1.5-0.7,3.4c-3.8,2.5-3,5.9,1.6,6.6c3,0.4,3.5,0.8,3.2,3c-0.8,7.2-0.6,9.9,1.2,11.9c1,1.1,2.6,2.1,3.5,2.1
		s2.3,0.4,3.1,1c1.2,0.8,0.8,1.6-2.2,4.8c-4.2,4.3-4.7,6.8-1.7,7.7c4.4,1.4,7.1-1.8,8.2-9.9c0.4-2.6,2.6-3.2,3.3-0.9
		c0.3,1,1,2.6,1.5,3.6s0.9,2.4,0.9,3.1c0,0.8,0.6,1.9,1.4,2.6c0.8,0.7,1.2,2.1,0.9,3.2c-0.3,1.3,0,2.4,1,3c1,0.5,1.4,1.7,1,2.9
		c-0.3,1.3,0.3,2.9,1.8,4.5c1.8,1.9,2,2.7,1.1,3.7c-1.9,1.9-1.4,3.7,1.3,4.4c2.6,0.7,3.2,1.8,1.5,2.9c-1.9,1.2-1,3.4,1.6,3.7
		c1.5,0.2,3.2,1.4,4.2,3c1.5,2.5,1.5,2.8-0.2,4.7c-2,2.2-1.4,4.1,1.3,4.1c2.7,0,5.6-3.8,5.2-6.8c-0.2-1.7,0.4-3.1,1.8-4.2
		c1.5-1.2,2.2-3,2.5-6.6c0.5-5.9,2.3-15.6,3.1-16.4c0.7-0.7,2.4,2,2.4,4c0,0.9,0.7,2.2,1.5,2.9s1.5,2.1,1.5,3.1s0.4,2.1,0.9,2.4
		c0.5,0.3,0.7,1.5,0.4,2.5c-0.3,1.3,0.1,2.2,1.1,2.6c1,0.4,1.6,1.8,1.6,4c0,2.3,0.6,3.7,2,4.4c1.8,1,1.9,1.3,0.5,3.2
		c-1.7,2.5-0.5,4.8,2.6,4.8c2.3,0,2.4,1.3,0.4,3c-2,1.6-1,3,2,3c1.3,0,2.4,0.4,2.4,0.9c0,1.7,5.3,7.2,6.1,6.4
		c0.5-0.5,1.3-3.5,1.8-6.8c1.4-8.5,2.7-14.4,3.5-15.2c0.9-0.9,3.5,2.8,3.6,4.9c0,0.9,0.5,2,1,2.3s1,1.5,1,2.6s0.5,1.9,1,1.9
		c0.6,0,0.8,1,0.4,2.4c-0.4,1.6-0.1,2.6,1,3c1,0.4,1.6,1.8,1.6,3.6s0.8,3.7,1.9,4.7c1.5,1.3,1.7,2,0.8,3.4c-1.5,2.4-0.7,3,3.1,2.3
		c2.1-0.4,3.2-1.2,3.2-2.4c0-1,0.7-2,1.4-2.3c1-0.4,1.3-1.5,0.9-4.1c-0.4-2.7-0.2-3.7,1.1-4.2c0.9-0.3,1.6-1.5,1.6-2.5
		s0.5-2.1,1.1-2.5s0.9-1.5,0.6-2.5c-0.5-1.9,1.5-11.9,2.8-13.9c1-1.6,3.5,0.6,3.5,3c0,1,0.4,2.1,1,2.4c0.6,0.3,1,1.5,1,2.6
		c0,2.9,6.5,2.3,6.6-0.6c0.1-2.5,3.2-8.5,4.3-8.5c1.2,0,2,2.4,3,9.7c0.5,3.5,1.5,7.1,2.2,8s1.2,2.4,1,3.3c-0.2,1,0.2,2,0.8,2.4
		c0.6,0.4,1,1.5,1,2.6c0,1.3,0.7,1.9,2,1.9c1.7,0,1.9-0.3,1-1.9c-0.8-1.5-0.6-2,0.6-2.5c1.1-0.4,1.4-1.3,0.9-3.2
		c-0.5-2.1-0.2-2.7,1.4-3.1c1.1-0.3,2-1.3,2-2.3s0.6-2,1.3-2.3c0.9-0.3,1.2-1.6,0.9-3.8c-0.4-2.5,0-3.6,1.7-4.9
		c1.6-1.2,2.3-3,2.5-6.6c0.2-2.7,0.7-6.3,1-8s0.9-4,1.1-5.2c0.7-3.5,2.2-2.7,4.5,2.5c1.1,2.6,2.5,5.5,2.9,6.4
		c0.5,0.9,0.6,2.6,0.3,3.8c-0.4,1.5-0.1,2.1,1.1,2.1c1,0,1.6,0.9,1.6,2.4c0,3.1,1.6,4.1,3.7,2.4c1.2-1,1.4-2.4,1-5.6
		c-0.6-4-0.4-4.3,1.8-4.3c3.3,0,4-1.6,2.1-4.5c-2-3.1-2-3.1,0.5-3.8c1.7-0.4,2-1.1,1.6-3.2c-0.4-2-0.1-2.8,1.4-3.2
		c1.8-0.5,2.2-1.3,2-4.3c-0.1-0.8,1.2-3.1,2.9-5l3-3.5v3.7c0,2,0.4,3.9,0.9,4.3c0.5,0.3,0.7,1.4,0.4,2.4s0,2.2,0.6,2.6
		c0.8,0.5,0.8,1.3,0.1,2.6c-0.8,1.5-0.6,2.1,1,3c1.7,0.9,1.8,1.4,0.8,3.1c-1,1.7-1,2.2,0.5,3c1.4,0.8,1.5,1.3,0.6,2.8
		s-0.7,2.4,1,4.6c1.2,1.5,2.2,3.8,2.2,5.1c0,1.6,0.8,2.7,2.3,3.3c1.8,0.7,2.5,2.2,3.5,6.8c0.7,3.3,1.2,6.7,1.2,7.7s1.6,3.7,3.5,6
		c3.5,4.3,4.3,6.9,2.5,8.1c-1.7,1.1-1.1,3.5,0.9,3.5c1.2,0,2.8,1.5,4.2,4c3.4,6.1,5.8,5.3,6.3-2.3c0.5-6.2,1.6-11.9,3.1-14.7
		l1.3-2.5l1.2,3c0.7,1.6,2.1,4.8,3.1,7c1.1,2.2,1.6,4.8,1.3,5.7c-0.4,1,0.1,2,1.3,2.7c1.4,0.8,1.8,1.8,1.4,3.7
		c-0.4,2,0.1,3.1,1.8,4.4c2,1.5,2.1,2,1.1,3.3c-1.7,2.1-0.6,3.6,2.1,2.9c2.9-0.7,4.9-2.3,4.2-3.3c-0.3-0.5,0.2-1.2,1.1-1.7
		c1.2-0.7,1.5-1.9,1.2-4.6c-0.3-2.9,0-3.8,1.4-4.2c1.8-0.6,1.9-1,2.4-7.5c0.1-2,1-6.4,2-9.8c1.4-5,2-6,3.1-5.1c0.8,0.6,1.4,2,1.4,3
		s0.4,2.1,1,2.4c0.6,0.3,1,1.4,1,2.4s0.6,2.3,1.4,3s1.2,2.1,0.9,3.2c-0.4,1.4,0.1,2.4,1.2,3.1c1.2,0.7,1.6,1.7,1.1,3.4
		c-0.4,1.7,0,3,1.5,4.5c1.6,1.6,1.8,2.4,0.9,3.5c-1.6,1.9-0.5,4.4,1.8,4.4c2.8,0,3.4,1.1,1.6,3.1c-2,2.2-1.1,3.9,2.1,3.9
		c1.5,0,2.6,0.7,3,2c0.6,1.8,1.3,2,6.8,1.8c6.1-0.3,6.2-0.3,6.1-3.3c0-1.7-0.4-3.8-0.9-4.8c-0.6-1.4-0.3-1.8,1.8-1.8
		c3.9,0,4-1.5,0.6-5.4l-3.1-3.6h2.5c3.8,0,4.2-1.8,1.1-5.1l-2.8-2.9h3.7c4,0,4.9-1.7,2.1-4.1c-1.4-1.2-1.4-1.4,0.2-2.6
		c1.5-1.1,1.6-1.7,0.6-3.3c-1.6-2.6-1.6-2.7,0.8-3.3c1.8-0.5,1.9-1.1,1.4-4.6c-0.8-5.3,0.9-5.4,3.5-0.2c1.1,2.1,2.7,4.2,3.6,4.5
		c1.3,0.5,1.5,1.4,1,4.5c-0.6,3.7-0.5,3.9,2.4,4.9c3.5,1.2,3.5,1.2,1.9,4.6c-1.3,2.9,0.2,5.6,3.2,5.6c3.1,0,3.3,2.1,0.6,4.6
		c-1.4,1.3-2.6,2.8-2.6,3.4c0,1.2,3.4,3,5.8,3c1.8,0,1.9,0.5,1.4,5.8c-0.6,6.5,0.7,10.2,3.6,10.2c1,0,2.9,0.8,4.2,1.9
		c1.3,1,3.8,2.2,5.6,2.6c4.6,1,5.4-1.6,1.7-5.5c-2.7-2.9-2.8-2.9-0.6-2.9c3.2,0,4-2.9,1.3-5.1c-2.8-2.3-2.7-2.9,0.4-2.9
		c3,0,4.2-2.4,2.4-4.5c-1-1.2-0.9-1.8,0.6-2.9c1.8-1.3,1.8-1.5,0.1-3.3c-1.7-1.9-1.7-2,0.4-2.5c2-0.5,2.1-1,1.5-5.2
		c-0.8-5.6,1-5.8,3.5-0.5c0.9,1.8,2.7,4.1,4,5.1c2.2,1.7,2.3,2,0.9,4.5c-1.3,2.4-1.3,2.8,0.5,4.1c1.1,0.8,2.5,1.4,3.2,1.4
		c1,0,1.2,1,0.7,4c-0.6,3.9-0.5,4,3.1,5.6l3.8,1.6l-2.8,2.9c-3.4,3.5-2.8,5.7,1.7,6.2c3.5,0.3,3.5,0.2,2.2,8c-0.6,3.3-0.4,3.7,1.7,4
		c1.5,0.2,2.5,1.1,2.7,2.5c0.2,1.2,1.2,2.4,2.3,2.7c1.7,0.4,1.9,1.1,1.4,3.5c-0.4,1.7-0.2,3.2,0.4,3.6c0.6,0.4,1.1,1.5,1.1,2.6
		c0,1.2,1.4,2.8,3.6,4.1l3.6,2.1l-2.2,2.3c-2.3,2.5-1.9,4.4,1,4.4c1,0,2.4,0.7,3.1,1.5c1.1,1.3,1.4,1.2,2.6-1.1
		c0.7-1.4,1.1-3,0.9-3.4c-0.3-0.4,0.2-2.1,1-3.6c0.8-1.6,1.5-3.8,1.5-4.9c0-3.1,1.1-6.5,2.1-6.5c0.5,0,1.4,1.2,2.1,2.8
		c1.6,3.8,1.5,3.7,4.5,2.2c4.8-2.4,5.3-3,4.2-5c-0.7-1.4-0.6-2.1,0.7-2.8s1.5-1.8,1-4.7c-0.8-5,0.6-7.5,4.3-7.5c3.5,0,3.9-1.9,1-4.5
		c-2.6-2.3-2.6-3.8,0-3c1.1,0.4,2.7,0.1,3.5-0.6c1.3-1.1,1.3-1.5-0.2-3.1c-1.6-1.8-1.6-2,0.2-3.3s1.8-1.5,0.2-3.3
		c-1.7-1.8-1.6-2,0.9-3.1c1.9-0.9,2.4-1.6,1.9-2.9c-0.4-0.9-1-2.8-1.2-4.1c-0.8-3.5,1.9-2.3,3.9,1.8c0.9,1.8,2.7,4.1,4,5.1
		c2.1,1.6,2.2,2.1,1.2,3.8c-1.6,2.7-0.8,4.4,2.7,5.8c2.8,1.1,2.9,1.2,1.7,4.3c-1.3,3.5-0.2,5,4,5c3.4,0,3.8,1.9,0.9,4.9
		c-3.5,3.7-3.3,5.1,0.8,5.1c3.8,0,5.2,2,3.6,5c-2.6,4.8-0.1,12,4.1,12c1.6,0,3.9,1.9,3.9,3.2c0,0.4-1.6,2.6-3.7,4.8
		c-4.4,4.9-3.8,5.9,3.7,6.2c5.7,0.2,6.1-0.2,4.8-5.3c-0.3-1,0.5-1.6,2.4-1.8c3.4-0.4,3.4-1.2,0.2-4.2s-3.2-5,0-5s3.2-1,0-4
		c-2.7-2.6-2-3.9,2.3-4c2.7,0,2.9-1.5,0.5-3c-1.6-1-1.6-1.1,0.2-2.6c1.7-1.3,1.8-1.8,0.8-3.5c-1.6-2.6-1.6-2.7,0.8-3.3
		c1.9-0.5,2-1,1.4-5.1c-0.6-4.2-0.5-4.6,1.5-4.6c1.5,0,2.6,1,3.7,3.6c0.8,2,2.7,4.6,4.1,5.8c2.3,2,2.4,2.5,1.3,4.6
		c-1.1,2-1,2.5,0.6,3.7c1,0.7,2.4,1.3,3.1,1.3c1.7,0,1.7,2.4,0.1,5c-1.5,2.4,0.2,3.9,4.5,3.9c3,0,3.7-2,1.3-4c-1.8-1.5-1.1-3,1.6-3
		c1.8,0,1.9-0.4,1.3-4.4c-1.1-7.1,1.8-7.1,5.4,0c1.2,2.3,2.8,4.4,3.7,4.8c1.3,0.5,1.5,1.4,1,4.2c-0.6,3.3-0.4,3.6,2.4,4.7
		c2.5,0.9,3,1.6,2.5,3.2c-1.5,4.6-1,5.8,2.3,6.7c3.9,1,4.1,2.6,0.8,5.8c-3,2.8-1.8,5,2.7,5h3l-0.8,4.8c-1.4,8.5-0.5,10.6,4.5,11.8
		c1.6,0.3,3.4,1.3,4.1,2.1c1.5,1.8,3.9,0.1,3.9-2.7c0-1.6,1.7-6.5,2.7-7.9c0.2-0.2,1,0.6,1.9,1.8c1,1.4,2.4,2.1,3.7,1.9
		c2.2-0.3,2.4-1.3,1.1-5.5c-0.5-1.8-0.1-2.6,2.4-4c1.7-1,3.6-3,4.2-4.4c1.7-4.2,4.7-6.5,6.7-5.1c1.8,1.1,2,3,0.7,7.6
		c-0.7,2.5-0.5,2.8,2.4,3.4c2.8,0.6,3.1,1,2.6,3c-0.4,1.4,0,3.3,0.9,4.6c0.8,1.2,1.5,2.9,1.5,3.7s1.2,2.5,2.7,3.7
		c2.4,1.9,2.6,2.5,1.6,4.7c-1.3,2.8-0.1,4.7,2.9,4.7c2,0,2.3,2.1,0.8,5c-1.2,2.2,1,5,4,5c3.1,0,3.4,2,0.6,4.9c-2,2.1-2.3,3-1.4,3.9
		c0.7,0.7,2,1.2,2.9,1.2c2.4,0,3.8,2.2,2.9,4.5c-1.3,3.1-1.1,7.9,0.4,9.9c1.3,1.7,1.4,1.7,3.4,0.1c1.6-1.4,1.9-2.6,1.5-5.6
		c-0.4-3.1-0.2-3.9,1.1-3.9c2.2,0,2.7-1.2,3.2-7.2c0.2-2.9,1.3-8.1,2.3-11.7l1.8-6.4l2.2,2.8c1.2,1.5,2.2,3.3,2.2,4s0.7,1.8,1.5,2.5
		s1.5,2.2,1.5,3.3c0,1.6,0.3,1.8,1.2,0.9c0.7-0.7,2.2-1.2,3.5-1.2c3,0,2.9-1.8-0.3-5.1c-2.8-2.9-2.4-5.4,0.6-4.4
		c2.9,0.9,3.2-1,0.5-3.5c-3.2-3-3.1-4,0.5-4c3.2,0,3.9-1.7,1.8-3.9c-1-1-0.9-1.5,0.7-2.7c1.8-1.3,1.8-1.5,0.2-3.3
		c-2.2-2.4-2.1-3,0.6-3.4c2-0.3,2.2-0.8,1.9-5.2c-0.3-4.3-0.1-4.8,1.5-4.5c1,0.2,2.6,1.9,3.6,3.8c1,1.9,2.7,4.3,3.9,5.2
		c1.7,1.4,2,2.4,1.5,5.1c-0.6,3.1-0.4,3.5,2.4,4.4c3.3,1.1,3.7,2.2,1.8,5.1c-1.4,2.3,0.3,5.1,3.3,5.1c3.1,0,3.3,2,0.4,5
		c-3.1,3.3-2.6,5,1.5,5c3.8,0,4.5,1.3,3,6.3c-2,7.1,0.1,10.2,8.5,12.3c1.8,0.4,2.5,0.2,2.5-0.9c0-1.7,4.3-2.8,8.1-2.1
		c3.3,0.6,10.1,8.6,9.3,10.8c-0.4,1,0.2,1.8,1.7,2.4c1.7,0.6,2.3,1.7,2.4,3.8c0,2.2,0.6,3,2.3,3.2c2.6,0.4,2.9,2.4,0.8,4.2
		c-2.3,1.9-1.8,3,1.2,3c2.5,0,3-0.6,4.8-6.2c1.2-3.5,2.7-6.2,3.4-6.2s2.9,2.2,4.8,5c3.8,5.6,5.8,6.6,6.7,3.6
		c0.4-1.1,1.1-2.1,1.6-2.1s0.9-0.6,0.9-1.3c0-1.4,4.7-6.3,5.3-5.6c1.3,1.7,4.7,11.7,4.7,13.8c0,4.1,1.3,5.2,6.1,5.4
		c5.8,0.3,5.9-2,0.2-4.7c-2.3-1.1-4.2-2.6-4.2-3.3c0-1.6,4.2-3.2,8.6-3.2c4.2,0,4.4-1.2,0.4-4c-3.7-2.6-3.4-4.1,0.9-5.2
		c4-1,4-2.2,0.2-4.4c-4.1-2.4-3.8-4.2,1-5c2.2-0.4,4.3-1.1,4.6-1.6s-0.2-2.7-1.2-4.9c-1.4-3.1-1.5-4.4-0.6-6.4
		c2.2-4.9,6.7-2.7,10.3,5.1c1.4,2.9,3,4.6,5,5.3c3.9,1.3,4.7,3.7,2.5,7.5c-1.7,2.9-1.7,3.1,0,4.3c1,0.7,3.5,1.3,5.6,1.3
		c4.5,0,4.8,1.2,1.6,6.6c-2.1,3.6-2.1,3.7-0.3,5.1c2.2,1.6,3.4,1.7,5.5,0.4c1.2-0.8,1.2-1.2,0.2-2.2c-1.8-1.8-1.6-2.4,1.4-3.7
		c2.1-1,2.5-1.7,2-3.7c-0.4-1.7-0.2-2.7,0.9-3.1c0.8-0.3,1.5-1.2,1.5-1.9c0-2.8,7.7-14.5,9.5-14.5c1.4,0,4.7,9.8,5.2,15.3
		c0.4,4.8,1,5.7,3.5,5.7c1.7,0,2,0.6,1.7,3.2c-0.2,2.4,0.1,3.3,1.4,3.6c1.2,0.2,1.6-0.1,1.2-1.2c-0.8-2,3.5-7.5,5.9-7.5
		c1.9-0.1,2.3-1.6,0.7-2.6c-1.5-0.9-0.2-2.5,2-2.5c2.5,0,3.5-1.7,1.9-3.6c-1-1.3-0.9-1.6,0.9-2.1c2.2-0.6,3.8-3.6,2.8-5.2
		c-0.3-0.5,0.1-1.5,0.9-2.1c0.8-0.7,1.5-1.9,1.5-2.6c0-1.9,1.8-4.9,5.9-10.2c3-3.8,3.5-4.1,4.6-2.7c1,1.4,1.8,1.5,5.6,0.4
		c6.5-1.7,7.1-2.5,6.8-8.9l-0.3-5.6l3.8-0.3c4.4-0.4,4.8-1.8,1.1-4.7c-3-2.4-2.5-4.5,1.1-4.5c3,0,4.8-2.1,3.5-4
		c-1.6-2.5-1.1-4,1.4-4c2.7,0,5.3-2.4,3.7-3.5c-1.9-1.1-1.1-3.5,1.4-4.7c1.4-0.6,3.4-2.6,4.5-4.5c1.3-2.1,2.7-3.3,4.1-3.3
		c1.9,0,2.1,0.4,1.4,4c-0.6,3.6-0.5,4,1.4,4c2.7,0,3.5,1.5,1.5,3.1c-1.4,1.2-1.4,1.4,0.2,2.6c1.4,1,1.5,1.6,0.6,2.5
		c-1.9,1.9-1.4,2.8,1.7,2.8c4,0,4.6,1.4,1.5,3.4c-2.8,1.8-2.3,4,0.7,3.2c3.1-0.8,3.1,1-0.1,3.7c-3.7,3.1-3.7,3.7-0.1,3.7
		c1.6,0,3.2,0.5,3.6,1c0.6,1.1,4.5-3,4.5-4.8c0-1.7,5-5.7,5.8-4.7c1.4,1.6,3.9,9.7,4.6,14.7c0.5,3.7,1.2,5,2.9,5.7
		c1.8,0.7,2.2,1.5,1.9,3.7c-0.3,2.1,0.2,3.2,1.8,4.2c1.9,1.1,2.3,1.1,3.6-0.5c0.8-1,1.2-2.9,1-4.3c-0.2-1.4-0.6-3.4-0.8-4.4
		c-0.2-1.4,0.5-2.1,2.9-2.8c4.5-1.2,4.9-2.4,1.6-5.2c-3-2.6-2.9-2.7,2.9-4c2.9-0.6,3.7-3.2,1.6-5.3c-0.9-0.9-0.3-1.5,2.5-2.7
		c3.3-1.4,3.6-1.8,3.1-4.4c-0.5-2.3-0.2-3,1.5-3.5c1.1-0.4,3-2.2,4.1-4c3.6-5.9,7.5-5.8,6.4,0.1c-0.6,3-0.4,3.6,1.5,4
		c2.4,0.6,2.6,1.4,0.9,3.2c-1,1-0.9,1.5,0.6,2.3c1.4,0.8,1.5,1.3,0.7,2.4c-1.6,1.9-0.4,3.5,2.6,3.5s3.3,2.5,0.4,3.3
		c-1.1,0.3-2,1-2,1.6c0,1.4,1.7,1.4,2.5,0c0.4-0.6,1.7-1.5,3.1-2c1.8-0.7,2.4-1.7,2.4-3.9c0-1.7,0.5-3,1-3s1-0.7,1-1.6
		c0-2.1,8.1-14.4,9.5-14.4c0.6,0,1.6,1.5,2.4,3.2c0.7,1.8,1.7,4,2.2,5s0.9,3.1,0.9,4.7c0,4.8,0.9,6.1,4.4,6.1c1.7,0,3.8-0.5,4.6-1
		c1.2-0.8,0.8-1.6-2.4-4.4c-4.5-3.9-4.4-6.6,0.2-6.6c5.5,0,7-3.6,5-12c-0.2-1.1,0.8-1.6,3.6-2c4.8-0.6,5.6-2.3,2.1-4.6
		c-3.1-2-3.4-4.4-0.5-4.4c1.1,0,2.9-0.5,4-1c1.6-0.9,1.7-1.4,0.9-3.1c-1.4-2.7-0.6-4.7,2.3-5.1c2-0.3,2.3-0.8,2-3.6
		c-0.2-2.6,0.2-3.5,2-4.3c1.3-0.6,3.2-2.5,4.3-4.3c1.2-1.8,2.9-3.2,4-3.2c1.7,0,1.9,0.6,1.7,3.8c-0.2,2.8,0.1,3.8,1.2,3.8
		c2,0,3.1,1.9,1.7,3.3c-2,2-1.2,2.8,2.6,2.5c2.9-0.2,3.7-0.7,3.5-2.1c-0.1-1-0.4-2.5-0.5-3.5c-0.2-1.2,0.5-1.9,2.2-2.1
		c3.5-0.5,4.4-1.6,3.1-4c-0.9-1.7-0.7-2.4,1.9-4.2c1.7-1.2,3.7-3.5,4.6-5.1c1.1-2.2,2.1-2.9,3.7-2.7c2.3,0.3,2.7,2.5,1.2,6
		c-0.6,1.3-0.1,1.9,1.9,2.4c3,0.8,3.2,1.3,0.9,2.9c-1.5,1.1-1.5,1.3,0.6,2.4c2.2,1.2,2.2,1.3,0.5,3.1c-1.7,1.9-1.6,1.9,1.4,1.9
		c3.9,0,5,1.7,2.3,3.6c-2.8,2-2.7,3.5,0.3,2.8c3.4-0.9,4.2,1.3,1.5,4.1l-2.3,2.4h3.1c1.9,0,3.5-0.7,4.4-2c0.8-1.1,2.4-2.2,3.7-2.5
		c6.6-1.2,8.5-4.1,6.4-9.6c-1.3-3.5,0-4.9,4.4-4.9c4,0,4.4-2.1,0.8-4c-3.3-1.8-3.2-3.8,0.2-4.6c5.1-1.1,5.5-1.4,4.7-3.2
		c-1.3-3.2-1-4.7,1-5.1c3.3-0.7,4.7-2.2,3.4-3.8c-1.4-1.7-0.5-4.4,1.4-4.4c0.8,0,2.6-1.8,4-4c1.7-2.5,3.4-4,4.7-4c1.9,0,2,0.4,1.4,4
		c-0.6,3.5-0.4,4,1.2,4c2.9,0,3.4,1.1,1.6,3.2c-1.6,1.8-1.6,1.9,0.5,2.4c2.5,0.6,2.7,1.4,1,3.1c-1.7,1.7-0.7,2.2,3.4,1.6
		c2.8-0.5,3.9-1.2,4.6-3.4c1.7-4.8,10.7-17.4,14.6-20.4c2-1.6,6-3.7,8.8-4.8c4.9-1.9,5.3-1.9,12-0.1c5.8,1.5,7.7,2.6,12.3,7
		c5.4,5.2,9.1,6.3,7.9,2.3c-0.7-2.1,8.4-12,11-12c1.4,0,1.5,0.7,1,3.9c-0.6,3.4-0.4,3.9,1.6,4.4s2.1,0.8,0.9,2.2
		c-1.2,1.4-1.1,1.8,0.5,3.1c1.5,1.1,1.6,1.7,0.7,2.6c-1.9,1.9-1.4,2.8,1.8,2.8c3.5,0,3.8,1.2,0.8,3.2c-2.5,1.7-1.6,4.2,1.2,3.3
		c3.2-1,3.2,1.3,0,3.6c-1.7,1.2-3,2.6-3,3.1c0,1.3,4.6,1,8.2-0.6c1.8-0.8,4.6-1.8,6.2-2.3c3.5-1,4.6-4.3,3.2-9.1
		c-1.2-3.8-0.8-4.4,3.5-4.9c4.8-0.6,5.4-1.8,1.9-4.3s-3.3-3.6,1-4.6c3.5-0.8,4.7-2.8,2.9-5c-1.6-1.9-0.5-3.5,2.5-3.5
		c2.8,0,4.2-1.7,2.6-3.3c-1.7-1.7-1.3-3.5,0.9-4.2c1.1-0.4,3.2-2.4,4.6-4.6c3.2-5.1,6-5,5.6,0.3c-0.2,3.2,0,3.7,2.4,4.3
		c2.6,0.6,2.6,0.7,0.8,2.7s-1.8,2.1,0,3c1.7,1,1.7,1.1,0.1,2.9c-1.8,2-1.3,2.4,2.7,2c2.8-0.3,3,1.8,0.4,3.5c-2.9,1.9-2.5,3.4,1,3.4
		c3.1,0,3.1,1.3-0.1,3.8c-3.3,2.6-3.2,4.2,0.5,4.2c3.3,0,3.8,1.1,1.5,3c-1.8,1.5-1.9,3.6-0.4,4.6c0.6,0.4,3.6,0.6,6.7,0.5
		c4.3-0.1,5.9-0.6,6.9-2.2c0.9-1.3,2.1-1.8,3.2-1.4c2.4,0.8,3.4-0.9,1.5-2.5s-1-3,2.1-3c2.5,0,3.2-1.8,1.4-3.7
		c-0.7-0.7-0.3-1.6,1.5-2.7c1.9-1.3,2.4-2.2,2-4c-0.4-1.6-0.1-2.5,1.1-3c1.1-0.4,1.4-1.3,1-2.6c-0.4-1.1-0.2-2,0.4-2
		s1.8-1.7,2.7-3.8c2.9-6.3,7.4-10.4,7.4-6.7c0,0.8,0.4,2.4,1,3.5s1.4,2.9,2,4s1,3.7,1,5.8c0,4.2,0.7,5.6,3.3,6.6
		c1.3,0.5,1.6,1.3,1.2,3.1c-0.8,3.3,2.1,7.6,5.1,7.6c1.7,0,2.2-0.4,1.8-1.9c-0.3-1.3,0.2-2,1.6-2.4c1.5-0.4,2.1-1.3,2.1-3.5
		c0-1.8,0.6-3.2,1.6-3.6c1-0.4,1.4-1.3,0.9-2.6c-0.4-1.1-0.2-2,0.4-2s1.8-1.7,2.7-3.8c1.8-4,5.2-8.2,6.5-8.2c0.4,0,1.1,1.7,1.5,3.8
		s1.1,4.3,1.6,5s1.2,3.3,1.4,5.9c0.2,2.6,0.7,5.1,1,5.5c0.7,1.2,5.2-2,5.9-4.2c0.4-1.2,1.5-1.9,3-1.9c2.9,0,3-0.7,0.8-3.1
		c-1.5-1.7-1.4-2,2.5-5.7c3.5-3.3,4.3-5,5.4-10.3c1.1-5.3,1.7-6.5,4-7.6c1.5-0.7,2.8-2,2.8-2.9s1-2.7,2.2-4c1.7-1.8,1.9-2.6,1-3.5
		c-1.7-1.7-1.5-2.5,1-3.1c2.1-0.6,2.1-0.6,0.4-2.5c-1.7-1.9-1.7-2,0.3-2.6c1.5-0.5,1.9-1.2,1.5-2.5c-0.3-1-0.1-2.1,0.5-2.5
		s0.9-1.3,0.6-2c-0.3-0.7,0.1-1.8,0.8-2.4c0.7-0.6,1.1-2.2,0.8-3.6c-0.6-3.3,1.7-3.3,4.6,0c1.2,1.4,2.7,2.5,3.2,2.5
		c0.6,0,0.9,1,0.8,2.2c-0.2,1.7,0.2,2.3,1.9,2.6c1.7,0.2,2.1,0.9,2,3s0.3,2.8,2.1,3c2.7,0.4,2.8,0.9,0.7,3.3
		c-2.1,2.3-0.9,4.1,2.3,3.3c2.5-0.6,2.5-0.5,1.9,3.2c-0.7,4.2,0.5,7.1,2.3,6c0.6-0.4,1.1-1.6,1.1-2.6s0.5-1.9,1-1.9s1-0.8,1-1.9
		c0-1,0.7-2.4,1.5-3.1c0.8-0.7,1.5-1.8,1.5-2.4c0-0.6,1.4-2.9,3.1-5c2.4-2.9,3.3-3.5,4-2.5c1,1.6,3.4,9.7,4.6,15.3
		c0.6,3.1,1.4,4.1,3.1,4.3c1.8,0.3,2.2,0.9,2.1,3c-0.3,4.2,1.1,7.1,3.7,7.8c1.9,0.5,2.3,1.1,1.8,3c-0.5,2-0.2,2.4,1.5,2.4
		c1.2,0,2.4-0.8,2.8-1.8c0.3-1,1.2-2.5,2-3.3c0.7-0.9,1.8-3.8,2.3-6.5c1.2-6.3,2.8-10.4,4-10.4c0.5,0,2.4,2.4,4.2,5.2
		c5,7.9,6.5,8.2,8.9,2.2c1.3-3.2,5.6-8.3,6.3-7.4c0.7,1.1,4.8,13.7,4.6,14.5c-0.6,3.3,0.3,5.6,2.6,6.4c2.2,0.8,2.5,1.4,1.9,4
		c-0.4,1.7-0.2,3,0.3,3s1.2,0.9,1.5,2c0.7,2.5,4.7,2.8,4.7,0.2c0-1,0.9-2.3,2-3c1.2-0.8,2-2.3,2-4.1c0-1.6,0.6-3.1,1.5-3.5
		c0.8-0.3,1.2-1.2,1-1.9c-0.3-0.8,0.2-2,1-2.7s1.5-1.9,1.5-2.6s0.3-1.4,0.8-1.6c0.4-0.2,1.5-1.7,2.4-3.3c0.9-1.7,2.2-3,2.9-3
		c1.2,0,6.1,11.8,5.8,13.9c-0.7,6.1,1.8,7.3,5.3,2.6c1.4-1.8,3.1-3,4.5-3c2.4,0,3.1-1.4,1.3-2.5c-1.6-1-1.2-2.5,0.8-2.5
		c1,0,2.4-0.4,3.2-0.9c1.2-0.8,1.2-1.2,0.1-2.5c-1.1-1.4-1-1.9,0.9-3.7c1.2-1.1,2-2.7,1.7-3.4s0.1-1.9,0.9-2.5s1.4-1.8,1.4-2.6
		s1.1-2.9,2.5-4.7s2.5-3.7,2.5-4.3c0-0.5,1-2,2.3-3.2l2.3-2.2l2.1,6.3c1.2,3.4,2.4,8,2.8,10.1c0.4,2.6,1.2,4,2.6,4.4
		s1.9,1.4,1.9,3.5c0,3,2.2,5.6,4.8,5.7c1.7,0,1.6-2.5-0.3-4c-1.4-1.1-1.2-1.6,1.1-4c1.7-1.8,3.3-2.6,4.5-2.2
		c2.1,0.6,2.5-0.7,0.8-2.4c-1.6-1.6-0.2-3.3,2.7-3.3c2.7,0,3.1-0.9,1.3-2.8c-0.9-0.9-0.7-1.7,1-3.5c1.2-1.3,2.2-3.3,2.2-4.4
		s0.7-2.3,1.6-2.7c0.9-0.3,1.3-1,1-1.5s0.3-2.4,1.4-4.3c1.1-1.8,2.3-4,2.7-4.8c0.9-2.1,3.5-5,4.5-5c0.5,0,0.8,0.7,0.8,1.5
		c0,1.7,1.3,1.9,3.8,0.6c1-0.5,3-1.2,4.5-1.5s3.5-1.7,4.3-3c1.3-2,1.4-3,0.4-6c-1.5-4.4-0.8-5.6,3.5-5.6c5.5,0,5.5-1.7,0-5.5
		c-2.4-1.7-1.7-2.5,2.7-3.5c3.3-0.7,3.8-1.9,2.7-6c-0.3-0.9,0.7-1.7,2.9-2.1l3.2-0.7v387.7h-1564L-1390.8,984.6L-1390.8,984.6z
		 M-628.3,1071.3c0-0.8-0.7-1.5-1.5-1.5s-1.5,0.7-1.5,1.5s0.7,1.5,1.5,1.5S-628.3,1072.2-628.3,1071.3z M-697,1044.1
		c0.2-0.4,0.8-2.3,1.2-4.2l0.7-3.5l-2.6,2.4c-2.8,2.6-3.5,6.1-1.2,6.1C-698.1,1044.8-697.3,1044.5-697,1044.1L-697,1044.1z
		 M-522.7,1022.3c0.3-0.8-3.4-3.6-6.9-5.3c-1-0.5-0.9,1.2,0.3,4.3c0.8,2.1,1.6,2.6,3.7,2.3C-524.2,1023.5-522.8,1022.9-522.7,1022.3
		L-522.7,1022.3z M-733.5,1020.8c-0.2-0.6-0.8-1.1-1.3-1.1s-1.1,0.5-1.3,1.1s0.4,1.1,1.3,1.1
		C-733.9,1021.8-733.3,1021.3-733.5,1020.8z M-483.5,1003.8c-0.2-0.6-0.8-1.1-1.3-1.1s-1.1,0.5-1.3,1.1c-0.2,0.6,0.4,1.1,1.3,1.1
		C-483.9,1004.8-483.3,1004.3-483.5,1003.8z M-912.3,937.8c0-0.5-0.7-1-1.6-1s-1.3,0.5-0.9,1s1,1,1.6,1S-912.3,938.4-912.3,937.8z
		 M-993.5,930.1c0.4-3.7-0.6-4-3.9-1.4c-2.8,2.3-2,5.4,1.3,5C-994.4,933.4-993.8,932.6-993.5,930.1L-993.5,930.1z M-1035.4,929.9
		c1.8-1.2,0.8-3.6-2.3-5.6c-1.9-1.2-3.2-1.4-5.3-0.7c-4.3,1.4-3.7,4.4,1.2,5.9C-1036.8,931-1037.1,931-1035.4,929.9z M-188.3,927.4
		c0-1.7-2.7-2.9-3.5-1.6c-0.3,0.5-0.3,1.4,0,2C-190.9,929.3-188.3,929-188.3,927.4z M-137.6,925.2c3.1-0.8,2.8-3-0.5-3.7
		c-2.7-0.5-8.3,1.9-8.3,3.5C-146.3,926-140.8,926.1-137.6,925.2L-137.6,925.2z M-1033.3,920.5c0-2.2-6.7-4.9-9.1-3.7
		c-2.2,1.2-2.6,3.5-0.7,4.3C-1040.3,922.3-1033.3,921.8-1033.3,920.5z M-137.9,917.9c1-1.7-2.6-2.9-5.1-1.8
		c-1.3,0.6-2.3,1.4-2.3,1.9C-145.3,919.1-138.6,919.1-137.9,917.9L-137.9,917.9z M-1099.3,899.8c0-0.5-0.5-1-1.1-1s-0.8,0.5-0.4,1
		s0.8,1,1.1,1C-1099.5,900.8-1099.3,900.4-1099.3,899.8z M84.7,888.8c0-0.5-0.2-1-0.4-1c-0.2,0-0.7,0.5-1.1,1s-0.1,1,0.4,1
		C84.2,889.8,84.7,889.4,84.7,888.8z M-1236.3,885.8c2.7-2.7,2.5-3.3-0.8-2.5c-3.4,0.8-4.7,2-3.8,3.5
		C-1239.9,888.3-1238.6,888.1-1236.3,885.8L-1236.3,885.8z M-1234.8,879.7c1-1.6-1.7-3-3.3-1.7c-0.7,0.6-1,1.5-0.7,1.9
		C-1238,881.2-1235.6,881.1-1234.8,879.7z M123.6,873.8c0-0.5-0.7-1-1.5-1s-1.5,0.5-1.5,1s0.7,1,1.5,1S123.6,874.4,123.6,873.8z
		 M-1270.9,870.1c1-1.6-0.6-4.1-2.5-4.1c-2.6,0-3.2,1.6-1.4,3.4C-1273,871.2-1271.7,871.4-1270.9,870.1L-1270.9,870.1z
		 M-1189.3,864.4c0-0.9-0.5-1.4-1.2-1.2c-1.9,0.6-2.2,2.8-0.4,2.8C-1190,866-1189.3,865.3-1189.3,864.4z M155.2,834.1
		c0-0.7-1.9-2.5-4.2-3.9c-4.6-2.7-5.3-2.1-3.3,3.2c0.8,2.2,1.5,2.6,4.2,2.3C153.8,835.6,155.2,834.9,155.2,834.1L155.2,834.1z
		 M-1385.3,801.5c0-1.6-3.5-2.1-4.4-0.6c-0.7,1.2,0.4,2.1,2.6,2.1C-1386.1,803-1385.3,802.3-1385.3,801.5L-1385.3,801.5z
		 M170.7,787.5c0-0.8,0.4-1.7,1-2.1s1,0.3,1,1.4s-0.4,2.1-1,2.1S170.7,788.3,170.7,787.5z M-1390.8,787c-0.3-0.5-0.1-1,0.4-1
		s1.1,0.5,1.1,1s-0.2,1-0.4,1C-1390,788-1390.5,787.5-1390.8,787z"/>
	<path id="path3133" class="st8" d="M-1391.2,838.3l-0.1,170.8v170.8c36.9,0,72.7,0.2,107.5,0.5h809.6
		c-51.7-28.3-112.2-65.1-179.2-112.2c-61.1-3.7-12.1-7.7-14.2-7.7c-2.7,0-5.8-11.7-5.1-14.3c0.4-1.5,0-2.2-1.7-2.6s-2.1-1.1-1.6-2.8
		c0.4-1.5-0.1-2.9-1.6-4.4c-1.2-1.2-2.7-3-3.2-4c-1.5-2.6-3.8-1-3,2.1c0.5,1.9,0.2,2.4-1.4,2.4c-1.1,0-2.3-0.7-2.6-1.5
		c-0.8-2-2.9,0.1-3.6,3.6c-0.4,1.9-0.1,2.5,0.8,2.1c0.9-0.3,1.3,0.3,1.3,1.6c0,2.7-3.9,4.3-9.4,3.9l-4.1-0.3l0.2-5
		c0.2-4.6,0.1-4.8-1.2-3c-0.8,1.1-1.5,4.1-1.5,6.7v4.8h-6c-5.3,0-6-0.2-6-2c0-1.4-0.7-2-2.2-2c-1.2,0-3.7-1.6-5.6-3.8
		c-3.3-3.6-3.5-3.7-4.8-1.8c-0.8,1.1-1.4,2.8-1.4,3.8s-0.7,1.8-1.5,1.8s-2.4,0.9-3.5,2c-2.7,2.7-13,2.9-13,0.3
		c0-0.9-0.7-2.2-1.7-2.8c-2.2-1.6-1.1-4.3,2.1-5.5c1.7-0.7,2.5-1.7,2.5-3.4c0-1.3,0.3-3.8,0.6-5.5c0.6-2.9,0.9-3.1,5-3.1
		c2.4,0,4.4-0.4,4.4-0.9s1-1.1,2.2-1.4c1.6-0.3,1.4-0.5-1-0.6c-3.6-0.2-4.7-1.6-5.8-7.4c-0.4-2.1-1.1-3.7-1.5-3.7
		c-1.1,0-3,6.8-2.3,8.5c0.3,0.7,0,1.6-0.6,2c-0.6,0.4-1.1,1.8-1.1,3.1s-0.6,2.4-1.2,2.4c-0.7,0-1.3,1.5-1.4,3.7
		c-0.1,2-0.9,4.2-1.8,4.8c-0.9,0.6-1.6,1.7-1.6,2.3c0,2.1-4.9,1.3-6.1-1c-2.1-3.9-2.8-7.8-1.9-10.8c0.8-2.8,0.7-3.1-3.6-4.9
		c-4.9-2.2-4.8-2-3.4-5.6c0.8-2.1,0.6-3.1-1-5.2c-2.2-2.8-2.6-5.8-1-6.8c0.6-0.4-0.1-1.5-1.8-2.8c-1.5-1.2-3-2.2-3.2-2.4
		s0.2-1.5,1-2.9c1.3-2.4,1.2-2.7-1.3-4.6c-1.6-1.2-2.7-2.9-2.7-4.3c0-1.3-1-3-2.2-3.8c-1.8-1.2-2-1.8-1-2.8c1.8-1.9,1.5-2.6-1.3-3.3
		c-2.5-0.6-2.5-0.9-1.9-5.5c0.4-2.9,0.3-5.1-0.3-5.5c-1.2-0.7-3.7,1.6-5.6,5.3c-0.8,1.5-2.6,3.5-4,4.4c-2.2,1.4-2.4,2-1.4,4.1
		c1.9,4.1,0.4,5.9-4.2,5.2l-4-0.6v3.9c0,3.1-0.6,4.4-2.7,6.1c-1.7,1.3-2.7,3.1-2.8,4.8c0,2.4-0.5,2.8-3.8,3
		c-4.8,0.4-5.9-1.8-2.9-5.8c1.2-1.6,2.1-3.3,2.1-3.8c0-1.6-6.8-3.4-8.8-2.3c-1.5,0.8-2.4,0.5-4.5-1.9c-2-2.2-3.5-3-6.1-3
		c-3.1,0-3.5,0.3-3.5,2.5c0,1.5-0.6,2.5-1.4,2.5c-0.8,0-1.7,1-2.1,2.2c-0.6,1.9-0.8,2-1.2,0.5c-0.3-1.1-1.4-1.8-2.9-1.8
		c-1.9,0-2.4,0.5-2.4,2.5c0,1.4,0.5,2.5,1,2.5c1.8,0,1,2.2-1,2.7c-1.1,0.3-2.2,1.3-2.5,2.2s-1.6,2.9-3,4.3c-5,5.4-6.5,9.7-6.9,20.6
		c-0.2,5.7-0.7,10.6-1,10.9s0.1,2.1,0.8,3.9c1.6,3.8,0.8,4.3-2.6,1.4c-2-1.7-2.2-2.2-1.1-4c0.7-1.1,1.2-3.6,1.2-5.6
		c0-2.7-0.4-3.5-1.8-3.5c-1,0-1.8-0.6-1.8-1.2c0-0.7-0.6-3.8-1.2-7l-1.2-5.8h-3.9c-2.8,0-3.9,0.4-3.9,1.5c0,0.8-0.9,2.1-2,2.8
		s-2,2.2-2,3.4c0,1.3-0.8,2.3-2,2.7c-1.4,0.4-2,1.4-2,3.1c0,2.1-0.5,2.6-2.5,2.6c-1.4,0-2.5-0.5-2.5-1c0-0.6,0.9-1,2-1
		c1.5,0,2-0.7,2-2.6c0-2.5-0.2-2.6-3.8-2.1c-3.5,0.5-3.9,0.3-6.1-2.9c-2-3.1-2.7-3.5-5.9-3.2c-3.3,0.3-3.8,0.7-4.4,3.7
		c-0.4,1.9-1.1,3.7-1.7,4c-0.6,0.3-1.3,2.8-1.7,5.4s-1.1,4.8-1.7,4.8c-0.5,0-0.7,1.3-0.3,2.9c0.5,2.4,0.3,3-1.4,3.6
		c-1.1,0.4-2.1,1.5-2.1,2.6c0,1.7-0.7,1.9-5.9,1.9c-5,0-6-0.3-6.4-1.9c-0.4-1.5-1.5-2-4.8-2.2c-4.1-0.3-4.4-0.5-4.7-3.6
		c-0.2-1.8-0.8-3.3-1.5-3.3s-2-1.4-2.9-3c-1.5-2.7-2.2-3-5.5-2.8c-3.6,0.3-3.8,0.5-4.1,4.1c-0.2,2.1-0.8,3.8-1.3,3.8
		s-0.8,0.4-0.5,0.8s-0.1,1.7-0.9,2.8c-0.8,1-1.5,2.7-1.5,3.7c0,1.5-1,1.8-6,1.8c-5.3,0-6-0.2-6-2c0-1.1-0.5-2-1-2
		c-1.4,0-1.3-4.4,0.2-5.8c0.9-0.9,0.6-1.2-1.5-1.2c-1.5,0-2.7,0.4-2.7,1s-0.8,1-1.8,1c-1.5,0-1.8-0.9-1.9-6.2
		c-0.1-8.9-1.2-12.8-3.5-12.8c-1.5,0-1.9-0.7-1.9-3.5s-0.4-3.5-1.9-3.5c-1.4,0-2.1-1-2.6-3.5c-0.4-2.1-1.3-3.5-2.1-3.5s-2.1-1.3-3-3
		c-1.3-2.6-2.1-3-5.6-3h-4.1l0.4,4c0.3,3.6,0.2,4-1.9,4c-2,0-2.3,0.5-2.3,4.8c0,3.7-0.5,5-2,6c-1.5,0.9-2,2.3-2,5.2
		c0,2.9-0.4,4-1.5,4c-2.3,0-1.8,3.8,0.9,6.7c1.3,1.5,2.2,3.1,1.8,3.7s-0.8,0.4-1-0.7c-0.6-2.9-4.6-2.2-5.9,1l-1.1,2.8l-0.1-3.2
		c-0.1-1.8-0.5-3.2-1.1-3.2s-1-1.3-1-3c0-2.4-0.4-3-2.1-3c-2.9,0-4.7-2.2-5.1-6.1c-0.3-2.9-0.8-3.4-3.3-3.9c-2.8-0.5-5.1-4-2.6-4
		c0.6,0,1.1,0.7,1.1,1.5c0,0.9,0.9,1.5,2.5,1.5c2,0,2.5-0.5,2.5-2.5c0-1.6-0.6-2.5-1.5-2.5c-0.8,0-1.5-0.7-1.5-1.5s-0.6-1.5-1.4-1.5
		c-1.5,0-1.9-1-3.1-6.8c-0.5-2.3-1.2-3.2-2.6-3.2s-1.9-0.7-1.9-2.4c0-3.5-1-5.6-2.6-5.6c-1,0-1.4-1.2-1.4-4c0-3.5-0.3-4-2.4-4
		c-1.4,0-3-1-4-2.5c-2.3-3.5-7.2-3.5-8.8,0c-1,2.3-1.6,2.5-5.6,2.2c-3.9-0.3-4.7-0.7-6.4-3.7c-1.9-3.4-1.9-5.4-0.2-12.5
		c1-4-1.2-5.5-7.6-4.8c-6.5,0.6-6.6-0.9-0.5-6.7c5.9-5.6,5.6-7.5-1.2-7.9c-6.9-0.4-7.9-1.8-5.1-6.9c3-5.5,2.1-7.3-3.7-7.3
		c-4.6,0-5.8-1.3-3.5-3.7c0.6-0.6,0.9-2.6,0.8-4.4c-0.3-2.7-1-3.7-3.7-4.9c-2.2-1-4.3-3.3-6-6.5c-2-3.7-3.3-5-5.2-5.2
		c-4.1-0.5-5.4,1.9-3.9,7.3c1.4,5.2,0.9,7.5-1.9,7.5c-5.6,0-6.8,3.1-2.1,5.5c3.9,2,3.8,3.2-0.2,4.3c-4.3,1.1-4.7,3.7-0.8,5.7
		c4.1,2.1,3.9,3.1-0.9,3.2c-4,0.2-8,1.7-8,3.1c0,0.4,2.1,2.3,4.6,4.2l4.6,3.4l-5.1,0.3c-4.1,0.2-5.1,0.7-5.1,2.1c0,2,3.1,5.6,7,8.3
		c2.1,1.4,2.3,1.9,1,2.8c-3.9,2.7-14.6-0.5-13.7-4c0.3-1.1-0.5-3-1.9-4.6c-1.3-1.5-2.9-3.3-3.4-4c-0.6-0.7-1.9-1.2-3-1.2
		c-1.6,0-2,0.7-2,3.4c0,1.9-0.6,3.6-1.2,3.8c-0.7,0.2-1.3,2.1-1.4,4.2c-0.2,2.5-0.9,4.3-2.3,5.2c-1.5,1-1.8,1.9-1.2,3
		c0.7,1.2,0,2.4-2.6,4.9c-1.9,1.8-3,3.3-2.4,3.3s1.1,1.3,1.1,2.9c0,1.6,0.6,3.1,1.2,3.4c0.7,0.3,0.1,0.6-1.4,0.6s-3.4,0.4-4.2,0.7
		c-1.2,0.5-1.6-0.1-1.6-2.6v-3.2l-4.5,0.5c-2.5,0.3-4.7,0.1-5-0.4s0.2-0.9,1.1-0.9c1.3,0,1.4-0.3,0.6-1.3c-0.8-0.9-0.7-2.1,0.4-4.1
		c2.7-5.3,1.6-6.6-5.7-6.6c-5.1,0-6-2.1-3.1-7.1c3-5.2,2.1-7-3.4-6.8c-2.4,0.1-4.6,0-4.9-0.3s0.2-1.9,1.2-3.7
		c2.1-3.7,1.3-5.7-3.3-8.2c-1.6-0.9-4.1-3.8-5.6-6.4c-2.9-5.4-5-7-7.8-6.1s-3.3,3.7-1.6,8.7c1.7,4.9,1.2,5.8-3.5,6.8
		c-4.4,0.9-4.7,2.7-1,4.9c3.7,2.1,3.5,3.4-0.7,4.5s-4,2.7,0.6,5.7l3.8,2.4l-6.2,1.1c-7.3,1.3-8.1,1.9-6.5,4.5c1.1,1.7,1,2-0.7,2
		c-2.5,0-3.3-2.2-2.5-7.1c0.6-3.5,0.4-3.9-1.4-3.9c-3.1,0-3.8-2.1-1.2-4c2.7-2,1.9-4-1.6-4c-2.3,0-2.5-0.3-1.9-3
		c0.6-2.6,0.3-3.1-1.8-3.9c-1.7-0.7-2.3-1.5-2-2.8c0.3-1.1-1.1-3.4-3.6-6.2c-3.4-3.7-4.3-4.2-5.6-3.1c-1,0.8-1.4,2.2-1,3.6
		c0.4,1.5,0,2.6-1.1,3.2c-1.1,0.6-1.7,2.3-1.8,5.2c-0.1,3.4-0.6,4.4-2.2,5.1c-1.4,0.5-2.5,0.3-3.3-0.7c-0.7-0.9-3-1.4-5.6-1.4
		c-6.1,0-8.4-2.5-8.4-9.1c0-2.8,0.7-6.4,1.5-8c1.2-2.3,1.3-3.4,0.4-5.1c-1-1.8-1.7-2.1-5.8-1.5c-7.9,1-8.5-0.5-2.3-6.7
		c3-3,5.1-5.9,4.7-6.5s-2.5-1.1-4.7-1.1c-7.2,0-9.7-3-6.3-7.4c2.6-3.5,1.9-5.3-2.6-5.8c-2.2-0.3-4.7-1.1-5.5-1.8
		c-1.3-1.1-1.3-1.4-0.1-2.8c3-3.3,2.4-6.9-1.3-8.2c-2-0.7-3.9-2.7-6-6.3c-2.9-5.2-5.9-7.4-8.2-5.9c-0.8,0.5-0.9,2.7-0.5,7l0.6,6.2
		l-3.7,0.9c-4.8,1.1-5.2,2.7-1.4,5c3.7,2.2,3.5,3.5-0.8,4.8c-4.1,1.2-4,2.9,0.3,5.6c4.2,2.6,3.7,4-1.3,4c-9.2,0-10.5,2.4-3.7,6.4
		c2.5,1.5,4.5,3.1,4.5,3.6s-2.2,1-4.9,1c-2.7,0-5.3,0.5-5.7,1.2c-0.5,0.7,1.5,3.2,5.2,6.5l5.9,5.3h-5.3c-6.5,0-7.3,1.4-3.8,6.5
		c4.7,6.9,3.3,9-6.4,9.9c-3.6,0.3-7.5,0.9-8.8,1.2c-1.9,0.5-2.2,0.2-2.2-2c0-3.3-1.4-3.3-4.2-0.1c-2.9,3.3-4.3,3.2-5.8-0.5
		c-1.5-3.6-2.8-3.7-6.4-0.9c-1.5,1.2-4.8,2.4-7.3,2.7l-4.7,0.5l2.7-3.2c1.5-1.8,4.6-4.8,7-6.8c4.9-4.1,6.1-5.9,5.4-7.8
		c-0.4-1.1-2.2-1.3-8.9-0.8c-8.9,0.6-13.7,0-13.7-1.8c0-0.6,2.3-3.6,5.1-6.6c3.8-4.2,5-6.2,4.8-8.2c-0.3-2.4-0.8-2.7-5.7-3.2
		c-4-0.4-5.8-1.1-7.2-2.8c-2.4-2.9-2.4-8.9-0.2-13.6c2.5-5.3,1-7.1-5.6-6.7c-7.3,0.5-7.8-1.6-1.8-7.7c4.9-5,5-6.1,0.6-6.1
		c-4.3,0-9-2-9-3.9c0-0.9,0.9-3.1,2-4.9c2.8-4.6,2.6-5.2-2.4-5.2c-5.8,0-7.7-2-5.3-6c2.1-3.5,1.4-5.6-2.3-6.9
		c-1.7-0.6-3.6-2.5-4.9-4.8L-1391.2,838.3z M-1237.2,955.8c0.5-0.1,1,0.1,1.5,0.5c1.7,1.2,1.7,1.4-0.4,2c-2.7,0.9-2.7,1.7-0.1,4.1
		l2.1,1.9l-2.1,0.8c-1.5,0.5-2,1.5-1.8,3c0.3,2.1-0.1,2.3-4.7,2.4c-5.2,0.1-7.5-0.3-7.5-1.5c0-0.4,2.9-3.7,6.4-7.4
		C-1240,957.5-1238.3,956-1237.2,955.8L-1237.2,955.8z"/>
	<path id="path3133-3" class="st8" d="M173.7,817.1l-2,3.8c-1.2,2.3-3.1,4.2-4.9,4.8c-3.7,1.3-4.4,3.4-2.3,6.9c2.3,4,0.5,6-5.3,6
		c-4.9,0-5.2,0.6-2.4,5.2c1.1,1.8,2,4,2,4.9c0,1.8-4.7,3.8-9,3.8c-4.4,0-4.3,1.1,0.6,6.1c6,6.1,5.6,8.2-1.7,7.7
		c-6.6-0.4-8.1,1.4-5.6,6.7c2.3,4.8,2.2,10.7-0.2,13.6c-1.4,1.7-3.3,2.5-7.2,2.9c-4.9,0.5-5.4,0.8-5.7,3.1c-0.2,2,0.9,4,4.8,8.2
		c2.8,3,5,6,5,6.6c0,1.8-4.8,2.4-13.7,1.8c-6.7-0.5-8.5-0.3-9,0.8c-0.8,2,0.5,3.7,5.4,7.8c2.3,1.9,5.5,5,7,6.8l2.7,3.2l-4.6-0.5
		c-2.6-0.3-5.9-1.5-7.4-2.7c-3.6-2.9-5-2.7-6.4,0.9c-1.5,3.7-3,3.8-5.8,0.5c-2.8-3.2-4.2-3.2-4.2,0.1c0,2.2-0.3,2.5-2.2,2
		c-1.2-0.4-5.2-0.9-8.8-1.2c-9.7-0.9-11.1-3-6.4-9.9c3.5-5.1,2.7-6.5-3.8-6.5h-5.3l5.9-5.3c3.7-3.3,5.6-5.8,5.2-6.5
		s-2.9-1.2-5.7-1.2c-2.7,0-4.9-0.4-4.9-1s2-2.1,4.5-3.6c6.8-4,5.5-6.4-3.7-6.4c-5,0-5.5-1.4-1.3-4c4.3-2.7,4.4-4.3,0.3-5.6
		c-4.2-1.3-4.4-2.6-0.8-4.8c3.8-2.3,3.4-3.8-1.4-5l-3.7-0.9l0.7-6.2c0.4-4.2,0.3-6.5-0.5-7c-2.3-1.4-5.3,0.7-8.2,5.9
		c-2.1,3.7-3.9,5.7-5.9,6.4c-3.7,1.3-4.3,4.9-1.3,8.2c1.2,1.4,1.2,1.8-0.1,2.8c-0.8,0.7-3.3,1.5-5.5,1.8c-4.4,0.6-5.2,2.4-2.6,5.8
		c3.4,4.5,0.8,7.4-6.3,7.4c-2.2,0-4.3,0.5-4.7,1.1s1.7,3.5,4.7,6.5c6.2,6.3,5.7,7.8-2.3,6.8c-4-0.5-4.8-0.3-5.8,1.5
		c-0.9,1.6-0.8,2.8,0.4,5.1c0.8,1.6,1.5,5.2,1.5,8c0,6.6-2.3,9.1-8.4,9.1c-2.6,0-4.9,0.6-5.6,1.4c-0.8,1-1.9,1.2-3.3,0.7
		c-1.7-0.6-2.2-1.7-2.2-5c-0.1-2.9-0.7-4.6-1.8-5.2c-1.1-0.6-1.5-1.7-1.1-3.2c0.4-1.4,0-2.8-1-3.6c-1.3-1.1-2.1-0.6-5.6,3.1
		c-2.5,2.8-3.8,5-3.6,6.2c0.3,1.2-0.3,2.1-2.1,2.8c-2.1,0.8-2.4,1.4-1.8,3.9c0.6,2.7,0.4,3-1.8,3c-3.5,0-4.4,2-1.7,4
		c2.6,1.9,2,4-1.2,4c-1.8,0-2,0.4-1.4,3.9c0.8,4.8,0,7.1-2.5,7.1c-1.6,0-1.7-0.3-0.7-2c1.6-2.6,0.8-3.2-6.5-4.5l-6.2-1.1l3.8-2.4
		c4.6-3,4.7-4.6,0.6-5.7c-4.2-1.1-4.4-2.4-0.7-4.5s3.4-4-1-4.9c-4.7-1-5.2-1.9-3.5-6.8c1.7-5,1.2-7.7-1.6-8.6
		c-2.9-0.9-4.9,0.6-7.8,6c-1.5,2.7-4,5.6-5.6,6.4c-4.6,2.5-5.4,4.5-3.3,8.2c1,1.7,1.6,3.4,1.2,3.7c-0.3,0.3-2.5,0.4-4.9,0.3
		c-5.5-0.3-6.4,1.5-3.4,6.8c2.9,5,2,7.1-3.1,7.1c-7.2,0-8.4,1.3-5.7,6.6c1.1,2,1.2,3.2,0.4,4.1c-0.8,1-0.7,1.3,0.6,1.3
		c0.9,0,1.5,0.4,1.2,0.9s-2.6,0.7-5.1,0.4l-4.5-0.5v3.2c0,2.5-0.3,3.1-1.6,2.6c-0.9-0.3-2.8-0.6-4.2-0.7c-1.5,0-2.1-0.3-1.4-0.6
		s1.2-1.8,1.2-3.4c0-1.6,0.5-2.9,1.2-2.9c0.6,0-0.5-1.5-2.4-3.3c-2.7-2.5-3.3-3.7-2.6-4.9c0.7-1.2,0.3-2-1.2-3
		c-1.4-1-2.2-2.7-2.3-5.2c-0.1-2.1-0.8-4-1.4-4.2c-0.7-0.2-1.2-1.9-1.2-3.8c0-2.7-0.4-3.4-2-3.4c-1.1,0-2.4,0.6-3,1.2
		c-0.6,0.7-2.1,2.5-3.4,4c-1.4,1.6-2.2,3.6-1.9,4.6c0.9,3.6-9.8,6.7-13.7,4c-1.3-0.9-1.1-1.3,1-2.8c3.9-2.7,7-6.3,7-8.3
		c0-1.5-1-1.9-5.1-2.1l-5.1-0.3l4.6-3.4c2.5-1.9,4.6-3.8,4.6-4.2c0-1.4-4-3-8-3.1c-4.8-0.2-5-1.1-0.9-3.2c3.9-2,3.5-4.6-0.8-5.7
		c-4-1-4.1-2.3-0.2-4.3c4.7-2.4,3.5-5.5-2.1-5.5c-2.7,0-3.4-2.4-1.9-7.5c1.5-5.3,0.2-7.8-3.9-7.3c-1.9,0.2-3.3,1.6-5.2,5.2
		c-1.7,3.2-3.8,5.5-6,6.5c-2.7,1.3-3.4,2.2-3.7,4.9c-0.2,1.9,0.2,3.8,0.8,4.4c2.4,2.4,1.1,3.7-3.5,3.7c-5.7,0-6.6,1.8-3.6,7.3
		c2.8,5.1,1.7,6.5-5.2,6.9c-6.8,0.4-7.1,2.3-1.2,7.9c6.1,5.8,6,7.3-0.5,6.7c-6.4-0.6-8.6,0.8-7.6,4.8c1.7,7.1,1.7,9.1-0.2,12.5
		c-1.7,3-2.5,3.5-6.4,3.7c-4,0.3-4.6,0-5.6-2.2c-1.6-3.5-6.5-3.5-8.8,0c-1,1.5-2.6,2.5-4,2.5c-2.1,0-2.4,0.5-2.4,4
		c0,2.8-0.4,4-1.4,4c-1.6,0-2.6,2.1-2.6,5.6c0,1.7-0.5,2.4-1.9,2.4s-2.1,0.9-2.6,3.2c-1.2,5.8-1.6,6.8-3.1,6.8
		c-0.8,0-1.4,0.7-1.4,1.5s-0.7,1.5-1.5,1.5c-0.9,0-1.5,0.9-1.5,2.5c0,2,0.5,2.5,2.5,2.5c1.6,0,2.5-0.6,2.5-1.5
		c0-0.8,0.5-1.5,1.1-1.5c2.5,0,0.2,3.5-2.6,4c-2.5,0.4-3,1-3.3,3.9c-0.4,3.9-2.2,6.1-5.1,6.1c-1.6,0-2.1,0.6-2.1,3c0,1.6-0.4,3-1,3
		s-1,1.5-1.1,3.2l-0.1,3.2l-1.1-2.8c-1.3-3.2-5.3-3.9-5.9-1c-0.2,1.1-0.6,1.3-1,0.7s0.4-2.3,1.8-3.7c2.7-2.9,3.3-6.7,0.9-6.7
		c-1.1,0-1.5-1.1-1.5-4s-0.5-4.3-2-5.2c-1.5-1-2-2.3-2-6c0-4.3-0.2-4.8-2.3-4.8s-2.2-0.4-1.9-4l0.4-4h-4.1c-3.5,0-4.3,0.4-5.6,3
		c-0.9,1.7-2.2,3-3,3s-1.7,1.4-2.1,3.5c-0.5,2.5-1.2,3.5-2.5,3.5c-1.5,0-1.9,0.7-1.9,3.5s-0.4,3.5-1.9,3.5c-2.3,0-3.4,3.9-3.5,12.8
		c-0.1,5.3-0.3,6.2-1.8,6.2c-1,0-1.8-0.5-1.8-1s-1.2-1-2.7-1c-2.1,0-2.4,0.3-1.5,1.2c1.5,1.5,1.6,5.8,0.2,5.8c-0.6,0-1,0.9-1,2
		c0,1.8-0.7,2-6,2c-5,0-6-0.3-6-1.8c0-1-0.7-2.6-1.5-3.7c-0.8-1-1.2-2.3-0.9-2.8c0.3-0.5,0.1-0.8-0.5-0.8c-0.5,0-1.1-1.7-1.3-3.8
		c-0.3-3.5-0.5-3.8-4.1-4.1c-3.3-0.3-4,0.1-5.5,2.8c-1,1.7-2.3,3.1-2.9,3.1c-0.7,0-1.3,1.5-1.5,3.2c-0.3,3.1-0.5,3.3-4.7,3.6
		c-3.3,0.2-4.5,0.8-4.9,2.2c-0.4,1.6-1.4,1.9-6.4,1.9c-5.1,0-5.9-0.2-5.9-1.9c0-1.1-0.9-2.2-2.1-2.6c-1.7-0.5-1.9-1.2-1.4-3.6
		c0.4-1.6,0.2-2.9-0.3-2.9s-1.3-2.1-1.7-4.8c-0.4-2.6-1.2-5-1.7-5.4c-0.6-0.3-1.3-2.1-1.7-4c-0.6-3-1.1-3.4-4.3-3.7
		c-3.2-0.3-3.9,0.1-6,3.2c-2.1,3.3-2.6,3.5-6.1,2.9s-3.8-0.4-3.8,2c0,2,0.5,2.6,2,2.6c1.1,0,2,0.4,2,1c0,0.5-1.1,1-2.5,1
		c-2,0-2.5-0.5-2.5-2.6c0-1.8-0.6-2.8-2-3.1c-1.2-0.3-2-1.4-2-2.7c0-1.2-0.9-2.7-2-3.4s-2-1.9-2-2.7c0-1.1-1.1-1.5-3.9-1.5h-3.9
		l-1.2,5.8c-0.7,3.2-1.2,6.3-1.2,7s-0.8,1.2-1.8,1.2c-1.4,0-1.8,0.8-1.8,3.5c0,1.9,0.6,4.4,1.2,5.6c1.1,1.8,0.9,2.3-1.1,4
		c-3.4,2.8-4.2,2.4-2.6-1.4c0.8-1.9,1.1-3.6,0.8-3.9c-0.3-0.3-0.7-5.2-1-10.9c-0.4-11-1.9-15.2-6.9-20.6c-1.4-1.5-2.7-3.4-3-4.3
		c-0.3-0.9-1.4-1.9-2.5-2.2c-2-0.5-2.8-2.7-1-2.7c0.5,0,1-1.1,1-2.5c0-2-0.5-2.5-2.4-2.5c-1.5,0-2.6,0.7-2.9,1.8
		c-0.4,1.5-0.6,1.4-1.2-0.5c-0.4-1.2-1.4-2.2-2.1-2.2c-0.8,0-1.4-1-1.4-2.5c0-2.2-0.4-2.5-3.5-2.5c-2.6,0-4.2,0.8-6.1,3
		c-2.1,2.4-3,2.8-4.5,1.9c-2-1.1-8.8,0.7-8.8,2.3c0,0.5,1,2.1,2.2,3.7c3,4,1.9,6.2-2.9,5.8c-3.3-0.3-3.7-0.6-3.8-3
		c0-1.7-1-3.5-2.8-4.8c-2.1-1.7-2.7-3-2.7-6.1v-3.9l-4,0.6c-4.6,0.7-6.1-1-4.2-5.2c1-2.1,0.8-2.6-1.4-4.1c-1.4-0.9-3.2-2.9-4-4.4
		c-1.9-3.7-4.4-6.1-5.6-5.3c-0.6,0.4-0.7,2.6-0.3,5.5c0.6,4.6,0.5,4.9-1.9,5.5c-2.9,0.7-3.2,1.4-1.3,3.3c1,1,0.8,1.6-1,2.8
		c-1.2,0.8-2.2,2.6-2.2,3.8c0,1.3-1.1,3.1-2.7,4.3c-2.5,1.8-2.6,2.2-1.3,4.6c0.8,1.4,1.2,2.7,1,2.9s-1.7,1.2-3.2,2.4
		c-1.6,1.2-2.3,2.4-1.8,2.8c1.6,1,1.2,4-1,6.8c-1.6,2.1-1.8,3-1,5.2c1.4,3.6,1.5,3.4-3.4,5.6c-4.2,1.9-4.4,2.1-3.6,4.9
		c0.9,3,0.2,6.9-1.9,10.8c-1.2,2.3-6.1,3.1-6.1,1c0-0.6-0.7-1.7-1.6-2.3s-1.6-2.8-1.8-4.8c-0.1-2.2-0.7-3.7-1.4-3.7
		c-0.7,0-1.2-1.1-1.2-2.4c0-1.3-0.5-2.8-1.1-3.1c-0.6-0.4-0.8-1.2-0.6-2c0.7-1.7-1.2-8.5-2.3-8.5c-0.5,0-1.1,1.7-1.5,3.7
		c-1.1,5.8-2.3,7.3-5.8,7.4c-2.4,0.1-2.6,0.2-1,0.6c1.2,0.2,2.2,0.9,2.2,1.4s2,0.9,4.4,0.9c4.1,0,4.4,0.2,5,3.1
		c0.3,1.7,0.6,4.2,0.6,5.5c0,1.6,0.8,2.7,2.5,3.3c3.3,1.2,4.3,3.9,2.1,5.5c-0.9,0.7-1.7,1.9-1.7,2.8c0,2.6-10.3,2.3-13-0.3
		c-1.1-1.1-2.7-2-3.5-2s-1.5-0.8-1.5-1.8s-0.6-2.7-1.4-3.7c-1.3-1.8-1.5-1.8-4.8,1.8c-1.9,2.1-4.4,3.8-5.6,3.8c-1.5,0-2.2,0.6-2.2,2
		c0,1.8-0.7,2-6,2h-6v-4.8c0-2.6-0.7-5.6-1.5-6.7c-1.4-1.8-1.5-1.6-1.2,3l0.2,5l-4.1,0.3c-5.5,0.4-9.4-1.2-9.4-3.9
		c0-1.4,0.5-2,1.3-1.6c1,0.4,1.2-0.2,0.8-2.1c-0.7-3.5-2.8-5.7-3.6-3.6c-0.3,0.8-1.5,1.5-2.6,1.5c-1.7,0-2-0.5-1.5-2.4
		c0.8-3.1-1.5-4.7-3-2.1c-0.6,1-2,2.8-3.2,4c-1.5,1.5-2,2.8-1.6,4.4c0.5,1.7,0.1,2.4-1.6,2.8c-1.6,0.4-2.1,1.1-1.7,2.7
		c0.7,2.6-2.4,14.3-5.1,14.3c-169,52.4-235,100.2-234.1,140.6h956.8l1-191.9L173.7,817.1L173.7,817.1z M19.4,934.6
		c1.2,0,2.8,1.4,7,5.8c3.5,3.7,6.4,7,6.4,7.4c0,1.2-2.3,1.6-7.5,1.5c-4.6-0.1-5-0.3-4.7-2.4c0.2-1.6-0.3-2.5-1.8-3l-0.1-4.6l2-1.9
		c2.6-2.4,2.6-3.2-0.1-4.1c-2.1-0.7-2.1-0.8-0.4-2c0.4-0.3,0.8-0.5,1.2-0.5L19.4,934.6z M99.3,934.9c0.6-0.1,1.1,0,1.3,0.2
		c0.9,0.9-2.8,3.5-5.1,3.5c-1,0-1.7-0.5-1.5-1.2C94.4,936.4,97.4,935,99.3,934.9L99.3,934.9z M98.4,945.6c0.1,0,0,1.1-0.3,2.5
		c-0.4,2-1.1,2.5-3.4,2.5c-1.8,0-2.9-0.5-2.9-1.4C91.8,948.2,96.5,945.6,98.4,945.6L98.4,945.6z M-13.4,950.9c1.1,0,1.5,0.7,0.8,1.8
		c-0.8,1.3-2.3,1.4-3.1,0.1c-0.3-0.6,0.1-1.3,1-1.6C-14.2,951-13.8,950.9-13.4,950.9L-13.4,950.9z M-354.7,954.8
		c-1.6,0-2.5,0.6-2.5,1.5c0,0.8-0.7,1.5-1.5,1.5c-0.9,0-1.5,0.9-1.5,2.5c0,2,0.5,2.5,2.5,2.5c1.6,0,2.5-0.6,2.5-1.5
		c0-0.8,0.7-1.5,1.5-1.5c0.9,0,1.5-0.9,1.5-2.5C-352.2,955.3-352.7,954.8-354.7,954.8z M-332.7,954.8c-0.8,0-1.5,0.7-1.5,1.5
		s0.7,1.5,1.5,1.5s1.5-0.7,1.5-1.5S-331.9,954.8-332.7,954.8z M-392.7,957.7c-0.1,0-0.1,0.2-0.2,0.4c-0.3,1-0.3,2.5,0,3.5
		s0.5,0.2,0.5-1.8C-392.4,958.4-392.5,957.6-392.7,957.7L-392.7,957.7z M-493.1,964.9c-0.3,0-0.4,0.6-0.7,1.7
		c-0.3,1.2-1.1,2.2-1.7,2.2c-0.8,0-0.8,0.2,0,0.8c0.6,0.4,1.4,1.7,1.7,2.8s0.5,1.3,0.6,0.6c0.1-0.8,0.8-2.1,1.6-3
		c1.2-1.4,1.2-1.8,0-3.6C-492.5,965.3-492.9,964.9-493.1,964.9L-493.1,964.9z M-434.7,966.8c0.9,0,1.3,0.5,1,1s-0.8,1-1,1
		s-0.7-0.5-1-1S-435.6,966.8-434.7,966.8z M-61.9,973.2c0.2-0.1,0.4,0.3,0.8,1c0.6,1,0.8,2.5,0.5,3.2c-0.9,2.4-1.6,1.6-1.6-1.8
		C-62.1,974-62.1,973.3-61.9,973.2L-61.9,973.2z M-499.5,974.2c-0.1,0-0.2,0.2-0.3,0.5c-0.3,0.7-0.2,1.6,0.1,1.9
		c0.3,0.3,0.6-0.3,0.5-1.3C-499.3,974.5-499.4,974.1-499.5,974.2L-499.5,974.2z M-495.7,976.8c-2,0-2.5,0.5-2.5,2.5s0.5,2.5,2.5,2.5
		s2.5-0.5,2.5-2.5S-493.7,976.8-495.7,976.8z M-489.8,979.2c-0.1,0-0.3,0-0.4,0.1c-0.5,0.3-1,1-1,1.6s0.5,0.9,1,0.9s1-0.7,1-1.6
		C-489.2,979.6-489.4,979.2-489.8,979.2z M-501.6,983.6c-0.1,0-0.2,0.1-0.2,0.5c-0.3,1-0.2,2.3,0,3c0.3,0.7,0.5-0.1,0.5-1.8
		C-501.4,984.3-501.5,983.7-501.6,983.6L-501.6,983.6z M-490.8,984.8c-1.8,0-2.4,0.5-2.4,2c0,2.4,4.6,7.4,5.5,5.9
		c0.3-0.5,0.1-1-0.6-1c-0.8,0-1-1.1-0.6-3.5C-488.4,985.1-488.5,984.8-490.8,984.8L-490.8,984.8z M-509.1,992
		c-1.6,0.1-1.9,0.4-1.3,1.1c0.6,0.7,1.2,2.2,1.5,3.2c0.4,1.6,0.5,1.4,0.6-0.7c0.1-2.1,0.7-2.8,2.9-3.1c1.9-0.3,1.3-0.5-1.6-0.6
		C-507.9,992-508.6,991.9-509.1,992L-509.1,992z M-486.2,994.8c-0.5,0-1,0.6-1,1.4c0,0.8,0.5,1.7,1,2.1c0.5,0.3,1-0.3,1-1.4
		S-485.6,994.8-486.2,994.8L-486.2,994.8z M-508.6,1000.2c-0.4,0-0.6,0.4-0.6,1c0,0.8-0.3,2.2-0.6,3.1c-0.4,1-0.1,1.6,1,1.6
		c1,0,1.6-0.9,1.6-2.4c0-1.3-0.5-2.7-1-3.1C-508.3,1000.2-508.4,1000.2-508.6,1000.2L-508.6,1000.2z M-510.8,1007.2
		c-0.1,0-0.3,0-0.4,0.1c-0.6,0.4-2.2,1-3.6,1.3c-2,0.5-2.2,0.9-1.2,1.7c0.7,0.6,2.4,0.9,3.6,0.7c1.5-0.2,2.2-1.1,2.2-2.3
		C-510.2,1007.8-510.4,1007.3-510.8,1007.2L-510.8,1007.2z"/>
</g>
<g id="layer1_00000051360555596031874490000004881275945208895919_" transform="translate(1390.74,-155.83136)">
	<path id="path3159_00000009575646816518630470000016622991456154508458_" class="st0" d="M1736.8,667.8v-512h-782h-782v512v512h782
		h782V667.8L1736.8,667.8z"/>
	<path id="path3151_00000155145831271962047680000013430920852737275290_" class="st1" d="M172.8,591.8l-0.1-66.3
		c1.2,0.3,11.4-0.3,21.4-0.1l18.2,0.2l3.8-3.6c2.1-2,6.3-5.3,9.3-7.4c7.5-5.2,11.6-9.2,15.2-14.5c7.4-10.9,10.4-10.7,25.7,1.4
		c11.7,9.4,12.9,9.7,31.6,8.1c7.7-0.6,13.1-1.9,23.5-5.4c12.5-4.2,14.3-4.6,23.5-4.6c8.6,0,11.3,0.4,19,3.1
		c12.5,4.3,15.1,4.6,23.6,2.9c8.3-1.7,10.5-1.4,22.9,3c7.2,2.5,35.4,37,38.4,35.8c62.4-33.2,71.9-13.2,91.5-16.9
		C650.9,506.7,177.8,863.7,172.8,591.8L172.8,591.8z"/>
	<path id="path3153_00000139282086225131963280000003066691846873043383_" class="st2" d="M888.8,385.8c1.7,0,3.5,0.1,5.5,0.1
		c17.3,0.6,28.4,4.1,46.3,14.9c12.3,7.4,37,18,76.7,32.8c50.1,18.7,81.6,31.3,85,34c2.4,1.9,26.6,11.2,45,17.2
		c20,6.6,32,10.3,73,22.4c12.1,3.6,27.4,8.1,34,10c12.8,3.8,11.6,3.7,32,1.4c5-0.6,14.4-1.3,20.9-1.6c11.5-0.5,22-2.7,30.2-6.1
		c1.9-0.8,8.3-2.6,14.2-4c9.3-2.2,12.9-2.6,26.7-2.5c11.1,0,17.7,0.5,21.5,1.5c17.6,4.9,22.2,5.9,28.7,6.3
		c13.8,0.9,27.4-4.1,42-15.2c2.4-1.9,7.4-4.8,11-6.5c9.4-4.5,15.6-3.9,28.4,2.6c15.7,8,16.6,8.4,22.6,10c7.5,1.9,15,1.8,19.2-0.3
		c2.5-1.3,4.5-3.7,7.8-9.7c5.4-9.8,7.4-12,12.8-14.1c3.4-1.3,6.5-1.5,14.6-1.1c18.8,1,34.4,5.4,53.9,15.2
		c16.4,8.3,35.8,14.4,58.4,18.4c9.9,1.8,21.3,3.9,25.2,4.6c4,0.7,8.6,1.4,10.2,1.4h3c0,35.6-0.6,426.4,0,662h-1564
		c0-9.3-0.3-18.5-1-27.5V589.8c260.7-62.3,369.5-122.2,661-191.7C870.9,387.3,877,385.7,888.8,385.8L888.8,385.8z"/>
	<path id="path3149_00000026137741616237969030000015398332945141135544_" class="st3" d="M1736.8,898.9v-281l-2.2-1.2
		c-1.2-0.7-2.2-1.1-2.2-1s-1.2-0.2-2.7-0.8s-3.7-1.2-5-1.4s-3.5-0.9-4.9-1.5c-4.3-1.8-11-3.4-11.6-2.8c-0.3,0.3-1,0.2-1.6-0.3
		c-1.5-1.2-13.7-4.3-14.4-3.6c-0.3,0.3-1.1,0.1-1.9-0.6s-2-0.8-2.8-0.5s-1.8,0.1-2.1-0.5c-0.3-0.6-1.2-0.8-2-0.5s-1.6,0.1-1.9-0.4
		s-1.3-0.9-2.3-1c-2.7-0.1-6.6-0.7-8.2-1.3c-0.8-0.3-2.2-0.6-3-0.6c-3.2-0.2-12.9-1.7-17.4-2.8c-1.2-0.3-4.1-0.7-6.6-0.9
		s-6.1-0.7-8-1.1s-4.1-0.6-4.8-0.4s-2-0.3-2.8-1s-1.7-0.9-2.1-0.6c-0.3,0.3-1.2,0.1-2-0.5s-2-0.9-2.8-0.6s-1.7-0.1-2-1
		c-0.4-1.1-1.7-1.4-4.5-1.2c-2.1,0.2-3.7,0.1-3.5-0.3c0.2-0.4-1.3-1-3.3-1.4c-5.2-1-24.2-6.5-26.1-7.6c-3.4-2-28.6-10-29.8-9.5
		c-0.7,0.3-1.3,0.1-1.3-0.3s-0.6-0.8-1.2-0.8c-1.2,0-7.9-2.8-14.7-6.1c-1.9-0.9-3.7-1.7-4-1.7s-1.5-0.5-2.6-1.1s-3.2-1.4-4.8-1.7
		c-1.5-0.4-2.8-1.1-2.8-1.6c0-0.7-5.3-3.1-8-3.6c-2.4-0.4-5-1.8-5-2.6c0-0.5-0.4-0.7-1-0.4s-1,0.2-1-0.4c0-1-6.8-3.7-8.2-3.3
		c-0.4,0.1-0.8-0.3-0.8-1s-0.3-0.9-0.6-0.5c-0.3,0.3-1.3-0.1-2.1-0.9s-2.2-1.3-2.9-1c-0.8,0.3-1.2,0.1-0.9-0.3
		c0.6-1-2.2-2.3-3.5-1.6c-0.5,0.3-1.1,0.1-1.5-0.5s-1.1-0.8-1.6-0.5s-0.9,0.1-0.9-0.5s-0.4-0.8-1-0.5s-1,0.1-1-0.5s-0.4-0.8-1-0.5
		s-1,0.1-1-0.5s-0.4-0.9-0.9-0.5c-0.5,0.3-1.2,0.1-1.6-0.5s-1.1-0.8-1.6-0.5s-0.9,0.2-0.9-0.3c0-1.2-8-4.3-9.1-3.6
		c-0.5,0.3-0.9,0-0.9-0.6s-0.7-0.9-1.5-0.6s-1.5,0.1-1.5-0.5s-0.5-0.9-1.2-0.7s-2-0.4-3-1.4c-1.5-1.5-6.6-2.5-10.1-1.9
		c-0.4,0.1-0.8-0.4-0.8-0.9c0-0.6-0.8-0.8-1.9-0.5s-2.2,0.1-2.5-0.4c-0.9-1.4-23.8-0.7-24.3,0.8c-0.2,0.6-1.5,1.1-2.8,1.1
		s-2.4,0.4-2.4,0.8s-0.6,0.8-1.2,0.9c-2.2,0.1-12.2,5-14.5,7.2c-1.2,1.2-2.9,2.1-3.7,2.1c-0.8,0-1.9,0.6-2.3,1.3s-2,1.8-3.5,2.5
		s-2.8,1.7-2.8,2.2c0,0.6-0.7,1-1.5,1s-1.5,0.5-1.5,1.1s-0.4,0.8-0.8,0.5s-1.8,0.4-3,1.4s-2.6,2-3.2,2s-1,0.4-1,0.9
		s-1.2,1.2-2.8,1.6c-1.5,0.4-2.8,0.5-2.8,0.4s-1.3,0.6-3,1.8c-228.1,125.2-1191.6,19.2-1191.5,624.4h1564L1736.8,898.9L1736.8,898.9
		z M1283.3,954.1c-2.4-5.6-0.9-8.1,4.7-7.9c3.9,0.1,4.3,0.4,4.6,2.9c0.3,2.3-0.3,3-3.2,4.4c-2,0.9-3.6,2.3-3.6,3
		C1285.8,958.8,1284.9,957.9,1283.3,954.1L1283.3,954.1z M1270.3,946.8c0.3-0.5,1-1,1.6-1c0.5,0,0.9,0.5,0.9,1s-0.7,1-1.6,1
		C1270.4,947.8,1270,947.4,1270.3,946.8z M1363.8,553.8c-0.8-0.5-2-1-2.5-1c-0.6,0-0.3,0.4,0.5,1c0.8,0.5,1.9,1,2.5,1
		C1364.8,554.8,1364.6,554.4,1363.8,553.8z M1352.3,549.8c-0.3-0.5-1.1-1-1.6-1s-0.7,0.5-0.4,1c0.3,0.5,1.1,1,1.6,1
		C1352.5,550.8,1352.6,550.4,1352.3,549.8z"/>
	<path id="path3147_00000142870560293304089690000005213721788437796029_" class="st4" d="M1736.3,898.6l-0.3-281.1l-9.5-2.9
		c-24.6-7.4-69.7-17.1-90.5-19.4c-5.6-0.6-13.6-2.3-29.5-6.1c-10.4-2.5-30.7-8.9-41-12.9c-5.2-2-10.4-3.9-11.5-4.2
		c-2.3-0.6-23.5-9.4-31-12.8c-61.7-28.3-76.7-33.8-93-33.8c-13.5,0-20.4,2.9-47.9,20.5c-7.6,4.9-14.3,8.9-14.8,8.9s-4.7,1.8-9.4,4
		c-15.2,7.2-28.4,10-49.9,10.6c-11.1,0.3-17.6,1.1-25,2.8c-21.1,5-28.6,7.9-68.2,26c-22.5,10.3-27.7,12-28.6,9.4
		c-0.3-0.9-0.8-1-1.8-0.2c-2,1.6-11.8,4.6-15.9,4.9c-1.9,0.2-6.2,1.1-9.5,2s-7.9,2.2-10.2,2.8c-3,0.8-4.2,1.6-4.2,2.9
		c0,2.5-2.6,3.3-7.2,2c-2.4-0.6-4.1-0.7-4.5-0.1c-1.2,1.9-9.1,4.5-15.6,5.1c-4.6,0.4-7.7,1.3-9.7,2.8c-2.2,1.6-3.7,2-6.3,1.6
		c-2-0.4-6.1,0.1-10.3,1.3c-15.1,4.1-42.4,12.3-50.5,15.2c-4.7,1.7-10.3,3.6-12.5,4.3c-5.8,1.8-36.2,13.9-48.4,19.2
		c-9.9,4.3-10.8,4.5-17.5,4c-7.6-0.6-14.6-2.9-42.4-14.2c-24.9-10.1-32.8-12-49.2-12c-15.1,0-10.7-1.3-41.5,12.4
		c-21.8,9.7-46.1,19.2-71.8,28.1l-6.8,2.4l-4.2-2.4c-13.6-7.8-19.4-10.5-30.3-14c-11-3.6-31.9-8-44.9-9.6c-2.8-0.3-6.6-0.8-8.5-1.1
		c-6.8-0.9-35.6-3.3-46-3.9c-12.9-0.7-37.4-3.2-45.5-4.6c-11.8-2-29.3-6.9-45-12.5c-23.2-8.2-24.1-8.5-31.7-8.5
		c-19.3,0-44.1,9.5-86.8,33.3c-28.4,15.8-58.2,29-75.5,33.3c-7.1,1.8-8.6,1.8-44.5,1.3c-11.5-0.2-16.6,0.2-24.5,1.9
		c-12.2,2.5-28.4,5.4-47,8.3c-15.3,2.4-28.8,5.6-37.8,8.9l-5.8,2.2v454.9h1564L1736.3,898.6L1736.3,898.6z"/>
	<path id="path3145_00000111188403039581409260000007722052957991916678_" class="st5" d="M1736.8,693.3c0.1-71.6,0-75.5-1.7-75.5
		c-1,0-4.7-0.9-8.3-2.1c-21.3-6.7-46.7-12.4-75.5-16.9c-38.3-6-51.7-9.2-79.5-18.8c-15.3-5.3-28.3-10.4-38.8-15.3
		c-3.5-1.6-6.5-2.9-6.8-2.9s-2.8-1.1-5.7-2.4c-18-8.4-24.5-11.3-35.2-16.1c-6.6-2.9-13.1-5.6-14.5-6s-2.9-1.1-3.5-1.5
		c-2.1-1.5-19.6-6.9-28-8.6c-7.2-1.4-9.8-1.5-14.7-0.6c-8.4,1.6-21.6,7.7-34.4,15.9c-14,9-16.7,10.6-29.5,16.9
		c-17.2,8.5-29.3,11.2-53.2,11.8c-9.1,0.2-17.4,0.8-18.4,1.4c-1,0.5-3.7,1.2-6,1.6c-10.2,1.6-38.8,12.1-58.9,21.8
		c-4.5,2.1-8.4,3.9-8.7,3.9c-0.3,0-5.7,2.5-11.9,5.5c-6.2,3-11.7,5.5-12.1,5.5s-4,1.5-8,3.4c-7.6,3.6-25.4,9.6-28.5,9.6
		c-1,0-3.6,0.9-5.8,2.1s-5.5,2.2-7.4,2.4c-11.1,1.2-25.8,4-26.7,5.1c-1.9,2.3-6,3.3-10,2.3c-2.1-0.5-5.4-0.9-7.3-0.9
		c-5.9,0-33.4,6.9-52.4,13.1c-16.3,5.4-59.7,21.9-62.2,23.7c-1.7,1.2-11.8,4.9-15.2,5.6c-1.8,0.4-5.8,0.1-9-0.5
		c-5.2-1-23.3-7.1-30.8-10.4c-1.7-0.7-4.8-2.1-7-3.1c-19.2-8.5-36.3-12.8-51-12.8c-12.5,0-8.4-1.4-50.5,16.8
		c-12.4,5.3-26.1,11-30.5,12.6s-8.9,3.3-10,3.9c-3.7,1.8-23,8.2-26.2,8.7c-2.6,0.4-4.8-0.4-11-4.2c-25.3-15.4-57.7-21.7-140.8-27.5
		c-29.1-2-49-6.3-78-16.6c-22.3-8-26.9-8.8-38.2-6.8c-19.3,3.4-41.1,12.8-85.3,36.9c-27,14.7-53.6,25.9-70.5,29.7
		c-3.3,0.7-10.5,1.3-16,1.2s-16.5-0.2-24.5-0.4c-12.6-0.2-16.7,0.2-31,2.8c-9.1,1.7-21.2,3.8-27,4.7c-29,4.5-42.2,7.3-52.5,11.2
		l-5,1.9l-0.3,227.2l-0.3,227.2h1564C1735.5,1018.9,1736.6,836,1736.8,693.3L1736.8,693.3z"/>
	<path id="path3141_00000054237553406160622530000017817028637047640737_" class="st6" d="M1736.6,984.9c0-143.5-0.3-195-1.1-195
		c-0.7,0-0.7-0.5,0.2-1.6c1.1-1.4,1-1.8-0.6-3c-1-0.8-2.3-1.4-2.7-1.4c-0.4,0-0.3-0.9,0.4-2c1-1.7,0.9-2.2-0.7-3.6
		c-1.4-1.1-1.6-1.7-0.7-2.1c1.9-0.8,1.5-4.2-0.5-4.6c-1.4-0.3-1.8-1.4-1.8-4.8c0-4.1-0.2-4.5-2.8-4.8c-2.4-0.3-3,0.2-4.7,4.2
		c-1.1,2.5-2.9,5-4,5.6c-1.6,0.9-2,1.9-1.8,4.8c0.2,3.1,0,3.7-2.2,4.3c-2.6,0.6-2.9,2.2-1.5,6.8c0.6,1.9,0.3,2.3-2.5,2.9
		c-4.1,0.8-4.8,2.9-2.1,5.8c2.4,2.6,2,4.5-0.9,4.5c-3.2,0-4.4,2.5-3.1,6.5c1.5,4.4,0.6,8.7-1.5,7.8c-0.8-0.3-1.4-1.5-1.3-2.7
		c0.4-4.5-0.2-6.4-2-6.9c-1.3-0.3-1.9-1.6-2.1-4.4c-0.3-5.2-0.6-7.6-1.3-9.4c-0.3-0.8-1.2-3.6-1.9-6.2c-1.6-5.8-3.7-6.2-6.3-1
		c-2.9,5.5-4.6,7.2-7.3,7.2h-2.4l2.6-3.1c3.4-4,3.3-5.9-0.2-6h-2.8l2.2-1.9c3.2-2.6,2.8-4.7-0.9-5.4c-3-0.6-3.1-0.7-1.4-2.5
		c1.6-1.8,1.6-2-0.4-3.4c-1.8-1.3-1.9-1.6-0.6-2.7c2.2-1.8,1.9-3.7-0.8-4.4c-2-0.5-2.2-1.1-1.9-4.7c0.7-7-4.5-7.3-7.4-0.4
		c-0.8,1.8-2.4,4-3.6,4.9c-1.8,1.2-2,2.2-1.6,5.1c0.5,3.4,0.4,3.6-2.4,4.2c-3.1,0.6-3.9,3.3-2,6.3c1.1,1.8-0.5,4-3,4
		c-1,0-2.3,0.7-3,1.5c-1,1.2-0.7,2,1.4,4c3.4,3.4,3.3,4.3-0.7,4.7l-3.2,0.3l0.3,7.1c0.3,7.7-0.2,8.6-5.2,9.8
		c-2.1,0.5-3.2,0.2-4.2-1.1c-1.3-1.7-1.5-1.6-3.9,1.2c-1.4,1.7-2.5,3.7-2.5,4.6c0,0.9-0.7,2.2-1.5,2.9s-1.3,1.6-1,2
		s-0.2,1.5-1.1,2.4s-1.3,2.4-1,3.5c0.4,1.2,0,2.1-1,2.5c-1.2,0.5-1.4,1.4-1,3.6c0.5,2.3,0.2,3.2-1.4,4.2c-2.2,1.4-2.8,4.3-1.1,5.3
		c1.9,1.1,1,2.5-1.5,2.5c-2.9,0-4.2,2.4-2.5,4.5c1,1.2,1,1.5-0.1,1.5c-0.7,0-2.3,1.2-3.6,2.8c-1.7,2.1-2.3,2.3-2.3,1.1
		c0-1-1-1.8-2.3-2c-2-0.3-2.2-0.9-2.4-6.5c-0.1-3.4-0.5-6.8-1-7.5s-1.3-3.4-1.9-5.8c-1.4-6.2-3.9-6.1-7.6,0.5
		c-1.5,2.8-2.8,5.8-2.8,6.8s-0.5,1.8-1.1,1.8s-1,1.1-1,2.4c0,1.3-0.4,2.7-1,3.1s-1,2.1-1,3.9c0,2.3-0.7,3.8-2.2,4.8
		c-2,1.3-2.1,1.8-1,3.6c1.7,2.8,1.6,3.1-1.2,3.1c-2.9,0-4.3,1.7-2.7,3.3c1.5,1.5,1.4,2.7-0.1,2.7c-0.7,0-2.1,1.5-3.1,3.2
		c-1.6,2.9-1.9,3-2.8,1.4c-0.6-1-0.7-2.4-0.4-3.3c0.3-0.8-0.1-3.4-0.8-5.7c-0.8-2.3-1.7-5.9-2.1-8c-1.2-6.7-3.3-6-7.9,2.7
		c-1.4,2.7-2.6,5.5-2.6,6.2s-0.5,1.4-1.1,1.4c-0.7,0-0.9,0.9-0.5,2.4c0.4,1.7,0.1,2.6-1,3c-1.2,0.4-1.4,1.4-0.9,3.5
		c0.5,2.4,0.2,3.2-2,4.6c-1.4,0.9-2.4,2.3-2.1,3s0.1,1.6-0.4,1.9c-0.5,0.3-1-0.3-1-1.4s-0.4-2.3-0.9-2.6s-0.7-2.1-0.4-4
		c0.5-3,0.2-3.6-1.9-4.4c-2.2-0.8-2.5-1.5-2.7-7.1c-0.1-3.4-0.6-6.9-1.1-7.8s-1.4-3.6-2.1-6c-1.7-5.8-3.7-5.2-7.4,2.5
		c-1.7,3.4-3.3,6.2-3.5,6.2c-0.3,0-1.1-1.4-1.9-3.2c-2.2-5-5.4-9.7-6.7-9.7c-1.5,0-3.2,5.2-4.3,13.1c-1,7.2-1.8,8.2-5.4,7.3
		c-3.2-0.8-4.9-4.4-4.6-9.6c0.2-3.1-0.1-3.7-2-4c-2-0.3-2.3-1-2.6-6.3c-0.2-3.3-0.7-6.7-1-7.5c-0.4-0.8-1.1-3.5-1.7-6
		c-1.5-6.5-4.1-6.1-7.7,1c-1.5,3-3,6.3-3.3,7.3c-0.5,1.5-1.2,1.7-4.3,1.1c-4.8-0.9-4.9-1-2.8-3.4c2.2-2.4,1.4-5-1.5-5
		c-1.8,0-2-0.4-1.5-2.9c0.5-2.4,0.3-3-1.4-3.6c-1.2-0.4-2.1-1.5-2.1-2.8c0-1.2-1.5-3.9-3.4-6.1c-4-4.7-6.6-4.4-6.6,0.8
		c0,1.9-0.6,3.6-1.3,3.9c-0.8,0.3-1.4,2.3-1.4,5.3c0,3.2-0.6,5-1.7,5.6c-1.9,1.1-2.1,3.4-0.3,4.1c0.9,0.3,0.6,0.9-0.7,2
		c-1.9,1.5-1.9,1.6-0.2,3.5c1.6,1.7,1.6,2.1,0.3,3.2c-0.8,0.7-1.8,2.7-2.1,4.5c-0.4,2-1.5,3.7-2.7,4.2c-1.5,0.7-2.4,2.5-3.3,6.9
		c-0.7,3.3-1.3,7.1-1.3,8.4c-0.1,1.4-1.4,3.8-3.1,5.4c-3.5,3.4-4.7,7-3,9c0.9,1.1,0.8,1.5-0.6,2c-1,0.3-2.3,1.6-2.8,2.8
		c-1.6,3.6-2.9,2.6-3.7-2.7c-1.1-7.9-2-11.5-2.9-12.1c-0.5-0.3-0.9-1.5-0.9-2.6c0-3.5-3.1-1.7-6.1,3.6c-1.5,2.8-2.8,5.6-2.8,6.3
		s-0.8,2-1.6,2.9c-1.2,1.2-1.3,1.9-0.4,2.9c0.9,1.1,0.8,1.5-0.5,2c-1,0.4-1.6,1.8-1.6,4c0,2.3-0.6,3.7-1.9,4.4
		c-1.1,0.6-2.1,2-2.3,3.3c-0.4,2.1-0.5,2.1-1.7-0.7c-0.7-1.7-1.2-4.5-1.1-6.3c0.2-2.6-0.2-3.4-1.9-3.9c-1.3-0.3-2.1-1.4-2.2-2.7
		c-0.3-7.9-3-19.8-5.1-22.1c-1.1-1.2-5.7,4.2-5.8,6.7c0,0.9-0.5,2-1,2.3s-1,1.5-1,2.6s-0.7,2.2-1.6,2.6c-1.1,0.4-1.4,1.3-1,2.9
		c0.3,1.4,0.1,2.4-0.7,2.7c-0.7,0.2-1.1,1.8-1,3.6c0.2,2.3-0.3,3.5-1.8,4.4c-2.1,1.3-2.7,4.2-1,5.3c1.8,1.1,1,2.5-1.4,2.5
		c-3.3,0-4.1,1.7-2,4.1c1.7,1.9,1.7,1.9-0.3,1.9c-1.1,0-2.8,1.1-3.7,2.5c-1.3,2-2.5,2.5-5.5,2.5c-5.2,0-6.7-1.9-4.6-6
		c1.8-3.5,1.3-5-1.5-5c-2.6,0-2.4-0.9,0.7-4.1c3-3.1,2.5-4.9-1.4-4.9h-2.7l2.8-2.3c3.6-2.9,3.5-4.7-0.2-4.7c-2,0-3-0.5-3-1.5
		c0-0.8,0.4-1.5,1-1.5c1.7,0,1.1-2.8-0.7-3.9c-1.6-0.9-1.6-1.1,0.1-3c1.8-2,1.8-2.1-0.5-3c-2-0.8-2.4-1.6-2.4-5.3s-0.3-4.4-2.2-4.7
		c-1.7-0.2-2.7,0.6-4.4,4c-1.2,2.4-3.1,4.9-4.1,5.7c-1.5,1.1-1.8,2.1-1.3,4.6c0.6,3,0.3,3.4-2.4,4.3c-3,1-4,3.4-2,4.7
		c0.6,0.3,1,1.5,1,2.6c0,1.4-0.9,2.1-3.1,2.6c-4.2,0.8-4.8,3.1-1.6,5.9c3.4,3,3.4,4.4-0.2,4.4c-4,0-5.8,2.3-4.3,5.6
		c2.5,5.5,0.5,11.4-3.8,11.4c-1,0-2.6,0.9-3.6,2c-1.8,2-6.5,2.8-6.5,1.2c0-0.5,1.1-1.9,2.5-3.2c3.2-3,3.2-5,0-5
		c-3.1,0-3.2-1.3-0.3-3.2c2.8-1.9,1.8-4.8-1.7-4.8c-2.5,0-2.5,0-0.9-2.6c1.6-2.5,1.6-2.6-0.5-3.1c-2.5-0.7-2.8-2.1-0.7-3
		c2.4-0.9,1.7-3.3-1.1-4c-1.7-0.4-2.4-1.1-2-2.1c1.6-4.1,1.6-6,0.1-7.2c-1.9-1.6-3.9-0.2-6.3,4.4c-0.9,1.7-2.7,4.1-4,5.3
		c-1.9,1.8-2.2,2.6-1.4,4.2c1.6,3,1.3,3.8-2.1,4.4c-2.8,0.6-3.1,0.9-2.5,3.4c1.2,5.2,1.1,5.5-2.4,6.8c-3.9,1.4-4,2.7-0.4,6.6
		c2.8,2.9,2.3,3.9-1.8,3.9c-3.5,0-4.4,2-3,6.6c1,3.2,0.9,3.6-1.4,4.6c-1.3,0.6-2.4,1.9-2.4,2.8s-1,2.4-2.2,3.2
		c-1.7,1.1-2.2,2.5-2.3,6c-0.1,4.7-2.5,8.7-5.1,8.7c-2.2,0-2.6,2-0.9,4.6c1.9,2.9,1.5,3.8-1.3,2.9c-2.2-0.7-5.7-8.6-6.7-15.3
		c-0.8-5.2-2.5-5.4-5-0.8c-2.1,3.8-3.1,4.2-6,2.1c-1.8-1.3-1.8-1.5-0.2-3.3c1.9-2.1,1.4-3.3-1.4-3.3c-1.6,0-1.8-0.6-1.2-3.9
		c0.8-4.9-0.9-8.1-4.1-8.1c-3,0-3.2-1.5-0.5-3.2c3.2-2,2.6-4.8-1-4.8c-3.4,0-3.5-0.2-1.8-3.1c1.1-1.7,1-2.2-0.6-3.1
		c-1.7-1-1.7-1.2-0.2-2.9c1.8-2,1.3-4-1-4c-2.1,0-2.6-1.5-1.6-4.3c0.7-1.7,0.6-3-0.3-4.1c-1.7-2.3-4.2-1.1-5.8,2.7
		c-0.7,1.7-2.5,4.4-4.1,6c-2.4,2.4-2.6,3.2-1.7,5c1.2,2.3,0.5,3.5-2.6,4c-1.9,0.4-2.5,3-1.4,6.8c1,3.3-3.6,1.7-15.7-5.7
		c-27-16.5-46.1-25.5-68.4-32.3c-28.2-8.6-57-23-82.8-41.3c-12.2-8.7-26.1-20-47.7-39c-29.4-25.7-35.6-30.3-48.1-35.5
		c-13.6-5.6-22.7-7.2-54.9-9.6c-38.1-2.8-52.3-5.5-76-14.3c-18.5-6.9-47.4-22.7-78.8-43.4c-8.2-5.4-15.4-9.8-15.9-9.8
		c-0.6,0-5.4-2.5-10.7-5.5c-25.8-14.7-51.4-19.9-126.5-25.5c-45.9-3.4-58.8-6.1-96.4-19.7c-15.5-5.6-21.2-6.6-30.8-5.2
		c-18.9,2.6-38.8,10.9-76.9,31.8c-31.8,17.5-59.7,29.8-77.5,34.2c-9.9,2.5-15.1,2.7-42.5,2.1c-11-0.2-16.3,0.2-34.5,3.2
		c-11.8,1.9-26.7,4.3-33,5.2c-17.3,2.5-30.5,5.3-40.8,8.7l-9.2,3.1v453.7h1564L1736.6,984.9z M1340.6,930.9c0-0.5,0.4-1,0.9-1
		s1.2,0.5,1.6,1c0.3,0.5-0.1,1-0.9,1C1341.3,931.9,1340.6,931.4,1340.6,930.9z M1381.6,928c0-1.6,2.9-3.3,5.1-2.9
		c2.8,0.4,3.6,2.5,1.2,3.1C1384.8,929,1381.6,928.9,1381.6,928L1381.6,928z M1383.1,918.9c0.3-0.5,1.2-1,2-1s1.7,0.5,2,1
		c0.4,0.6-0.5,1-2,1S1382.8,919.5,1383.1,918.9z M1516.6,870.9c0-0.5,0.4-1,1-1s1,0.5,1,1s-0.4,1-1,1S1516.6,871.4,1516.6,870.9z
		 M1490.6,845.7c0-1.6,0.3-1.9,1.1-1.1c0.6,0.6,0.8,1.6,0.4,2.2C1491.2,848.5,1490.6,848.1,1490.6,845.7z M1643.6,820.9
		c0-1.3,0.5-1.8,1.5-1.4c0.8,0.3,1.5,1.2,1.5,2s-0.7,1.4-1.5,1.4C1644.3,822.9,1643.6,822,1643.6,820.9z"/>
	<path id="path3135_00000052821018564615063440000002717916122037938574_" class="st7" d="M1735.9,984.6
		c-0.1-107.4-0.3-194.2-0.6-192.9c-0.6,3-3,3.9-5.1,1.8c-1.6-1.6-1.5-1.8,0.6-3.5c2.9-2.4,2.8-3-0.2-3c-3.3,0-4.1-1.7-2-4.1
		c1.7-1.9,1.7-2-0.2-3.4c-1.5-1.1-1.7-1.8-0.8-3.2c0.9-1.4,0.7-2.1-0.9-3.4c-1.7-1.4-1.8-2.1-0.9-4.7c1-3,0.8-4.2-0.9-4.2
		c-0.4,0-1.3,1.5-1.9,3.4c-0.6,1.8-2.2,4.4-3.5,5.6c-2.1,2-2.2,2.6-1.3,4.8c1,2.1,0.8,2.7-0.8,3.9c-1,0.8-2.5,1.4-3.2,1.4
		c-1.6,0-1.7,1.4-0.3,4c0.8,1.5,0.6,2.4-1,3.9c-1.1,1.1-2.7,2-3.5,2c-2.1,0-1.9,1.3,0.5,3.5c3.4,3,2.3,4.8-4.4,6.9
		c-1.3,0.4-1.6,1.1-1.1,2.3c1.5,3.5,1.7,7.3,0.5,10.2c-1.3,3-4.2,4.9-4.8,3.1c-0.2-0.6-1-1.7-1.8-2.5s-1.4-3-1.4-4.9
		c0-2-0.6-3.7-1.4-4c-1.2-0.4-3.1-5.9-2.8-7.8c0.1-0.3-0.5-3.5-1.2-6.9c-1.3-6.3-3.1-8.7-4.2-5.3c-0.3,1-1,2.6-1.5,3.6
		s-0.9,2.4-0.9,3.3c0,0.8-0.7,1.8-1.5,2.1c-1.1,0.4-1.2,1.1-0.5,2.3c1.2,2.2,0.4,3-2.6,3c-1.6,0-2.3-0.6-2.3-1.9
		c0-1.1,0.4-2.2,1-2.6c1.9-1.1,1-2.5-1.5-2.5c-3.7,0-4.2-2.6-1-5.9l2.7-2.8l-2.6-0.6c-3.2-0.8-3.3-3.2-0.3-5.7l2.2-1.9h-2.6
		c-3.8,0-5.3-2-3.3-4.2c1.5-1.6,1.5-1.9-0.1-3.4c-1.5-1.5-1.5-1.8-0.1-3.4c1.5-1.6,1.4-1.8-0.6-2.3s-2.1-1-1.5-5.1
		c0.8-5.7-0.8-6.1-3-0.8c-0.9,2.1-2.5,4.5-3.7,5.4c-1.9,1.4-2,2-1,4.2c0.9,2.1,0.8,2.8-0.6,4.1c-1,0.9-2.5,1.6-3.4,1.6
		c-2,0-2,0.2-0.5,3.4c1,2.1,0.9,2.9-0.7,4.5c-1,1.1-2.6,2-3.7,2c-2.6,0-2.3,1.5,0.7,3.4c3.8,2.5,3,5.9-1.6,6.6c-3,0.4-3.5,0.8-3.2,3
		c0.8,7.2,0.6,9.9-1.2,11.9c-1,1.1-2.6,2.1-3.5,2.1s-2.3,0.4-3.1,1c-1.2,0.8-0.8,1.6,2.2,4.8c4.2,4.3,4.7,6.8,1.7,7.7
		c-4.4,1.4-7.1-1.8-8.2-9.9c-0.4-2.6-2.6-3.2-3.3-0.9c-0.3,1-1,2.6-1.5,3.6s-0.9,2.4-0.9,3.1c0,0.8-0.6,1.9-1.4,2.6
		c-0.8,0.7-1.2,2.1-0.9,3.2c0.3,1.3,0,2.4-1,3c-1,0.5-1.4,1.7-1,2.9c0.3,1.3-0.3,2.9-1.8,4.5c-1.8,1.9-2,2.7-1.1,3.7
		c1.9,1.9,1.4,3.7-1.3,4.4c-2.6,0.7-3.2,1.8-1.5,2.9c1.9,1.2,1,3.4-1.6,3.7c-1.5,0.2-3.2,1.4-4.2,3c-1.5,2.5-1.5,2.8,0.2,4.7
		c2,2.2,1.4,4.1-1.3,4.1c-2.7,0-5.6-3.8-5.2-6.8c0.2-1.7-0.4-3.1-1.8-4.2c-1.5-1.2-2.2-3-2.5-6.6c-0.5-5.9-2.3-15.6-3.1-16.4
		c-0.7-0.7-2.4,2-2.4,4c0,0.9-0.7,2.2-1.5,2.9s-1.5,2.1-1.5,3.1s-0.4,2.1-0.9,2.4c-0.5,0.3-0.7,1.5-0.4,2.5c0.3,1.3-0.1,2.2-1.1,2.6
		c-1,0.4-1.6,1.8-1.6,4c0,2.3-0.6,3.7-2,4.4c-1.8,1-1.9,1.3-0.5,3.2c1.7,2.5,0.5,4.8-2.6,4.8c-2.3,0-2.4,1.3-0.4,3c2,1.6,1,3-2,3
		c-1.3,0-2.4,0.4-2.4,0.9c0,1.7-5.3,7.2-6.1,6.4c-0.5-0.5-1.3-3.5-1.8-6.8c-1.4-8.5-2.7-14.4-3.5-15.2c-0.9-0.9-3.5,2.8-3.6,4.9
		c0,0.9-0.5,2-1,2.3s-1,1.5-1,2.6s-0.5,1.9-1,1.9c-0.6,0-0.8,1-0.4,2.4c0.4,1.6,0.1,2.6-1,3c-1,0.4-1.6,1.8-1.6,3.6
		s-0.8,3.7-1.9,4.7c-1.5,1.3-1.7,2-0.8,3.4c1.5,2.4,0.7,3-3.1,2.3c-2.1-0.4-3.2-1.2-3.2-2.4c0-1-0.7-2-1.4-2.3
		c-1-0.4-1.3-1.5-0.9-4.1c0.4-2.7,0.2-3.7-1.1-4.2c-0.9-0.3-1.6-1.5-1.6-2.5s-0.5-2.1-1.1-2.5s-0.9-1.5-0.6-2.5
		c0.5-1.9-1.5-11.9-2.8-13.9c-1-1.6-3.5,0.6-3.5,3c0,1-0.4,2.1-1,2.4c-0.6,0.3-1,1.5-1,2.6c0,2.9-6.5,2.3-6.6-0.6
		c-0.1-2.5-3.2-8.5-4.3-8.5c-1.2,0-2,2.4-3,9.7c-0.5,3.5-1.5,7.1-2.2,8s-1.2,2.4-1,3.3c0.2,1-0.2,2-0.8,2.4c-0.6,0.4-1,1.5-1,2.6
		c0,1.3-0.7,1.9-2,1.9c-1.7,0-1.9-0.3-1-1.9c0.8-1.5,0.6-2-0.6-2.5c-1.1-0.4-1.4-1.3-0.9-3.2c0.5-2.1,0.2-2.7-1.4-3.1
		c-1.1-0.3-2-1.3-2-2.3s-0.6-2-1.3-2.3c-0.9-0.3-1.2-1.6-0.9-3.8c0.4-2.5,0-3.6-1.7-4.9c-1.6-1.2-2.3-3-2.5-6.6
		c-0.2-2.7-0.7-6.3-1-8s-0.9-4-1.1-5.2c-0.7-3.5-2.2-2.7-4.5,2.5c-1.1,2.6-2.5,5.5-2.9,6.4c-0.5,0.9-0.6,2.6-0.3,3.8
		c0.4,1.5,0.1,2.1-1.1,2.1c-1,0-1.6,0.9-1.6,2.4c0,3.1-1.6,4.1-3.7,2.4c-1.2-1-1.4-2.4-1-5.6c0.6-4,0.4-4.3-1.8-4.3
		c-3.3,0-4-1.6-2.1-4.5c2-3.1,2-3.1-0.5-3.8c-1.7-0.4-2-1.1-1.6-3.2c0.4-2,0.1-2.8-1.4-3.2c-1.8-0.5-2.2-1.3-2-4.3
		c0.1-0.8-1.2-3.1-2.9-5l-3-3.5v3.7c0,2-0.4,3.9-0.9,4.3c-0.5,0.3-0.7,1.4-0.4,2.4s0,2.2-0.6,2.6c-0.8,0.5-0.8,1.3-0.1,2.6
		c0.8,1.5,0.6,2.1-1,3c-1.7,0.9-1.8,1.4-0.8,3.1c1,1.7,1,2.2-0.5,3c-1.4,0.8-1.5,1.3-0.6,2.8s0.7,2.4-1,4.6
		c-1.2,1.5-2.2,3.8-2.2,5.1c0,1.6-0.8,2.7-2.3,3.3c-1.8,0.7-2.5,2.2-3.5,6.8c-0.7,3.3-1.2,6.7-1.2,7.7s-1.6,3.7-3.5,6
		c-3.5,4.3-4.3,6.9-2.5,8.1c1.7,1.1,1.1,3.5-0.9,3.5c-1.2,0-2.8,1.5-4.2,4c-3.4,6.1-5.8,5.3-6.3-2.3c-0.5-6.2-1.6-11.9-3.1-14.7
		l-1.3-2.5l-1.2,3c-0.7,1.6-2.1,4.8-3.1,7c-1.1,2.2-1.6,4.8-1.3,5.7c0.4,1-0.1,2-1.3,2.7c-1.4,0.8-1.8,1.8-1.4,3.7
		c0.4,2-0.1,3.1-1.8,4.4c-2,1.5-2.1,2-1.1,3.3c1.7,2.1,0.6,3.6-2.1,2.9c-2.9-0.7-4.9-2.3-4.2-3.3c0.3-0.5-0.2-1.2-1.1-1.7
		c-1.2-0.7-1.5-1.9-1.2-4.6c0.3-2.9,0-3.8-1.4-4.2c-1.8-0.6-1.9-1-2.4-7.5c-0.1-2-1-6.4-2-9.8c-1.4-5-2-6-3.1-5.1
		c-0.8,0.6-1.4,2-1.4,3s-0.4,2.1-1,2.4c-0.6,0.3-1,1.4-1,2.4s-0.6,2.3-1.4,3s-1.2,2.1-0.9,3.2c0.4,1.4-0.1,2.4-1.2,3.1
		c-1.2,0.7-1.6,1.7-1.1,3.4c0.4,1.7,0,3-1.5,4.5c-1.6,1.6-1.8,2.4-0.9,3.5c1.6,1.9,0.5,4.4-1.8,4.4c-2.8,0-3.4,1.1-1.6,3.1
		c2,2.2,1.1,3.9-2.1,3.9c-1.5,0-2.6,0.7-3,2c-0.6,1.8-1.3,2-6.8,1.8c-6.1-0.3-6.2-0.3-6.1-3.3c0-1.7,0.4-3.8,0.9-4.8
		c0.6-1.4,0.3-1.8-1.8-1.8c-3.9,0-4-1.5-0.6-5.4l3.1-3.6h-2.5c-3.8,0-4.2-1.8-1.1-5.1l2.8-2.9h-3.7c-4,0-4.9-1.7-2.1-4.1
		c1.4-1.2,1.4-1.4-0.2-2.6c-1.5-1.1-1.6-1.7-0.6-3.3c1.6-2.6,1.6-2.7-0.8-3.3c-1.8-0.5-1.9-1.1-1.4-4.6c0.8-5.3-0.9-5.4-3.5-0.2
		c-1.1,2.1-2.7,4.2-3.6,4.5c-1.3,0.5-1.5,1.4-1,4.5c0.6,3.7,0.5,3.9-2.4,4.9c-3.5,1.2-3.5,1.2-1.9,4.6c1.3,2.9-0.2,5.6-3.2,5.6
		c-3.1,0-3.3,2.1-0.6,4.6c1.4,1.3,2.6,2.8,2.6,3.4c0,1.2-3.4,3-5.8,3c-1.8,0-1.9,0.5-1.4,5.8c0.6,6.5-0.7,10.2-3.6,10.2
		c-1,0-2.9,0.8-4.2,1.9c-1.3,1-3.8,2.2-5.6,2.6c-4.6,1-5.4-1.6-1.7-5.5c2.7-2.9,2.8-2.9,0.6-2.9c-3.2,0-4-2.9-1.3-5.1
		c2.8-2.3,2.7-2.9-0.4-2.9c-3,0-4.2-2.4-2.4-4.5c1-1.2,0.9-1.8-0.6-2.9c-1.8-1.3-1.8-1.5-0.1-3.3c1.7-1.9,1.7-2-0.4-2.5
		c-2-0.5-2.1-1-1.5-5.2c0.8-5.6-1-5.8-3.5-0.5c-0.9,1.8-2.7,4.1-4,5.1c-2.2,1.7-2.3,2-0.9,4.5c1.3,2.4,1.3,2.8-0.5,4.1
		c-1.1,0.8-2.5,1.4-3.2,1.4c-1,0-1.2,1-0.7,4c0.6,3.9,0.5,4-3.1,5.6l-3.8,1.6l2.8,2.9c3.4,3.5,2.8,5.7-1.7,6.2
		c-3.5,0.3-3.5,0.2-2.2,8c0.6,3.3,0.4,3.7-1.7,4c-1.5,0.2-2.5,1.1-2.7,2.5c-0.2,1.2-1.2,2.4-2.3,2.7c-1.7,0.4-1.9,1.1-1.4,3.5
		c0.4,1.7,0.2,3.2-0.4,3.6c-0.6,0.4-1.1,1.5-1.1,2.6c0,1.2-1.4,2.8-3.6,4.1l-3.6,2.1l2.2,2.3c2.3,2.5,1.9,4.4-1,4.4
		c-1,0-2.4,0.7-3.1,1.5c-1.1,1.3-1.4,1.2-2.6-1.1c-0.7-1.4-1.1-3-0.9-3.4c0.3-0.4-0.2-2.1-1-3.6c-0.8-1.6-1.5-3.8-1.5-4.9
		c0-3.1-1.1-6.5-2.1-6.5c-0.5,0-1.4,1.2-2.1,2.8c-1.6,3.8-1.5,3.7-4.5,2.2c-4.8-2.4-5.3-3-4.2-5c0.7-1.4,0.6-2.1-0.7-2.8
		c-1.3-0.7-1.5-1.8-1-4.7c0.8-5-0.6-7.5-4.3-7.5c-3.5,0-3.9-1.9-1-4.5c2.6-2.3,2.6-3.8,0-3c-1.1,0.4-2.7,0.1-3.5-0.6
		c-1.3-1.1-1.3-1.5,0.2-3.1c1.6-1.8,1.6-2-0.2-3.3c-1.8-1.3-1.8-1.5-0.2-3.3c1.7-1.8,1.6-2-0.9-3.1c-1.9-0.9-2.4-1.6-1.9-2.9
		c0.4-0.9,1-2.8,1.2-4.1c0.8-3.5-1.9-2.3-3.9,1.8c-0.9,1.8-2.7,4.1-4,5.1c-2.1,1.6-2.2,2.1-1.2,3.8c1.6,2.7,0.8,4.4-2.7,5.8
		c-2.8,1.1-2.9,1.2-1.7,4.3c1.3,3.5,0.2,5-4,5c-3.4,0-3.8,1.9-0.9,4.9c3.5,3.7,3.3,5.1-0.8,5.1c-3.8,0-5.2,2-3.6,5
		c2.6,4.8,0.1,12-4.1,12c-1.6,0-3.9,1.9-3.9,3.2c0,0.4,1.6,2.6,3.7,4.8c4.4,4.9,3.8,5.9-3.7,6.2c-5.7,0.2-6.1-0.2-4.8-5.3
		c0.3-1-0.5-1.6-2.4-1.8c-3.4-0.4-3.4-1.2-0.2-4.2c3.2-3,3.2-5,0-5s-3.2-1,0-4c2.7-2.6,2-3.9-2.3-4c-2.7,0-2.9-1.5-0.5-3
		c1.6-1,1.6-1.1-0.2-2.6c-1.7-1.3-1.8-1.8-0.8-3.5c1.6-2.6,1.6-2.7-0.8-3.3c-1.9-0.5-2-1-1.4-5.1c0.6-4.2,0.5-4.6-1.5-4.6
		c-1.5,0-2.6,1-3.7,3.6c-0.8,2-2.7,4.6-4.1,5.8c-2.3,2-2.4,2.5-1.3,4.6c1.1,2,1,2.5-0.6,3.7c-1,0.7-2.4,1.3-3.1,1.3
		c-1.7,0-1.7,2.4-0.1,5c1.5,2.4-0.2,3.9-4.5,3.9c-3,0-3.7-2-1.3-4c1.8-1.5,1.1-3-1.6-3c-1.8,0-1.9-0.4-1.3-4.4
		c1.1-7.1-1.8-7.1-5.4,0c-1.2,2.3-2.8,4.4-3.7,4.8c-1.3,0.5-1.5,1.4-1,4.2c0.6,3.3,0.4,3.6-2.4,4.7c-2.5,0.9-3,1.6-2.5,3.2
		c1.5,4.6,1,5.8-2.3,6.7c-3.9,1-4.1,2.6-0.8,5.8c3,2.8,1.8,5-2.7,5h-3l0.8,4.8c1.4,8.5,0.5,10.6-4.5,11.8c-1.6,0.3-3.4,1.3-4.1,2.1
		c-1.5,1.8-3.9,0.1-3.9-2.7c0-1.6-1.7-6.5-2.7-7.9c-0.2-0.2-1,0.6-1.9,1.8c-1,1.4-2.4,2.1-3.7,1.9c-2.2-0.3-2.4-1.3-1.1-5.5
		c0.5-1.8,0.1-2.6-2.4-4c-1.7-1-3.6-3-4.2-4.4c-1.7-4.2-4.7-6.5-6.7-5.1c-1.8,1.1-2,3-0.7,7.6c0.7,2.5,0.5,2.8-2.4,3.4
		c-2.8,0.6-3.1,1-2.6,3c0.4,1.4,0,3.3-0.9,4.6c-0.8,1.2-1.5,2.9-1.5,3.7s-1.2,2.5-2.7,3.7c-2.4,1.9-2.6,2.5-1.6,4.7
		c1.3,2.8,0.1,4.7-2.9,4.7c-2,0-2.3,2.1-0.8,5c1.2,2.2-1,5-4,5c-3.1,0-3.4,2-0.6,4.9c2,2.1,2.3,3,1.4,3.9c-0.7,0.7-2,1.2-2.9,1.2
		c-2.4,0-3.8,2.2-2.9,4.5c1.3,3.1,1.1,7.9-0.4,9.9c-1.3,1.7-1.4,1.7-3.4,0.1c-1.6-1.4-1.9-2.6-1.5-5.6c0.4-3.1,0.2-3.9-1.1-3.9
		c-2.2,0-2.7-1.2-3.2-7.2c-0.2-2.9-1.3-8.1-2.3-11.7l-1.8-6.4l-2.2,2.8c-1.2,1.5-2.2,3.3-2.2,4s-0.7,1.8-1.5,2.5s-1.5,2.2-1.5,3.3
		c0,1.6-0.3,1.8-1.2,0.9c-0.7-0.7-2.2-1.2-3.5-1.2c-3,0-2.9-1.8,0.3-5.1c2.8-2.9,2.4-5.4-0.6-4.4c-2.9,0.9-3.2-1-0.5-3.5
		c3.2-3,3.1-4-0.5-4c-3.2,0-3.9-1.7-1.8-3.9c1-1,0.9-1.5-0.7-2.7c-1.8-1.3-1.8-1.5-0.2-3.3c2.2-2.4,2.1-3-0.6-3.4
		c-2-0.3-2.2-0.8-1.9-5.2c0.3-4.3,0.1-4.8-1.5-4.5c-1,0.2-2.6,1.9-3.6,3.8s-2.7,4.3-3.9,5.2c-1.7,1.4-2,2.4-1.5,5.1
		c0.6,3.1,0.4,3.5-2.4,4.4c-3.3,1.1-3.7,2.2-1.8,5.1c1.4,2.3-0.3,5.1-3.3,5.1c-3.1,0-3.3,2-0.4,5c3.1,3.3,2.6,5-1.5,5
		c-3.8,0-4.5,1.3-3,6.3c2,7.1-0.1,10.2-8.5,12.3c-1.8,0.4-2.5,0.2-2.5-0.9c0-1.7-4.3-2.8-8.1-2.1c-3.3,0.6-10.1,8.6-9.3,10.8
		c0.4,1-0.2,1.8-1.7,2.4c-1.7,0.6-2.3,1.7-2.4,3.8c0,2.2-0.6,3-2.3,3.2c-2.6,0.4-2.9,2.4-0.8,4.2c2.3,1.9,1.8,3-1.2,3
		c-2.5,0-3-0.6-4.8-6.2c-1.2-3.5-2.7-6.2-3.4-6.2s-2.9,2.2-4.8,5c-3.8,5.6-5.8,6.6-6.7,3.6c-0.4-1.1-1.1-2.1-1.6-2.1
		s-0.9-0.6-0.9-1.3c0-1.4-4.7-6.3-5.3-5.6c-1.3,1.7-4.7,11.7-4.7,13.8c0,4.1-1.3,5.2-6.1,5.4c-5.8,0.3-5.9-2-0.2-4.7
		c2.3-1.1,4.2-2.6,4.2-3.3c0-1.6-4.2-3.2-8.6-3.2c-4.2,0-4.4-1.2-0.4-4c3.7-2.6,3.4-4.1-0.9-5.2c-4-1-4-2.2-0.2-4.4
		c4.1-2.4,3.8-4.2-1-5c-2.2-0.4-4.3-1.1-4.6-1.6s0.2-2.7,1.2-4.9c1.4-3.1,1.5-4.4,0.6-6.4c-2.2-4.9-6.7-2.7-10.3,5.1
		c-1.4,2.9-3,4.6-5,5.3c-3.9,1.3-4.7,3.7-2.5,7.5c1.7,2.9,1.7,3.1,0,4.3c-1,0.7-3.5,1.3-5.6,1.3c-4.5,0-4.8,1.2-1.6,6.6
		c2.1,3.6,2.1,3.7,0.3,5.1c-2.2,1.6-3.4,1.7-5.5,0.4c-1.2-0.8-1.2-1.2-0.2-2.2c1.8-1.8,1.6-2.4-1.4-3.7c-2.1-1-2.5-1.7-2-3.7
		c0.4-1.7,0.2-2.7-0.9-3.1c-0.8-0.3-1.5-1.2-1.5-1.9c0-2.8-7.7-14.5-9.5-14.5c-1.4,0-4.7,9.8-5.2,15.3c-0.4,4.8-1,5.7-3.5,5.7
		c-1.7,0-2,0.6-1.7,3.2c0.2,2.4-0.1,3.3-1.4,3.6c-1.2,0.2-1.6-0.1-1.2-1.2c0.8-2-3.5-7.5-5.9-7.5c-1.9-0.1-2.3-1.6-0.7-2.6
		c1.5-0.9,0.2-2.5-2-2.5c-2.5,0-3.5-1.7-1.9-3.6c1-1.3,0.9-1.6-0.9-2.1c-2.2-0.6-3.8-3.6-2.8-5.2c0.3-0.5-0.1-1.5-0.9-2.1
		c-0.8-0.7-1.5-1.9-1.5-2.6c0-1.9-1.8-4.9-5.9-10.2c-3-3.8-3.5-4.1-4.6-2.7c-1,1.4-1.8,1.5-5.6,0.4c-6.5-1.7-7.1-2.5-6.8-8.9
		l0.3-5.6l-3.8-0.3c-4.4-0.4-4.8-1.8-1.1-4.7c3-2.4,2.5-4.5-1.1-4.5c-3,0-4.8-2.1-3.5-4c1.6-2.5,1.1-4-1.4-4c-2.7,0-5.3-2.4-3.7-3.5
		c1.9-1.1,1.1-3.5-1.4-4.7c-1.4-0.6-3.4-2.6-4.5-4.5c-1.3-2.1-2.7-3.3-4.1-3.3c-1.9,0-2.1,0.4-1.4,4c0.6,3.6,0.5,4-1.4,4
		c-2.7,0-3.5,1.5-1.5,3.1c1.4,1.2,1.4,1.4-0.2,2.6c-1.4,1-1.5,1.6-0.6,2.5c1.9,1.9,1.4,2.8-1.7,2.8c-4,0-4.6,1.4-1.5,3.4
		c2.8,1.8,2.3,4-0.7,3.2c-3.1-0.8-3.1,1,0.1,3.7c3.7,3.1,3.7,3.7,0.1,3.7c-1.6,0-3.2,0.5-3.6,1c-0.6,1.1-4.5-3-4.5-4.8
		c0-1.7-5-5.7-5.8-4.7c-1.4,1.6-3.9,9.7-4.6,14.7c-0.5,3.7-1.2,5-2.9,5.7c-1.8,0.7-2.2,1.5-1.9,3.7c0.3,2.1-0.2,3.2-1.8,4.2
		c-1.9,1.1-2.3,1.1-3.6-0.5c-0.8-1-1.2-2.9-1-4.3s0.6-3.4,0.8-4.4c0.2-1.4-0.5-2.1-2.9-2.8c-4.5-1.2-4.9-2.4-1.6-5.2
		c3-2.6,2.9-2.7-2.9-4c-2.9-0.6-3.7-3.2-1.6-5.3c0.9-0.9,0.3-1.5-2.5-2.7c-3.3-1.4-3.6-1.8-3.1-4.4c0.5-2.3,0.2-3-1.5-3.5
		c-1.1-0.4-3-2.2-4.1-4c-3.6-5.9-7.5-5.8-6.4,0.1c0.6,3,0.4,3.6-1.5,4c-2.4,0.6-2.6,1.4-0.9,3.2c1,1,0.9,1.5-0.6,2.3
		c-1.4,0.8-1.5,1.3-0.7,2.4c1.6,1.9,0.4,3.5-2.6,3.5s-3.3,2.5-0.4,3.3c1.1,0.3,2,1,2,1.6c0,1.4-1.7,1.4-2.5,0
		c-0.4-0.6-1.7-1.5-3.1-2c-1.8-0.7-2.4-1.7-2.4-3.9c0-1.7-0.5-3-1-3s-1-0.7-1-1.6c0-2.1-8.1-14.4-9.5-14.4c-0.6,0-1.6,1.5-2.4,3.2
		c-0.7,1.8-1.7,4-2.2,5s-0.9,3.1-0.9,4.7c0,4.8-0.9,6.1-4.4,6.1c-1.7,0-3.8-0.5-4.6-1c-1.2-0.8-0.8-1.6,2.4-4.4
		c4.5-3.9,4.4-6.6-0.2-6.6c-5.5,0-7-3.6-5-12c0.2-1.1-0.8-1.6-3.6-2c-4.8-0.6-5.6-2.3-2.1-4.6c3.1-2,3.4-4.4,0.5-4.4
		c-1.1,0-2.9-0.5-4-1c-1.6-0.9-1.7-1.4-0.9-3.1c1.4-2.7,0.6-4.7-2.3-5.1c-2-0.3-2.3-0.8-2-3.6c0.2-2.6-0.2-3.5-2-4.3
		c-1.3-0.6-3.2-2.5-4.3-4.3c-1.2-1.8-2.9-3.2-4-3.2c-1.7,0-1.9,0.6-1.7,3.8c0.2,2.8-0.1,3.8-1.2,3.8c-2,0-3.1,1.9-1.7,3.3
		c2,2,1.2,2.8-2.6,2.5c-2.9-0.2-3.7-0.7-3.5-2.1c0.1-1,0.4-2.5,0.5-3.5c0.2-1.2-0.5-1.9-2.2-2.1c-3.5-0.5-4.4-1.6-3.1-4
		c0.9-1.7,0.7-2.4-1.9-4.2c-1.7-1.2-3.7-3.5-4.6-5.1c-1.1-2.2-2.1-2.9-3.7-2.7c-2.3,0.3-2.7,2.5-1.2,6c0.6,1.3,0.1,1.9-1.9,2.4
		c-3,0.8-3.2,1.3-0.9,2.9c1.5,1.1,1.5,1.3-0.6,2.4c-2.2,1.2-2.2,1.3-0.5,3.1c1.7,1.9,1.6,1.9-1.4,1.9c-3.9,0-5,1.7-2.3,3.6
		c2.8,2,2.7,3.5-0.3,2.8c-3.4-0.9-4.2,1.3-1.5,4.1l2.3,2.4h-3.1c-1.9,0-3.5-0.7-4.4-2c-0.8-1.1-2.4-2.2-3.7-2.5
		c-6.6-1.2-8.5-4.1-6.4-9.6c1.3-3.5,0-4.9-4.4-4.9c-4,0-4.4-2.1-0.8-4c3.3-1.8,3.2-3.8-0.2-4.6c-5.1-1.1-5.5-1.4-4.7-3.2
		c1.3-3.2,1-4.7-1-5.1c-3.3-0.7-4.7-2.2-3.4-3.8c1.4-1.7,0.5-4.4-1.4-4.4c-0.8,0-2.6-1.8-4-4c-1.7-2.5-3.4-4-4.7-4
		c-1.9,0-2,0.4-1.4,4c0.6,3.5,0.4,4-1.2,4c-2.9,0-3.4,1.1-1.6,3.2c1.6,1.8,1.6,1.9-0.5,2.4c-2.5,0.6-2.7,1.4-1,3.1
		c1.7,1.7,0.7,2.2-3.4,1.6c-2.8-0.5-3.9-1.2-4.6-3.4c-1.7-4.8-10.7-17.4-14.6-20.4c-2-1.6-6-3.7-8.8-4.8c-4.9-1.9-5.3-1.9-12-0.1
		c-5.8,1.5-7.7,2.6-12.3,7c-5.4,5.2-9.1,6.3-7.9,2.3c0.7-2.1-8.4-12-11-12c-1.4,0-1.5,0.7-1,3.9c0.6,3.4,0.4,3.9-1.6,4.4
		s-2.1,0.8-0.9,2.2c1.2,1.4,1.1,1.8-0.5,3.1c-1.5,1.1-1.6,1.7-0.7,2.6c1.9,1.9,1.4,2.8-1.8,2.8c-3.5,0-3.8,1.2-0.8,3.2
		c2.5,1.7,1.6,4.2-1.2,3.3c-3.2-1-3.2,1.3,0,3.6c1.7,1.2,3,2.6,3,3.1c0,1.3-4.6,1-8.2-0.6c-1.8-0.8-4.6-1.8-6.2-2.3
		c-3.5-1-4.6-4.3-3.2-9.1c1.2-3.8,0.8-4.4-3.5-4.9c-4.8-0.6-5.4-1.8-1.9-4.3s3.3-3.6-1-4.6c-3.5-0.8-4.7-2.8-2.9-5
		c1.6-1.9,0.5-3.5-2.5-3.5c-2.8,0-4.2-1.7-2.6-3.3c1.7-1.7,1.3-3.5-0.9-4.2c-1.1-0.4-3.2-2.4-4.6-4.6c-3.2-5.1-6-5-5.6,0.3
		c0.2,3.2,0,3.7-2.4,4.3c-2.6,0.6-2.6,0.7-0.8,2.7c1.8,2,1.8,2.1,0,3c-1.7,1-1.7,1.1-0.1,2.9c1.8,2,1.3,2.4-2.7,2
		c-2.8-0.3-3,1.8-0.4,3.5c2.9,1.9,2.5,3.4-1,3.4c-3.1,0-3.1,1.3,0.1,3.8c3.3,2.6,3.2,4.2-0.5,4.2c-3.3,0-3.8,1.1-1.5,3
		c1.8,1.5,1.9,3.6,0.4,4.6c-0.6,0.4-3.6,0.6-6.7,0.5c-4.3-0.1-5.9-0.6-6.9-2.2c-0.9-1.3-2.1-1.8-3.2-1.4c-2.4,0.8-3.4-0.9-1.5-2.5
		s1-3-2.1-3c-2.5,0-3.2-1.8-1.4-3.7c0.7-0.7,0.3-1.6-1.5-2.7c-1.9-1.3-2.4-2.2-2-4c0.4-1.6,0.1-2.5-1.1-3c-1.1-0.4-1.4-1.3-1-2.6
		c0.4-1.1,0.2-2-0.4-2s-1.8-1.7-2.7-3.8c-2.9-6.3-7.4-10.4-7.4-6.7c0,0.8-0.5,2.4-1,3.5c-0.6,1.1-1.5,2.9-2,4c-0.6,1.1-1,3.7-1,5.8
		c0,4.2-0.7,5.6-3.3,6.6c-1.3,0.5-1.6,1.3-1.2,3.1c0.8,3.3-2.1,7.6-5.1,7.6c-1.7,0-2.2-0.4-1.8-1.9c0.3-1.3-0.2-2-1.6-2.4
		c-1.5-0.4-2.1-1.3-2.1-3.5c0-1.8-0.6-3.2-1.6-3.6c-1-0.4-1.4-1.3-0.9-2.6c0.4-1.1,0.2-2-0.4-2s-1.8-1.7-2.7-3.8
		c-1.8-4-5.2-8.2-6.5-8.2c-0.4,0-1.1,1.7-1.5,3.8s-1.1,4.3-1.6,5s-1.2,3.3-1.4,5.9c-0.2,2.6-0.7,5.1-1,5.5c-0.7,1.2-5.2-2-5.9-4.2
		c-0.4-1.2-1.5-1.9-3-1.9c-2.9,0-3-0.7-0.8-3.1c1.5-1.7,1.4-2-2.5-5.7c-3.5-3.3-4.3-5-5.4-10.3s-1.7-6.5-4-7.6
		c-1.5-0.7-2.8-2-2.8-2.9s-1-2.7-2.2-4c-1.7-1.8-1.9-2.6-1-3.5c1.7-1.7,1.5-2.5-1-3.1c-2.1-0.6-2.1-0.6-0.4-2.5s1.7-2-0.3-2.6
		c-1.5-0.5-1.9-1.2-1.5-2.5c0.3-1,0.1-2.1-0.5-2.5s-0.9-1.3-0.6-2s-0.1-1.8-0.8-2.4c-0.7-0.6-1.1-2.2-0.8-3.6c0.6-3.3-1.7-3.3-4.6,0
		c-1.2,1.4-2.7,2.5-3.2,2.5c-0.6,0-0.9,1-0.8,2.2c0.2,1.7-0.2,2.3-1.9,2.6c-1.7,0.2-2.1,0.9-2,3s-0.3,2.8-2.1,3
		c-2.7,0.4-2.8,0.9-0.7,3.3c2.1,2.3,0.9,4.1-2.3,3.3c-2.5-0.6-2.5-0.5-1.9,3.2c0.7,4.2-0.5,7.1-2.3,6c-0.6-0.4-1.1-1.6-1.1-2.6
		s-0.5-1.9-1-1.9c-0.6,0-1-0.8-1-1.9c0-1-0.7-2.4-1.5-3.1c-0.8-0.7-1.5-1.8-1.5-2.4c0-0.6-1.4-2.9-3.1-5c-2.4-2.9-3.3-3.5-4-2.5
		c-1,1.6-3.4,9.7-4.6,15.3c-0.6,3.1-1.4,4.1-3.1,4.3c-1.8,0.3-2.2,0.9-2.1,3c0.3,4.2-1.1,7.1-3.7,7.8c-1.9,0.5-2.3,1.1-1.8,3
		c0.5,2,0.2,2.4-1.5,2.4c-1.2,0-2.4-0.8-2.8-1.8c-0.3-1-1.2-2.5-2-3.3c-0.7-0.9-1.8-3.8-2.3-6.5c-1.2-6.3-2.8-10.4-4-10.4
		c-0.5,0-2.4,2.4-4.2,5.2c-5,7.9-6.5,8.2-8.9,2.2c-1.3-3.2-5.6-8.3-6.3-7.4c-0.7,1.1-4.8,13.7-4.6,14.5c0.6,3.3-0.3,5.6-2.6,6.4
		c-2.2,0.8-2.5,1.4-1.9,4c0.4,1.7,0.2,3-0.3,3s-1.2,0.9-1.5,2c-0.7,2.5-4.7,2.8-4.7,0.2c0-1-0.9-2.3-2-3c-1.2-0.8-2-2.3-2-4.1
		c0-1.6-0.6-3.1-1.5-3.5c-0.8-0.3-1.2-1.2-1-1.9c0.3-0.8-0.2-2-1-2.7c-0.9-0.7-1.5-1.9-1.5-2.6s-0.3-1.4-0.8-1.6
		c-0.4-0.2-1.5-1.7-2.4-3.3c-0.9-1.7-2.2-3-2.9-3c-1.2,0-6.1,11.8-5.8,13.9c0.7,6.1-1.8,7.3-5.3,2.6c-1.4-1.8-3.1-3-4.5-3
		c-2.4,0-3.1-1.4-1.3-2.5c1.6-1,1.2-2.5-0.8-2.5c-1,0-2.4-0.4-3.2-0.9c-1.2-0.8-1.2-1.2-0.1-2.5c1.1-1.4,1-1.9-0.9-3.7
		c-1.2-1.1-2-2.7-1.7-3.4s-0.1-1.9-0.9-2.5s-1.4-1.8-1.4-2.6s-1.1-2.9-2.5-4.7s-2.5-3.7-2.5-4.3c0-0.5-1-2-2.3-3.2l-2.3-2.2
		l-2.1,6.3c-1.2,3.4-2.4,8-2.8,10.1c-0.4,2.6-1.2,4-2.6,4.4c-1.4,0.4-1.9,1.4-1.9,3.5c0,3-2.2,5.6-4.8,5.7c-1.7,0-1.6-2.5,0.3-4
		c1.4-1.1,1.2-1.6-1.1-4c-1.7-1.8-3.3-2.6-4.5-2.2c-2.1,0.6-2.5-0.7-0.8-2.4c1.6-1.6,0.2-3.3-2.7-3.3c-2.7,0-3.1-0.9-1.3-2.8
		c0.9-0.9,0.7-1.7-1-3.5c-1.2-1.3-2.2-3.3-2.2-4.4s-0.7-2.3-1.6-2.7c-0.9-0.3-1.3-1-1-1.5s-0.3-2.4-1.4-4.3c-1.1-1.8-2.3-4-2.7-4.8
		c-0.9-2.1-3.5-5-4.5-5c-0.5,0-0.8,0.7-0.8,1.5c0,1.7-1.3,1.9-3.8,0.6c-1-0.5-3-1.2-4.5-1.5s-3.5-1.7-4.3-3c-1.3-2-1.4-3-0.4-6
		c1.5-4.4,0.8-5.6-3.5-5.6c-5.5,0-5.5-1.7,0-5.5c2.4-1.7,1.7-2.5-2.7-3.5c-3.3-0.7-3.8-1.9-2.7-6c0.3-0.9-0.7-1.7-2.9-2.1l-3.2-0.7
		v387.7h1564L1735.9,984.6L1735.9,984.6z M973,1071.3c0-0.8,0.7-1.5,1.5-1.5s1.5,0.7,1.5,1.5s-0.7,1.5-1.5,1.5
		S973,1072.2,973,1071.3z M1041.7,1044.1c-0.2-0.4-0.8-2.3-1.2-4.2l-0.7-3.5l2.6,2.4c2.8,2.6,3.5,6.1,1.2,6.1
		C1042.8,1044.8,1042,1044.5,1041.7,1044.1L1041.7,1044.1z M867.4,1022.3c-0.3-0.8,3.4-3.6,6.9-5.3c1-0.5,0.9,1.2-0.3,4.3
		c-0.8,2.1-1.6,2.6-3.7,2.3C868.9,1023.5,867.5,1022.9,867.4,1022.3L867.4,1022.3z M1078.2,1020.8c0.2-0.6,0.8-1.1,1.3-1.1
		s1.1,0.5,1.3,1.1c0.2,0.6-0.4,1.1-1.3,1.1S1078,1021.3,1078.2,1020.8z M828.2,1003.8c0.2-0.6,0.8-1.1,1.3-1.1s1.1,0.5,1.3,1.1
		s-0.4,1.1-1.3,1.1C828.6,1004.8,828,1004.3,828.2,1003.8z M1257,937.8c0-0.5,0.7-1,1.6-1s1.3,0.5,0.9,1c-0.3,0.5-1,1-1.6,1
		C1257.5,938.8,1257,938.4,1257,937.8z M1338.2,930.1c-0.4-3.7,0.6-4,3.9-1.4c2.8,2.3,2,5.4-1.3,5
		C1339.1,933.4,1338.5,932.6,1338.2,930.1L1338.2,930.1z M1380.1,929.9c-1.8-1.2-0.8-3.6,2.3-5.6c1.9-1.2,3.2-1.4,5.3-0.7
		c4.3,1.4,3.7,4.4-1.2,5.9C1381.5,931,1381.8,931,1380.1,929.9z M533,927.4c0-1.7,2.7-2.9,3.5-1.6c0.3,0.5,0.3,1.4,0,2
		C535.6,929.3,533,929,533,927.4z M482.3,925.2c-3.1-0.8-2.8-3,0.5-3.7c2.7-0.5,8.3,1.9,8.3,3.5C491,926,485.5,926.1,482.3,925.2
		L482.3,925.2z M1378,920.5c0-2.2,6.7-4.9,9.1-3.7c2.2,1.2,2.6,3.5,0.7,4.3C1385,922.3,1378,921.8,1378,920.5z M482.6,917.9
		c-1-1.7,2.6-2.9,5.1-1.8c1.3,0.6,2.3,1.4,2.3,1.9C490.1,919.1,483.3,919.1,482.6,917.9L482.6,917.9z M1444,899.8c0-0.5,0.5-1,1.1-1
		s0.8,0.5,0.4,1s-0.8,1-1.1,1C1444.2,900.8,1444,900.4,1444,899.8z M260,888.8c0-0.5,0.2-1,0.4-1c0.2,0,0.7,0.5,1.1,1
		c0.3,0.5,0.1,1-0.4,1C260.5,889.8,260,889.4,260,888.8z M1581,885.8c-2.7-2.7-2.5-3.3,0.8-2.5c3.4,0.8,4.7,2,3.8,3.5
		C1584.6,888.3,1583.3,888.1,1581,885.8L1581,885.8z M1579.5,879.7c-1-1.6,1.7-3,3.3-1.7c0.7,0.6,1,1.5,0.7,1.9
		C1582.7,881.2,1580.3,881,1579.5,879.7z M221.1,873.8c0-0.5,0.7-1,1.5-1s1.5,0.5,1.5,1s-0.7,1-1.5,1S221.1,874.4,221.1,873.8z
		 M1615.6,870.1c-1-1.6,0.6-4.1,2.5-4.1c2.6,0,3.2,1.6,1.4,3.4C1617.7,871.2,1616.4,871.4,1615.6,870.1L1615.6,870.1z M1534,864.4
		c0-0.9,0.5-1.4,1.2-1.2c1.9,0.6,2.2,2.8,0.4,2.8C1534.7,866,1534,865.3,1534,864.4z M189.5,834.1c0-0.7,1.9-2.5,4.2-3.9
		c4.6-2.7,5.3-2.1,3.3,3.2c-0.8,2.2-1.5,2.6-4.2,2.3C190.9,835.6,189.5,834.9,189.5,834.1L189.5,834.1z M1730,801.5
		c0-1.6,3.5-2.1,4.4-0.6c0.7,1.2-0.4,2.1-2.6,2.1C1730.8,803,1730,802.3,1730,801.5L1730,801.5z M174,787.5c0-0.8-0.4-1.7-1-2.1
		s-1,0.3-1,1.4s0.4,2.1,1,2.1S174,788.3,174,787.5z M1735.5,787c0.3-0.5,0.1-1-0.4-1s-1.1,0.5-1.1,1s0.2,1,0.4,1
		C1734.7,788,1735.2,787.5,1735.5,787z"/>
	<path id="path3133_00000158724582894059544680000017377502025918901634_" class="st8" d="M1736.7,838.3l0.1,170.8v170.8
		c-36.9,0-72.7,0.2-107.5,0.5H819.7c51.7-28.3,112.2-65.1,179.2-112.2c61.1-3.7,12.1-7.7,14.2-7.7c2.7,0,5.8-11.7,5.1-14.3
		c-0.4-1.5,0-2.2,1.7-2.6s2.1-1.1,1.6-2.8c-0.4-1.5,0.1-2.9,1.6-4.4c1.2-1.2,2.7-3,3.2-4c1.5-2.6,3.8-1,3,2.1
		c-0.5,1.9-0.2,2.4,1.4,2.4c1.1,0,2.3-0.7,2.6-1.5c0.8-2,2.9,0.1,3.6,3.6c0.4,1.9,0.1,2.5-0.8,2.1c-0.9-0.3-1.3,0.3-1.3,1.6
		c0,2.7,3.9,4.3,9.4,3.9l4.1-0.3l-0.2-5c-0.2-4.6-0.1-4.8,1.2-3c0.8,1.1,1.5,4.1,1.5,6.7v4.8h6c5.3,0,6-0.2,6-2c0-1.4,0.7-2,2.2-2
		c1.2,0,3.7-1.6,5.6-3.8c3.3-3.6,3.5-3.7,4.8-1.8c0.8,1.1,1.4,2.8,1.4,3.8s0.7,1.8,1.5,1.8s2.4,0.9,3.5,2c2.7,2.7,13,2.9,13,0.3
		c0-0.9,0.7-2.2,1.7-2.8c2.2-1.6,1.1-4.3-2.1-5.5c-1.7-0.7-2.5-1.7-2.5-3.4c0-1.3-0.3-3.8-0.6-5.5c-0.6-2.9-0.9-3.1-5-3.1
		c-2.4,0-4.4-0.4-4.4-0.9s-1-1.1-2.2-1.4c-1.6-0.3-1.4-0.5,1-0.6c3.6-0.2,4.7-1.6,5.8-7.4c0.4-2.1,1.1-3.7,1.5-3.7
		c1.1,0,3,6.8,2.3,8.5c-0.3,0.7,0,1.6,0.6,2c0.6,0.4,1.1,1.8,1.1,3.1s0.6,2.4,1.2,2.4c0.7,0,1.3,1.5,1.4,3.7c0.1,2,0.9,4.2,1.8,4.8
		c0.9,0.6,1.6,1.7,1.6,2.3c0,2.1,4.9,1.3,6.1-1c2.1-3.9,2.8-7.8,1.9-10.8c-0.8-2.8-0.7-3.1,3.6-4.9c4.9-2.2,4.8-2,3.4-5.6
		c-0.8-2.1-0.6-3.1,1-5.2c2.2-2.8,2.6-5.8,1-6.8c-0.6-0.4,0.1-1.5,1.8-2.8c1.5-1.2,3-2.2,3.2-2.4s-0.2-1.5-1-2.9
		c-1.3-2.4-1.2-2.7,1.3-4.6c1.6-1.2,2.7-2.9,2.7-4.3c0-1.3,1-3,2.2-3.8c1.8-1.2,2-1.8,1-2.8c-1.8-1.9-1.5-2.6,1.3-3.3
		c2.5-0.6,2.5-0.9,1.9-5.5c-0.4-2.9-0.3-5.1,0.3-5.5c1.2-0.7,3.7,1.6,5.6,5.3c0.8,1.5,2.6,3.5,4,4.4c2.2,1.4,2.4,2,1.4,4.1
		c-1.9,4.1-0.4,5.9,4.2,5.2l4-0.6v3.9c0,3.1,0.6,4.4,2.7,6.1c1.7,1.3,2.7,3.1,2.8,4.8c0,2.4,0.5,2.8,3.8,3c4.8,0.4,5.9-1.8,2.9-5.8
		c-1.2-1.6-2.1-3.3-2.1-3.8c0-1.6,6.8-3.4,8.8-2.3c1.5,0.8,2.4,0.5,4.5-1.9c2-2.2,3.5-3,6.1-3c3.1,0,3.5,0.3,3.5,2.5
		c0,1.5,0.6,2.5,1.4,2.5s1.7,1,2.1,2.2c0.6,1.9,0.8,2,1.2,0.5c0.3-1.1,1.4-1.8,2.9-1.8c1.9,0,2.4,0.5,2.4,2.5c0,1.4-0.5,2.5-1,2.5
		c-1.8,0-1,2.2,1,2.7c1.1,0.3,2.2,1.3,2.5,2.2s1.6,2.9,3,4.3c5,5.4,6.5,9.7,6.9,20.6c0.2,5.7,0.7,10.6,1,10.9s-0.1,2.1-0.8,3.9
		c-1.6,3.8-0.8,4.3,2.6,1.4c2-1.7,2.2-2.2,1.1-4c-0.7-1.1-1.2-3.6-1.2-5.6c0-2.7,0.4-3.5,1.8-3.5c1,0,1.8-0.6,1.8-1.2
		c0-0.7,0.6-3.8,1.2-7l1.2-5.8h3.9c2.8,0,3.9,0.4,3.9,1.5c0,0.8,0.9,2.1,2,2.8s2,2.2,2,3.4c0,1.3,0.8,2.3,2,2.7c1.4,0.4,2,1.4,2,3.1
		c0,2.1,0.5,2.6,2.5,2.6c1.4,0,2.5-0.5,2.5-1c0-0.6-0.9-1-2-1c-1.5,0-2-0.7-2-2.6c0-2.5,0.2-2.6,3.8-2.1c3.5,0.5,3.9,0.3,6.1-2.9
		c2-3.1,2.7-3.5,5.9-3.2c3.3,0.3,3.8,0.7,4.4,3.7c0.4,1.9,1.1,3.7,1.7,4s1.3,2.8,1.7,5.4c0.4,2.6,1.1,4.8,1.7,4.8
		c0.5,0,0.7,1.3,0.3,2.9c-0.5,2.4-0.3,3,1.4,3.6c1.1,0.4,2.1,1.5,2.1,2.6c0,1.7,0.7,1.9,5.9,1.9c5,0,6-0.3,6.4-1.9
		c0.4-1.5,1.5-2,4.8-2.2c4.1-0.3,4.4-0.5,4.7-3.6c0.2-1.8,0.8-3.3,1.5-3.3s2-1.4,2.9-3c1.5-2.7,2.2-3,5.5-2.8
		c3.6,0.3,3.8,0.5,4.1,4.1c0.2,2.1,0.8,3.8,1.3,3.8s0.8,0.4,0.5,0.8c-0.3,0.5,0.1,1.7,0.9,2.8c0.8,1,1.5,2.7,1.5,3.7
		c0,1.5,1,1.8,6,1.8c5.3,0,6-0.2,6-2c0-1.1,0.4-2,1-2c1.4,0,1.3-4.4-0.2-5.8c-0.9-0.9-0.6-1.2,1.5-1.2c1.5,0,2.7,0.4,2.7,1
		s0.8,1,1.8,1c1.5,0,1.8-0.9,1.9-6.2c0.1-8.9,1.2-12.8,3.5-12.8c1.5,0,1.9-0.7,1.9-3.5s0.4-3.5,1.9-3.5c1.4,0,2.1-1,2.6-3.5
		c0.4-2.1,1.3-3.5,2.1-3.5c0.8,0,2.1-1.3,3-3c1.3-2.6,2.1-3,5.6-3h4.1l-0.4,4c-0.3,3.6-0.2,4,1.9,4c2,0,2.3,0.5,2.3,4.8
		c0,3.7,0.5,5,2,6c1.5,0.9,2,2.3,2,5.2c0,2.9,0.4,4,1.5,4c2.3,0,1.8,3.8-0.9,6.7c-1.3,1.5-2.2,3.1-1.8,3.7c0.4,0.6,0.8,0.4,1-0.7
		c0.6-2.9,4.6-2.2,5.9,1l1.1,2.8l0.1-3.2c0.1-1.8,0.5-3.2,1.1-3.2c0.5,0,1-1.3,1-3c0-2.4,0.4-3,2.1-3c2.9,0,4.7-2.2,5.1-6.1
		c0.3-2.9,0.8-3.4,3.3-3.9c2.8-0.5,5.1-4,2.6-4c-0.6,0-1.1,0.7-1.1,1.5c0,0.9-0.9,1.5-2.5,1.5c-2,0-2.5-0.5-2.5-2.5
		c0-1.6,0.6-2.5,1.5-2.5c0.8,0,1.5-0.7,1.5-1.5s0.6-1.5,1.4-1.5c1.5,0,1.9-1,3.1-6.8c0.5-2.3,1.2-3.2,2.6-3.2s1.9-0.7,1.9-2.4
		c0-3.5,1-5.6,2.6-5.6c1,0,1.4-1.2,1.4-4c0-3.5,0.3-4,2.4-4c1.4,0,3-1,4-2.5c2.3-3.5,7.2-3.5,8.8,0c1,2.3,1.6,2.5,5.6,2.2
		c3.9-0.3,4.7-0.7,6.4-3.7c1.9-3.4,1.9-5.4,0.2-12.5c-1-4,1.2-5.5,7.6-4.8c6.5,0.6,6.6-0.9,0.5-6.7c-5.9-5.6-5.6-7.5,1.2-7.9
		c6.9-0.4,7.9-1.8,5.1-6.9c-3-5.5-2.1-7.3,3.7-7.3c4.6,0,5.8-1.3,3.5-3.7c-0.6-0.6-0.9-2.6-0.8-4.4c0.3-2.7,1-3.7,3.7-4.9
		c2.2-1,4.3-3.3,6-6.5c2-3.7,3.3-5,5.2-5.2c4.1-0.5,5.4,1.9,3.9,7.3c-1.4,5.2-0.9,7.5,1.9,7.5c5.6,0,6.8,3.1,2.1,5.5
		c-3.9,2-3.8,3.2,0.2,4.3c4.3,1.1,4.7,3.7,0.8,5.7c-4.1,2.1-3.9,3.1,0.9,3.2c4,0.2,8,1.7,8,3.1c0,0.4-2.1,2.3-4.6,4.2l-4.6,3.4
		l5.1,0.3c4.1,0.2,5.1,0.7,5.1,2.1c0,2-3.1,5.6-7,8.3c-2.1,1.4-2.3,1.9-1,2.8c3.9,2.7,14.6-0.5,13.7-4c-0.3-1.1,0.5-3,1.9-4.6
		c1.3-1.5,2.9-3.3,3.4-4c0.6-0.7,1.9-1.2,3-1.2c1.6,0,2,0.7,2,3.4c0,1.9,0.6,3.6,1.2,3.8c0.7,0.2,1.3,2.1,1.4,4.2
		c0.2,2.5,0.9,4.3,2.3,5.2c1.5,1,1.8,1.9,1.2,3c-0.7,1.2,0,2.4,2.6,4.9c1.9,1.8,3,3.3,2.4,3.3s-1.1,1.3-1.1,2.9
		c0,1.6-0.6,3.1-1.2,3.4c-0.7,0.3-0.1,0.6,1.4,0.6s3.4,0.4,4.2,0.7c1.2,0.5,1.6-0.1,1.6-2.6v-3.2l4.5,0.5c2.5,0.3,4.7,0.1,5-0.4
		s-0.2-0.9-1.1-0.9c-1.3,0-1.4-0.3-0.6-1.3c0.8-0.9,0.7-2.1-0.4-4.1c-2.7-5.3-1.6-6.6,5.7-6.6c5.1,0,6-2.1,3.1-7.1
		c-3-5.2-2.1-7,3.4-6.8c2.4,0.1,4.6,0,4.9-0.3s-0.2-1.9-1.2-3.7c-2.1-3.7-1.3-5.7,3.3-8.2c1.6-0.9,4.1-3.8,5.6-6.4
		c2.9-5.4,5-7,7.8-6.1s3.3,3.7,1.6,8.7c-1.7,4.9-1.2,5.8,3.5,6.8c4.4,0.9,4.7,2.7,1,4.9c-3.7,2.1-3.5,3.4,0.7,4.5s4,2.7-0.6,5.7
		l-3.8,2.4l6.2,1.1c7.3,1.3,8.1,1.9,6.5,4.5c-1.1,1.7-1,2,0.7,2c2.5,0,3.3-2.2,2.5-7.1c-0.6-3.5-0.4-3.9,1.4-3.9
		c3.1,0,3.8-2.1,1.2-4c-2.7-2-1.9-4,1.6-4c2.3,0,2.5-0.3,1.9-3c-0.6-2.6-0.3-3.1,1.8-3.9c1.7-0.7,2.3-1.5,2-2.8
		c-0.3-1.1,1.1-3.4,3.6-6.2c3.4-3.7,4.3-4.2,5.6-3.1c1,0.8,1.4,2.2,1,3.6c-0.4,1.5,0,2.6,1.1,3.2c1.1,0.6,1.7,2.3,1.8,5.2
		c0.1,3.4,0.6,4.4,2.2,5.1c1.4,0.5,2.5,0.3,3.3-0.7c0.7-0.9,3-1.4,5.6-1.4c6.1,0,8.4-2.5,8.4-9.1c0-2.8-0.7-6.4-1.5-8
		c-1.2-2.3-1.3-3.4-0.4-5.1c1-1.8,1.7-2.1,5.8-1.5c7.9,1,8.5-0.5,2.3-6.7c-3-3-5.1-5.9-4.7-6.5s2.5-1.1,4.7-1.1c7.2,0,9.7-3,6.3-7.4
		c-2.6-3.5-1.9-5.3,2.6-5.8c2.2-0.3,4.7-1.1,5.5-1.8c1.3-1.1,1.3-1.4,0.1-2.8c-3-3.3-2.4-6.9,1.3-8.2c2-0.7,3.9-2.7,6-6.3
		c2.9-5.2,5.9-7.4,8.2-5.9c0.8,0.5,0.9,2.7,0.5,7l-0.6,6.2l3.7,0.9c4.8,1.1,5.2,2.7,1.4,5c-3.7,2.2-3.5,3.5,0.8,4.8
		c4.1,1.2,4,2.9-0.3,5.6c-4.2,2.6-3.7,4,1.3,4c9.2,0,10.5,2.4,3.7,6.4c-2.5,1.5-4.5,3.1-4.5,3.6s2.2,1,4.9,1c2.7,0,5.3,0.5,5.7,1.2
		c0.5,0.7-1.5,3.2-5.2,6.5l-5.9,5.3h5.3c6.5,0,7.3,1.4,3.8,6.5c-4.7,6.9-3.3,9,6.4,9.9c3.6,0.3,7.5,0.9,8.8,1.2
		c1.9,0.5,2.2,0.2,2.2-2c0-3.3,1.4-3.3,4.2-0.1c2.9,3.3,4.3,3.2,5.8-0.5c1.5-3.6,2.8-3.7,6.4-0.9c1.5,1.2,4.8,2.4,7.3,2.7l4.7,0.5
		l-2.7-3.2c-1.5-1.8-4.6-4.8-7-6.8c-4.9-4.1-6.1-5.9-5.4-7.8c0.4-1.1,2.2-1.3,8.9-0.8c8.9,0.6,13.7,0,13.7-1.8
		c0-0.6-2.3-3.6-5.1-6.6c-3.8-4.2-5-6.2-4.8-8.2c0.3-2.4,0.8-2.7,5.7-3.2c4-0.4,5.8-1.1,7.2-2.8c2.4-2.9,2.4-8.9,0.2-13.6
		c-2.5-5.3-1-7.1,5.6-6.7c7.3,0.5,7.8-1.6,1.8-7.7c-4.9-5-5-6.1-0.6-6.1c4.3,0,9-2,9-3.9c0-0.9-0.9-3.1-2-4.9
		c-2.8-4.6-2.6-5.2,2.4-5.2c5.8,0,7.7-2,5.3-6c-2.1-3.5-1.4-5.6,2.3-6.9c1.7-0.6,3.6-2.5,4.9-4.8L1736.7,838.3z M1582.7,955.8
		c-0.5-0.1-1,0.1-1.5,0.5c-1.7,1.2-1.7,1.4,0.4,2c2.7,0.9,2.7,1.7,0.1,4.1l-2.1,1.9l2.1,0.8c1.5,0.5,2,1.5,1.8,3
		c-0.3,2.1,0.1,2.3,4.7,2.4c5.2,0.1,7.5-0.3,7.5-1.5c0-0.4-2.9-3.7-6.4-7.4C1585.5,957.5,1583.8,956,1582.7,955.8L1582.7,955.8z"/>
	<path id="path3133-3_00000088811974100013818880000015930698048210874772_" class="st8" d="M171.9,817.1l2,3.8
		c1.2,2.3,3.1,4.2,4.9,4.8c3.7,1.3,4.4,3.4,2.3,6.9c-2.3,4-0.5,6,5.3,6c4.9,0,5.2,0.6,2.4,5.2c-1.1,1.8-2,4-2,4.9
		c0,1.8,4.7,3.8,9,3.8c4.4,0,4.3,1.1-0.6,6.1c-6,6.1-5.6,8.2,1.7,7.7c6.6-0.4,8.1,1.4,5.6,6.7c-2.3,4.8-2.2,10.7,0.2,13.6
		c1.4,1.7,3.3,2.5,7.2,2.9c4.9,0.5,5.4,0.8,5.7,3.1c0.2,2-0.9,4-4.8,8.2c-2.8,3-5,6-5,6.6c0,1.8,4.8,2.4,13.7,1.8
		c6.7-0.5,8.5-0.3,9,0.8c0.8,2-0.5,3.7-5.4,7.8c-2.3,1.9-5.5,5-7,6.8l-2.7,3.2l4.6-0.5c2.6-0.3,5.9-1.5,7.4-2.7
		c3.6-2.9,5-2.7,6.4,0.9c1.5,3.7,3,3.8,5.8,0.5c2.8-3.2,4.2-3.2,4.2,0.1c0,2.2,0.3,2.5,2.2,2c1.2-0.4,5.2-0.9,8.8-1.2
		c9.7-0.9,11.1-3,6.4-9.9c-3.5-5.1-2.7-6.5,3.8-6.5h5.3l-5.9-5.3c-3.7-3.3-5.6-5.8-5.2-6.5s2.9-1.2,5.7-1.2c2.7,0,4.9-0.4,4.9-1
		s-2-2.1-4.5-3.6c-6.8-4-5.5-6.4,3.7-6.4c5,0,5.5-1.4,1.3-4c-4.4-2.7-4.4-4.3-0.3-5.6c4.2-1.3,4.4-2.6,0.8-4.8
		c-3.8-2.3-3.4-3.8,1.4-5l3.7-0.9l-0.7-6.2c-0.4-4.2-0.3-6.5,0.5-7c2.3-1.4,5.3,0.7,8.2,5.9c2.1,3.7,3.9,5.7,5.9,6.4
		c3.7,1.3,4.3,4.9,1.3,8.2c-1.2,1.4-1.2,1.8,0.1,2.8c0.8,0.7,3.3,1.5,5.5,1.8c4.4,0.6,5.2,2.4,2.6,5.8c-3.4,4.5-0.8,7.4,6.3,7.4
		c2.2,0,4.3,0.5,4.7,1.1c0.4,0.6-1.7,3.5-4.7,6.5c-6.2,6.3-5.7,7.8,2.3,6.8c4-0.5,4.8-0.3,5.8,1.5c0.9,1.6,0.8,2.8-0.4,5.1
		c-0.8,1.6-1.5,5.2-1.5,8c0,6.6,2.3,9.1,8.4,9.1c2.6,0,4.9,0.6,5.6,1.4c0.8,1,1.9,1.2,3.3,0.7c1.7-0.6,2.2-1.7,2.2-5
		c0.1-2.9,0.7-4.6,1.8-5.2c1.1-0.6,1.5-1.7,1.1-3.2c-0.4-1.4,0-2.8,1-3.6c1.3-1.1,2.1-0.6,5.6,3.1c2.5,2.8,3.8,5,3.6,6.2
		c-0.3,1.2,0.3,2.1,2.1,2.8c2.1,0.8,2.4,1.4,1.8,3.9c-0.6,2.7-0.4,3,1.8,3c3.5,0,4.4,2,1.7,4c-2.6,1.9-2,4,1.2,4
		c1.8,0,2,0.4,1.4,3.9c-0.8,4.8,0,7.1,2.5,7.1c1.6,0,1.7-0.3,0.7-2c-1.6-2.6-0.8-3.2,6.5-4.5l6.2-1.1l-3.8-2.4
		c-4.6-3-4.7-4.6-0.6-5.7c4.2-1.1,4.4-2.4,0.7-4.5c-3.7-2.1-3.4-4,1-4.9c4.7-1,5.2-1.9,3.5-6.8c-1.7-5-1.2-7.7,1.6-8.6
		c2.9-0.9,4.9,0.6,7.8,6c1.5,2.7,4,5.6,5.6,6.4c4.6,2.5,5.4,4.5,3.3,8.2c-1,1.7-1.6,3.4-1.2,3.7c0.3,0.3,2.5,0.4,4.9,0.3
		c5.5-0.3,6.4,1.5,3.4,6.8c-2.9,5-2,7.1,3.1,7.1c7.2,0,8.4,1.3,5.7,6.6c-1.1,2-1.2,3.2-0.4,4.1c0.8,1,0.7,1.3-0.6,1.3
		c-0.9,0-1.5,0.4-1.2,0.9s2.6,0.7,5.1,0.4l4.5-0.5v3.2c0,2.5,0.3,3.1,1.6,2.6c0.9-0.3,2.8-0.6,4.2-0.7c1.5,0,2.1-0.3,1.4-0.6
		s-1.2-1.8-1.2-3.4c0-1.6-0.5-2.9-1.2-2.9c-0.6,0,0.5-1.5,2.4-3.3c2.7-2.5,3.3-3.7,2.6-4.9c-0.7-1.2-0.3-2,1.2-3
		c1.4-1,2.2-2.7,2.3-5.2c0.1-2.1,0.8-4,1.4-4.2c0.7-0.2,1.2-1.9,1.2-3.8c0-2.7,0.4-3.4,2-3.4c1.1,0,2.4,0.6,3,1.2
		c0.6,0.7,2.1,2.5,3.4,4c1.4,1.6,2.2,3.6,1.9,4.6c-0.9,3.6,9.8,6.7,13.7,4c1.3-0.9,1.1-1.3-1-2.8c-3.9-2.7-7-6.3-7-8.3
		c0-1.5,1-1.9,5.1-2.1l5.1-0.3l-4.6-3.4c-2.5-1.9-4.6-3.8-4.6-4.2c0-1.4,4-3,8-3.1c4.8-0.2,5-1.1,0.9-3.2c-3.9-2-3.5-4.6,0.8-5.7
		c4-1,4.1-2.3,0.2-4.3c-4.7-2.4-3.5-5.5,2.1-5.5c2.7,0,3.4-2.4,1.9-7.5c-1.5-5.3-0.2-7.8,3.9-7.3c1.9,0.2,3.3,1.6,5.2,5.2
		c1.7,3.2,3.8,5.5,6,6.5c2.7,1.3,3.4,2.2,3.7,4.9c0.2,1.9-0.2,3.8-0.8,4.4c-2.4,2.4-1.1,3.7,3.5,3.7c5.7,0,6.6,1.8,3.6,7.3
		c-2.8,5.1-1.7,6.5,5.2,6.9c6.8,0.4,7.1,2.3,1.2,7.9c-6.1,5.8-6,7.3,0.5,6.7c6.4-0.6,8.6,0.8,7.6,4.8c-1.7,7.1-1.7,9.1,0.2,12.5
		c1.7,3,2.5,3.5,6.4,3.7c4,0.3,4.6,0,5.6-2.2c1.6-3.5,6.5-3.5,8.8,0c1,1.5,2.6,2.5,4,2.5c2.1,0,2.4,0.5,2.4,4c0,2.8,0.4,4,1.4,4
		c1.6,0,2.6,2.1,2.6,5.6c0,1.7,0.5,2.4,1.9,2.4s2.1,0.9,2.6,3.2c1.2,5.8,1.6,6.8,3.1,6.8c0.8,0,1.4,0.7,1.4,1.5s0.7,1.5,1.5,1.5
		c0.9,0,1.5,0.9,1.5,2.5c0,2-0.5,2.5-2.5,2.5c-1.6,0-2.5-0.6-2.5-1.5c0-0.8-0.5-1.5-1.1-1.5c-2.5,0-0.2,3.5,2.6,4
		c2.5,0.4,3,1,3.3,3.9c0.4,3.9,2.2,6.1,5.1,6.1c1.6,0,2.1,0.6,2.1,3c0,1.6,0.4,3,1,3c0.5,0,1,1.5,1.1,3.2l0.1,3.2l1.1-2.8
		c1.3-3.2,5.3-3.9,5.9-1c0.2,1.1,0.6,1.3,1,0.7s-0.4-2.3-1.8-3.7c-2.7-2.9-3.3-6.7-0.9-6.7c1.1,0,1.5-1.1,1.5-4s0.5-4.3,2-5.2
		c1.5-1,2-2.3,2-6c0-4.3,0.2-4.8,2.3-4.8s2.2-0.4,1.9-4l-0.4-4h4.1c3.5,0,4.3,0.4,5.6,3c0.9,1.7,2.2,3,3,3s1.7,1.4,2.1,3.5
		c0.5,2.5,1.2,3.5,2.5,3.5c1.5,0,1.9,0.7,1.9,3.5s0.4,3.5,1.9,3.5c2.3,0,3.4,3.9,3.5,12.8c0.1,5.3,0.3,6.2,1.8,6.2
		c1,0,1.8-0.5,1.8-1s1.2-1,2.7-1c2.1,0,2.4,0.3,1.5,1.2c-1.5,1.5-1.6,5.8-0.2,5.8c0.5,0,1,0.9,1,2c0,1.8,0.7,2,6,2c5,0,6-0.3,6-1.8
		c0-1,0.7-2.6,1.5-3.7c0.8-1,1.2-2.3,0.9-2.8s-0.1-0.8,0.5-0.8c0.5,0,1.1-1.7,1.3-3.8c0.3-3.5,0.5-3.8,4.1-4.1
		c3.3-0.3,4,0.1,5.5,2.8c1,1.7,2.3,3.1,2.9,3.1c0.7,0,1.3,1.5,1.5,3.2c0.3,3.1,0.5,3.3,4.7,3.6c3.3,0.2,4.5,0.8,4.9,2.2
		c0.4,1.6,1.4,1.9,6.4,1.9c5.1,0,5.9-0.2,5.9-1.9c0-1.1,0.9-2.2,2.1-2.6c1.7-0.5,1.9-1.2,1.4-3.6c-0.4-1.6-0.2-2.9,0.3-2.9
		s1.3-2.1,1.7-4.8c0.4-2.6,1.2-5,1.7-5.4c0.6-0.3,1.3-2.1,1.7-4c0.6-3,1.1-3.4,4.3-3.7s3.9,0.1,6,3.2c2.1,3.3,2.6,3.5,6.1,2.9
		s3.8-0.4,3.8,2c0,2-0.5,2.6-2,2.6c-1.1,0-2,0.4-2,1c0,0.5,1.1,1,2.5,1c2,0,2.5-0.5,2.5-2.6c0-1.8,0.6-2.8,2-3.1
		c1.2-0.3,2-1.4,2-2.7c0-1.2,0.9-2.7,2-3.4s2-1.9,2-2.7c0-1.1,1.1-1.5,3.9-1.5h3.9l1.2,5.8c0.7,3.2,1.2,6.3,1.2,7s0.8,1.2,1.8,1.2
		c1.4,0,1.8,0.8,1.8,3.5c0,1.9-0.6,4.4-1.2,5.6c-1.1,1.8-0.9,2.3,1.1,4c3.4,2.8,4.2,2.4,2.6-1.4c-0.8-1.9-1.1-3.6-0.8-3.9
		c0.3-0.3,0.7-5.2,1-10.9c0.4-11,1.9-15.2,6.9-20.6c1.4-1.5,2.7-3.4,3-4.3c0.3-0.9,1.4-1.9,2.5-2.2c2-0.5,2.8-2.7,1-2.7
		c-0.5,0-1-1.1-1-2.5c0-2,0.5-2.5,2.4-2.5c1.5,0,2.6,0.7,2.9,1.8c0.4,1.5,0.6,1.4,1.2-0.5c0.4-1.2,1.4-2.2,2.1-2.2
		c0.8,0,1.4-1,1.4-2.5c0-2.2,0.4-2.5,3.5-2.5c2.6,0,4.2,0.8,6.1,3c2.1,2.4,3,2.8,4.5,1.9c2-1.1,8.8,0.7,8.8,2.3c0,0.5-1,2.1-2.2,3.7
		c-3,4-1.9,6.2,2.9,5.8c3.3-0.3,3.7-0.6,3.8-3c0-1.7,1-3.5,2.8-4.8c2.1-1.7,2.7-3,2.7-6.1v-3.9l4,0.6c4.6,0.7,6.1-1,4.2-5.2
		c-1-2.1-0.8-2.6,1.4-4.1c1.4-0.9,3.2-2.9,4-4.4c1.9-3.7,4.4-6.1,5.6-5.3c0.6,0.4,0.7,2.6,0.3,5.5c-0.6,4.6-0.5,4.9,1.9,5.5
		c2.9,0.7,3.2,1.4,1.3,3.3c-1,1-0.8,1.6,1,2.8c1.2,0.8,2.2,2.6,2.2,3.8c0,1.3,1.1,3.1,2.7,4.3c2.5,1.8,2.6,2.2,1.3,4.6
		c-0.8,1.4-1.2,2.7-1,2.9s1.7,1.2,3.2,2.4c1.6,1.2,2.3,2.4,1.8,2.8c-1.6,1-1.2,4,1,6.8c1.6,2.1,1.8,3,1,5.2
		c-1.4,3.6-1.5,3.4,3.4,5.6c4.2,1.9,4.4,2.1,3.6,4.9c-0.9,3-0.2,6.9,1.9,10.8c1.2,2.3,6.1,3.1,6.1,1c0-0.6,0.7-1.7,1.6-2.3
		c0.9-0.6,1.6-2.8,1.8-4.8c0.1-2.2,0.7-3.7,1.4-3.7s1.2-1.1,1.2-2.4c0-1.3,0.5-2.8,1.1-3.1c0.6-0.4,0.8-1.2,0.6-2
		c-0.7-1.7,1.2-8.5,2.3-8.5c0.5,0,1.1,1.7,1.5,3.7c1.1,5.8,2.3,7.3,5.8,7.4c2.4,0.1,2.6,0.2,1,0.6c-1.2,0.2-2.2,0.9-2.2,1.4
		s-2,0.9-4.4,0.9c-4.1,0-4.4,0.2-5,3.1c-0.3,1.7-0.6,4.2-0.6,5.5c0,1.6-0.8,2.7-2.5,3.3c-3.3,1.2-4.3,3.9-2.1,5.5
		c0.9,0.7,1.7,1.9,1.7,2.8c0,2.6,10.3,2.3,13-0.3c1.1-1.1,2.7-2,3.5-2s1.5-0.8,1.5-1.8s0.6-2.7,1.4-3.7c1.3-1.8,1.5-1.8,4.8,1.8
		c1.9,2.1,4.4,3.8,5.6,3.8c1.5,0,2.2,0.6,2.2,2c0,1.8,0.7,2,6,2h6v-4.8c0-2.6,0.7-5.6,1.5-6.7c1.4-1.8,1.5-1.6,1.2,3l-0.2,5l4.1,0.3
		c5.5,0.4,9.4-1.2,9.4-3.9c0-1.4-0.5-2-1.3-1.6c-1,0.4-1.2-0.2-0.8-2.1c0.7-3.5,2.8-5.7,3.6-3.6c0.3,0.8,1.5,1.5,2.6,1.5
		c1.7,0,2-0.5,1.5-2.4c-0.8-3.1,1.5-4.7,3-2.1c0.6,1,2,2.8,3.2,4c1.5,1.5,2,2.8,1.6,4.4c-0.5,1.7-0.1,2.4,1.6,2.8
		c1.6,0.4,2.1,1.1,1.7,2.7c-0.7,2.6,2.4,14.3,5.1,14.3c169,52.4,235,100.2,234.1,140.6H172.8l-1-191.9L171.9,817.1L171.9,817.1z
		 M326.2,934.6c-1.2,0-2.8,1.4-7,5.8c-3.5,3.7-6.4,7-6.4,7.4c0,1.2,2.3,1.6,7.5,1.5c4.6-0.1,5-0.3,4.7-2.4c-0.2-1.6,0.3-2.5,1.8-3
		l0.1-4.6l-2-1.9c-2.6-2.4-2.6-3.2,0.1-4.1c2.1-0.7,2.1-0.8,0.4-2c-0.4-0.3-0.8-0.5-1.2-0.5L326.2,934.6z M246.3,934.9
		c-0.6-0.1-1.1,0-1.3,0.2c-0.9,0.9,2.8,3.5,5.1,3.5c1,0,1.7-0.5,1.5-1.2C251.2,936.4,248.2,935,246.3,934.9L246.3,934.9z
		 M247.2,945.6c-0.1,0,0,1.1,0.3,2.5c0.4,2,1.1,2.5,3.4,2.5c1.8,0,2.9-0.5,2.9-1.4C253.8,948.2,249.1,945.6,247.2,945.6L247.2,945.6
		z M359,950.9c-1.1,0-1.5,0.7-0.8,1.8c0.8,1.3,2.3,1.4,3.1,0.1c0.3-0.6-0.1-1.3-1-1.6C359.8,951,359.4,950.9,359,950.9L359,950.9z
		 M700.3,954.8c1.6,0,2.5,0.6,2.5,1.5c0,0.8,0.7,1.5,1.5,1.5c0.9,0,1.5,0.9,1.5,2.5c0,2-0.5,2.5-2.5,2.5c-1.6,0-2.5-0.6-2.5-1.5
		c0-0.8-0.7-1.5-1.5-1.5c-0.9,0-1.5-0.9-1.5-2.5C697.8,955.3,698.3,954.8,700.3,954.8z M678.3,954.8c0.8,0,1.5,0.7,1.5,1.5
		s-0.7,1.5-1.5,1.5s-1.5-0.7-1.5-1.5S677.5,954.8,678.3,954.8z M738.3,957.7c0.1,0,0.1,0.2,0.2,0.4c0.3,1,0.3,2.5,0,3.5
		s-0.5,0.2-0.5-1.8C738,958.4,738.1,957.6,738.3,957.7L738.3,957.7z M838.7,964.9c0.3,0,0.4,0.6,0.7,1.7c0.3,1.2,1.1,2.2,1.7,2.2
		c0.8,0,0.8,0.2,0,0.8c-0.6,0.4-1.4,1.7-1.7,2.8s-0.5,1.3-0.6,0.6c-0.1-0.8-0.8-2.1-1.6-3c-1.2-1.4-1.2-1.8,0-3.6
		C838.1,965.3,838.5,964.9,838.7,964.9L838.7,964.9z M780.3,966.8c-0.9,0-1.3,0.5-1,1s0.8,1,1,1s0.7-0.5,1-1
		S781.2,966.8,780.3,966.8z M407.5,973.2c-0.2-0.1-0.4,0.3-0.8,1c-0.6,1-0.8,2.5-0.5,3.2c0.9,2.4,1.6,1.6,1.6-1.8
		C407.7,974,407.7,973.3,407.5,973.2L407.5,973.2z M845.1,974.2c0.1,0,0.2,0.2,0.3,0.5c0.3,0.7,0.2,1.6-0.1,1.9
		c-0.3,0.3-0.6-0.3-0.5-1.3C844.9,974.5,845,974.1,845.1,974.2L845.1,974.2z M841.3,976.8c2,0,2.5,0.5,2.5,2.5s-0.5,2.5-2.5,2.5
		s-2.5-0.5-2.5-2.5S839.3,976.8,841.3,976.8z M835.4,979.2c0.1,0,0.3,0,0.4,0.1c0.5,0.3,1,1,1,1.6s-0.5,0.9-1,0.9s-1-0.7-1-1.6
		C834.8,979.6,835,979.2,835.4,979.2z M847.2,983.6c0.1,0,0.2,0.1,0.2,0.5c0.3,1,0.2,2.3,0,3c-0.3,0.7-0.5-0.1-0.5-1.8
		C847,984.3,847.1,983.7,847.2,983.6L847.2,983.6z M836.3,984.8c1.8,0,2.4,0.5,2.4,2c0,2.4-4.6,7.4-5.5,5.9c-0.3-0.5-0.1-1,0.6-1
		c0.8,0,1-1.1,0.6-3.5C833.9,985.1,834.1,984.8,836.3,984.8L836.3,984.8z M854.7,992c1.6,0.1,1.9,0.4,1.3,1.1
		c-0.6,0.7-1.2,2.2-1.5,3.2c-0.4,1.6-0.5,1.4-0.6-0.7c-0.1-2.1-0.7-2.8-2.9-3.1c-1.9-0.3-1.3-0.5,1.6-0.6
		C853.5,992,854.2,991.9,854.7,992L854.7,992z M831.8,994.8c0.5,0,1,0.6,1,1.4c0,0.8-0.5,1.7-1,2.1c-0.5,0.3-1-0.3-1-1.4
		S831.2,994.8,831.8,994.8L831.8,994.8z M854.2,1000.2c0.4,0,0.6,0.4,0.6,1c0,0.8,0.3,2.2,0.6,3.1c0.4,1,0.1,1.6-1,1.6
		c-1,0-1.6-0.9-1.6-2.4c0-1.3,0.5-2.7,1-3.1C853.9,1000.2,854,1000.2,854.2,1000.2L854.2,1000.2z M856.4,1007.2c0.1,0,0.3,0,0.4,0.1
		c0.6,0.4,2.2,1,3.6,1.3c2,0.5,2.2,0.9,1.2,1.7c-0.7,0.6-2.4,0.9-3.6,0.7c-1.5-0.2-2.2-1.1-2.2-2.3
		C855.8,1007.8,856,1007.3,856.4,1007.2L856.4,1007.2z"/>
</g>
</svg>
